# Blender v2.82 (sub 7) OBJ File: ''
# www.blender.org
mtllib LayerBonus3.mtl
o ObjObject.024
v -0.750000 0.500000 0.750000
v -0.750000 0.000000 -0.750000
v -0.750000 0.000000 0.750000
v -0.750000 0.500000 -0.750000
v -0.750000 0.600000 0.750000
v -0.750000 0.600000 -0.750000
v -0.550000 0.700000 0.550000
v -0.550000 0.600000 0.450000
v -0.550000 0.600000 0.550000
v -0.550000 0.700000 0.450000
v -0.550000 0.700000 0.250000
v -0.550000 0.600000 0.150000
v -0.550000 0.600000 0.250000
v -0.550000 0.700000 0.150000
v -0.550000 0.700000 -0.549999
v -0.550000 0.600000 -0.649999
v -0.550000 0.600000 -0.549999
v -0.550000 0.700000 -0.649999
v -0.150000 0.700000 0.450000
v -0.150000 0.600000 0.350000
v -0.150000 0.600000 0.450000
v -0.150000 0.700000 0.350000
v -0.150000 0.700000 -0.150000
v -0.150000 0.600000 -0.250000
v -0.150000 0.600000 -0.150000
v -0.150000 0.700000 -0.250000
v 0.250000 0.700000 0.050000
v 0.250000 0.600000 -0.050000
v 0.250000 0.600000 0.050000
v 0.250000 0.700000 -0.050000
v 0.250000 0.700000 -0.549999
v 0.250000 0.600000 -0.649999
v 0.250000 0.600000 -0.549999
v 0.250000 0.700000 -0.649999
v 0.450000 0.700000 0.650000
v 0.450000 0.600000 0.550000
v 0.450000 0.600000 0.650000
v 0.450000 0.700000 0.550000
v 0.450000 0.700000 0.050000
v 0.450000 0.600000 -0.050000
v 0.450000 0.600000 0.050000
v 0.450000 0.700000 -0.050000
v -0.450000 0.600000 0.550000
v -0.450000 0.600000 0.450000
v -0.450000 0.700000 0.550000
v -0.450000 0.700000 0.450000
v -0.450000 0.600000 0.250000
v -0.450000 0.600000 0.150000
v -0.450000 0.700000 0.250000
v -0.450000 0.700000 0.150000
v -0.450000 0.600000 -0.549999
v -0.450000 0.600000 -0.649999
v -0.450000 0.700000 -0.549999
v -0.450000 0.700000 -0.649999
v -0.050000 0.600000 0.450000
v -0.050000 0.600000 0.350000
v -0.050000 0.700000 0.450000
v -0.050000 0.700000 0.350000
v -0.050000 0.600000 -0.150000
v -0.050000 0.600000 -0.250000
v -0.050000 0.700000 -0.150000
v -0.050000 0.700000 -0.250000
v 0.350000 0.600000 0.050000
v 0.350000 0.600000 -0.050000
v 0.350000 0.700000 0.050000
v 0.350000 0.700000 -0.050000
v 0.350000 0.600000 -0.549999
v 0.350000 0.600000 -0.649999
v 0.350000 0.700000 -0.549999
v 0.350000 0.700000 -0.649999
v 0.550000 0.600000 0.650000
v 0.550000 0.600000 0.550000
v 0.550000 0.700000 0.650000
v 0.550000 0.700000 0.550000
v 0.550000 0.600000 0.050000
v 0.550000 0.600000 -0.050000
v 0.550000 0.700000 0.050000
v 0.550000 0.700000 -0.050000
v 0.750000 0.000000 0.750000
v 0.750000 0.000000 -0.750000
v 0.750000 0.500000 0.750000
v 0.750000 0.500000 -0.750000
v 0.750000 0.600000 0.750000
v 0.750000 0.600000 -0.750000
v 0.750000 0.000000 0.750000
v -0.750000 0.500000 0.750000
v -0.750000 0.000000 0.750000
v 0.750000 0.500000 0.750000
v -0.750000 0.600000 0.750000
v 0.750000 0.600000 0.750000
v 0.550000 0.600000 0.650000
v 0.450000 0.700000 0.650000
v 0.450000 0.600000 0.650000
v 0.550000 0.700000 0.650000
v -0.450000 0.600000 0.550000
v -0.550000 0.700000 0.550000
v -0.550000 0.600000 0.550000
v -0.450000 0.700000 0.550000
v -0.050000 0.600000 0.450000
v -0.150000 0.700000 0.450000
v -0.150000 0.600000 0.450000
v -0.050000 0.700000 0.450000
v -0.450000 0.600000 0.250000
v -0.550000 0.700000 0.250000
v -0.550000 0.600000 0.250000
v -0.450000 0.700000 0.250000
v 0.350000 0.600000 0.050000
v 0.250000 0.700000 0.050000
v 0.250000 0.600000 0.050000
v 0.350000 0.700000 0.050000
v 0.550000 0.600000 0.050000
v 0.450000 0.700000 0.050000
v 0.450000 0.600000 0.050000
v 0.550000 0.700000 0.050000
v -0.050000 0.600000 -0.150000
v -0.150000 0.700000 -0.150000
v -0.150000 0.600000 -0.150000
v -0.050000 0.700000 -0.150000
v -0.450000 0.600000 -0.549999
v -0.550000 0.700000 -0.549999
v -0.550000 0.600000 -0.549999
v -0.450000 0.700000 -0.549999
v 0.350000 0.600000 -0.549999
v 0.250000 0.700000 -0.549999
v 0.250000 0.600000 -0.549999
v 0.350000 0.700000 -0.549999
v 0.450000 0.600000 0.550000
v 0.450000 0.700000 0.550000
v 0.550000 0.600000 0.550000
v 0.550000 0.700000 0.550000
v -0.550000 0.600000 0.450000
v -0.550000 0.700000 0.450000
v -0.450000 0.600000 0.450000
v -0.450000 0.700000 0.450000
v -0.150000 0.600000 0.350000
v -0.150000 0.700000 0.350000
v -0.050000 0.600000 0.350000
v -0.050000 0.700000 0.350000
v -0.550000 0.600000 0.150000
v -0.550000 0.700000 0.150000
v -0.450000 0.600000 0.150000
v -0.450000 0.700000 0.150000
v 0.250000 0.600000 -0.050000
v 0.250000 0.700000 -0.050000
v 0.350000 0.600000 -0.050000
v 0.350000 0.700000 -0.050000
v 0.450000 0.600000 -0.050000
v 0.450000 0.700000 -0.050000
v 0.550000 0.600000 -0.050000
v 0.550000 0.700000 -0.050000
v -0.150000 0.600000 -0.250000
v -0.150000 0.700000 -0.250000
v -0.050000 0.600000 -0.250000
v -0.050000 0.700000 -0.250000
v -0.550000 0.600000 -0.649999
v -0.550000 0.700000 -0.649999
v -0.450000 0.600000 -0.649999
v -0.450000 0.700000 -0.649999
v 0.250000 0.600000 -0.649999
v 0.250000 0.700000 -0.649999
v 0.350000 0.600000 -0.649999
v 0.350000 0.700000 -0.649999
v -0.750000 0.000000 -0.750000
v -0.750000 0.500000 -0.750000
v 0.750000 0.000000 -0.750000
v -0.750000 0.600000 -0.750000
v 0.750000 0.500000 -0.750000
v 0.750000 0.600000 -0.750000
v -0.750000 0.000000 -0.750000
v 0.750000 0.000000 0.750000
v -0.750000 0.000000 0.750000
v 0.750000 0.000000 -0.750000
v -0.750000 0.600000 0.750000
v 0.750000 0.600000 0.750000
v -0.650000 0.600000 0.650000
v 0.450000 0.600000 0.650000
v 0.550000 0.600000 0.650000
v 0.650000 0.600000 0.650000
v -0.550000 0.600000 0.550000
v -0.450000 0.600000 0.550000
v -0.350000 0.600000 0.550000
v -0.150000 0.600000 0.550000
v 0.150000 0.600000 0.550000
v 0.350000 0.600000 0.550000
v 0.450000 0.600000 0.550000
v 0.550000 0.600000 0.550000
v -0.550000 0.600000 0.450000
v -0.450000 0.600000 0.450000
v -0.150000 0.600000 0.450000
v -0.050000 0.600000 0.450000
v -0.150000 0.600000 0.350000
v -0.050000 0.600000 0.350000
v 0.150000 0.600000 0.350000
v -0.550000 0.600000 0.250000
v -0.450000 0.600000 0.250000
v -0.550000 0.600000 0.150000
v -0.450000 0.600000 0.150000
v -0.350000 0.600000 0.050000
v -0.250000 0.600000 0.050000
v 0.250000 0.600000 0.050000
v 0.350000 0.600000 0.050000
v 0.450000 0.600000 0.050000
v 0.550000 0.600000 0.050000
v -0.450000 0.600000 -0.050000
v -0.350000 0.600000 -0.050000
v -0.250000 0.600000 -0.050000
v -0.150000 0.600000 -0.050000
v 0.150000 0.600000 -0.050000
v 0.250000 0.600000 -0.050000
v 0.350000 0.600000 -0.050000
v 0.450000 0.600000 -0.050000
v 0.550000 0.600000 -0.050000
v -0.350000 0.600000 -0.150000
v -0.150000 0.600000 -0.150000
v -0.050000 0.600000 -0.150000
v 0.150000 0.600000 -0.150000
v 0.350000 0.600000 -0.150000
v -0.550000 0.600000 -0.250000
v -0.450000 0.600000 -0.250000
v -0.150000 0.600000 -0.250000
v -0.050000 0.600000 -0.250000
v 0.050000 0.600000 -0.250000
v 0.150000 0.600000 -0.250000
v 0.450000 0.600000 -0.250000
v 0.550000 0.600000 -0.250000
v -0.550000 0.600000 -0.450000
v -0.450000 0.600000 -0.450000
v -0.150000 0.600000 -0.450000
v -0.050000 0.600000 -0.450000
v 0.050000 0.600000 -0.450000
v 0.150000 0.600000 -0.450000
v 0.450000 0.600000 -0.450000
v 0.550000 0.600000 -0.450000
v -0.550000 0.600000 -0.549999
v -0.450000 0.600000 -0.549999
v -0.150000 0.600000 -0.549999
v 0.150000 0.600000 -0.549999
v 0.250000 0.600000 -0.549999
v 0.350000 0.600000 -0.549999
v 0.450000 0.600000 -0.549999
v -0.650000 0.600000 -0.649999
v -0.550000 0.600000 -0.649999
v -0.450000 0.600000 -0.649999
v 0.250000 0.600000 -0.649999
v 0.350000 0.600000 -0.649999
v 0.650000 0.600000 -0.649999
v -0.750000 0.600000 -0.750000
v 0.750000 0.600000 -0.750000
v 0.450000 0.700000 0.650000
v 0.550000 0.700000 0.650000
v 0.450000 0.700000 0.550000
v 0.550000 0.700000 0.550000
v -0.550000 0.700000 0.550000
v -0.450000 0.700000 0.550000
v -0.550000 0.700000 0.450000
v -0.450000 0.700000 0.450000
v -0.150000 0.700000 0.450000
v -0.050000 0.700000 0.450000
v -0.150000 0.700000 0.350000
v -0.050000 0.700000 0.350000
v -0.550000 0.700000 0.250000
v -0.450000 0.700000 0.250000
v -0.550000 0.700000 0.150000
v -0.450000 0.700000 0.150000
v 0.250000 0.700000 0.050000
v 0.350000 0.700000 0.050000
v 0.250000 0.700000 -0.050000
v 0.350000 0.700000 -0.050000
v 0.450000 0.700000 0.050000
v 0.550000 0.700000 0.050000
v 0.450000 0.700000 -0.050000
v 0.550000 0.700000 -0.050000
v -0.150000 0.700000 -0.150000
v -0.050000 0.700000 -0.150000
v -0.150000 0.700000 -0.250000
v -0.050000 0.700000 -0.250000
v -0.550000 0.700000 -0.549999
v -0.450000 0.700000 -0.549999
v -0.550000 0.700000 -0.649999
v -0.450000 0.700000 -0.649999
v 0.250000 0.700000 -0.549999
v 0.350000 0.700000 -0.549999
v 0.250000 0.700000 -0.649999
v 0.350000 0.700000 -0.649999
vt 0.958984 0.500000
vt 0.958984 0.500000
vt 0.958984 0.500000
vt 0.958984 0.500000
vt 0.970703 0.500000
vt 0.970703 0.500000
vt 0.970703 0.500000
vt 0.970703 0.500000
vt 0.966797 0.500000
vt 0.966797 0.500000
vt 0.966797 0.500000
vt 0.966797 0.500000
vt 0.966797 0.500000
vt 0.966797 0.500000
vt 0.966797 0.500000
vt 0.966797 0.500000
vt 0.966797 0.500000
vt 0.966797 0.500000
vt 0.966797 0.500000
vt 0.966797 0.500000
vt 0.966797 0.500000
vt 0.966797 0.500000
vt 0.966797 0.500000
vt 0.966797 0.500000
vt 0.966797 0.500000
vt 0.966797 0.500000
vt 0.966797 0.500000
vt 0.966797 0.500000
vt 0.966797 0.500000
vt 0.966797 0.500000
vt 0.966797 0.500000
vt 0.966797 0.500000
vt 0.966797 0.500000
vt 0.966797 0.500000
vt 0.966797 0.500000
vt 0.966797 0.500000
vt 0.966797 0.500000
vt 0.966797 0.500000
vt 0.966797 0.500000
vt 0.966797 0.500000
vt 0.966797 0.500000
vt 0.966797 0.500000
vt 0.966797 0.500000
vt 0.966797 0.500000
vt 0.966797 0.500000
vt 0.966797 0.500000
vt 0.966797 0.500000
vt 0.966797 0.500000
vt 0.966797 0.500000
vt 0.966797 0.500000
vt 0.966797 0.500000
vt 0.966797 0.500000
vt 0.966797 0.500000
vt 0.966797 0.500000
vt 0.966797 0.500000
vt 0.966797 0.500000
vt 0.966797 0.500000
vt 0.966797 0.500000
vt 0.966797 0.500000
vt 0.966797 0.500000
vt 0.966797 0.500000
vt 0.966797 0.500000
vt 0.966797 0.500000
vt 0.966797 0.500000
vt 0.966797 0.500000
vt 0.966797 0.500000
vt 0.966797 0.500000
vt 0.966797 0.500000
vt 0.966797 0.500000
vt 0.966797 0.500000
vt 0.966797 0.500000
vt 0.966797 0.500000
vt 0.966797 0.500000
vt 0.966797 0.500000
vt 0.966797 0.500000
vt 0.966797 0.500000
vt 0.966797 0.500000
vt 0.966797 0.500000
vt 0.966797 0.500000
vt 0.966797 0.500000
vt 0.958984 0.500000
vt 0.958984 0.500000
vt 0.958984 0.500000
vt 0.958984 0.500000
vt 0.970703 0.500000
vt 0.970703 0.500000
vt 0.970703 0.500000
vt 0.970703 0.500000
vt 0.958984 0.500000
vt 0.958984 0.500000
vt 0.958984 0.500000
vt 0.970703 0.500000
vt 0.970703 0.500000
vt 0.970703 0.500000
vt 0.958984 0.500000
vt 0.970703 0.500000
vt 0.966797 0.500000
vt 0.966797 0.500000
vt 0.966797 0.500000
vt 0.966797 0.500000
vt 0.966797 0.500000
vt 0.966797 0.500000
vt 0.966797 0.500000
vt 0.966797 0.500000
vt 0.966797 0.500000
vt 0.966797 0.500000
vt 0.966797 0.500000
vt 0.966797 0.500000
vt 0.966797 0.500000
vt 0.966797 0.500000
vt 0.966797 0.500000
vt 0.966797 0.500000
vt 0.966797 0.500000
vt 0.966797 0.500000
vt 0.966797 0.500000
vt 0.966797 0.500000
vt 0.966797 0.500000
vt 0.966797 0.500000
vt 0.966797 0.500000
vt 0.966797 0.500000
vt 0.966797 0.500000
vt 0.966797 0.500000
vt 0.966797 0.500000
vt 0.966797 0.500000
vt 0.966797 0.500000
vt 0.966797 0.500000
vt 0.966797 0.500000
vt 0.966797 0.500000
vt 0.966797 0.500000
vt 0.966797 0.500000
vt 0.966797 0.500000
vt 0.966797 0.500000
vt 0.966797 0.500000
vt 0.966797 0.500000
vt 0.966797 0.500000
vt 0.966797 0.500000
vt 0.966797 0.500000
vt 0.966797 0.500000
vt 0.966797 0.500000
vt 0.966797 0.500000
vt 0.966797 0.500000
vt 0.966797 0.500000
vt 0.966797 0.500000
vt 0.966797 0.500000
vt 0.966797 0.500000
vt 0.966797 0.500000
vt 0.966797 0.500000
vt 0.966797 0.500000
vt 0.966797 0.500000
vt 0.966797 0.500000
vt 0.966797 0.500000
vt 0.966797 0.500000
vt 0.966797 0.500000
vt 0.966797 0.500000
vt 0.966797 0.500000
vt 0.966797 0.500000
vt 0.966797 0.500000
vt 0.966797 0.500000
vt 0.966797 0.500000
vt 0.966797 0.500000
vt 0.966797 0.500000
vt 0.966797 0.500000
vt 0.966797 0.500000
vt 0.966797 0.500000
vt 0.966797 0.500000
vt 0.966797 0.500000
vt 0.966797 0.500000
vt 0.966797 0.500000
vt 0.958984 0.500000
vt 0.958984 0.500000
vt 0.958984 0.500000
vt 0.970703 0.500000
vt 0.970703 0.500000
vt 0.970703 0.500000
vt 0.958984 0.500000
vt 0.970703 0.500000
vt 0.958984 0.500000
vt 0.958984 0.500000
vt 0.958984 0.500000
vt 0.958984 0.500000
vt 0.970703 0.500000
vt 0.970703 0.500000
vt 0.970703 0.500000
vt 0.970703 0.500000
vt 0.970703 0.500000
vt 0.970703 0.500000
vt 0.958984 0.500000
vt 0.958984 0.500000
vt 0.958984 0.500000
vt 0.958984 0.500000
vt 0.958984 0.500000
vt 0.958984 0.500000
vt 0.958984 0.500000
vt 0.958984 0.500000
vt 0.958984 0.500000
vt 0.958984 0.500000
vt 0.958984 0.500000
vt 0.958984 0.500000
vt 0.958984 0.500000
vt 0.958984 0.500000
vt 0.962891 0.500000
vt 0.962891 0.500000
vt 0.962891 0.500000
vt 0.958984 0.500000
vt 0.958984 0.500000
vt 0.962891 0.500000
vt 0.958984 0.500000
vt 0.962891 0.500000
vt 0.962891 0.500000
vt 0.962891 0.500000
vt 0.958984 0.500000
vt 0.958984 0.500000
vt 0.958984 0.500000
vt 0.958984 0.500000
vt 0.958984 0.500000
vt 0.962891 0.500000
vt 0.962891 0.500000
vt 0.958984 0.500000
vt 0.962891 0.500000
vt 0.962891 0.500000
vt 0.958984 0.500000
vt 0.962891 0.500000
vt 0.958984 0.500000
vt 0.958984 0.500000
vt 0.958984 0.500000
vt 0.958984 0.500000
vt 0.958984 0.500000
vt 0.962891 0.500000
vt 0.958984 0.500000
vt 0.962891 0.500000
vt 0.962891 0.500000
vt 0.962891 0.500000
vt 0.958984 0.500000
vt 0.958984 0.500000
vt 0.958984 0.500000
vt 0.962891 0.500000
vt 0.962891 0.500000
vt 0.962891 0.500000
vt 0.958984 0.500000
vt 0.958984 0.500000
vt 0.962891 0.500000
vt 0.958984 0.500000
vt 0.962891 0.500000
vt 0.958984 0.500000
vt 0.958984 0.500000
vt 0.958984 0.500000
vt 0.962891 0.500000
vt 0.962891 0.500000
vt 0.962891 0.500000
vt 0.962891 0.500000
vt 0.958984 0.500000
vt 0.958984 0.500000
vt 0.962891 0.500000
vt 0.958984 0.500000
vt 0.962891 0.500000
vt 0.958984 0.500000
vt 0.958984 0.500000
vt 0.958984 0.500000
vt 0.962891 0.500000
vt 0.958984 0.500000
vt 0.958984 0.500000
vt 0.962891 0.500000
vt 0.958984 0.500000
vt 0.962891 0.500000
vt 0.962891 0.500000
vt 0.958984 0.500000
vt 0.962891 0.500000
vt 0.962891 0.500000
vt 0.962891 0.500000
vt 0.958984 0.500000
vt 0.962891 0.500000
vt 0.962891 0.500000
vt 0.962891 0.500000
vt 0.958984 0.500000
vt 0.962891 0.500000
vt 0.962891 0.500000
vt 0.962891 0.500000
vt 0.958984 0.500000
vt 0.962891 0.500000
vt 0.958984 0.500000
vt 0.958984 0.500000
vt 0.962891 0.500000
vt 0.958984 0.500000
vt 0.958984 0.500000
vt 0.958984 0.500000
vt 0.962891 0.500000
vt 0.958984 0.500000
vt 0.962891 0.500000
vt 0.958984 0.500000
vt 0.962891 0.500000
vt 0.962891 0.500000
vt 0.958984 0.500000
vt 0.958984 0.500000
vt 0.962891 0.500000
vt 0.970703 0.500000
vt 0.958984 0.500000
vt 0.958984 0.500000
vt 0.958984 0.500000
vt 0.958984 0.500000
vt 0.958984 0.500000
vt 0.958984 0.500000
vt 0.958984 0.500000
vt 0.958984 0.500000
vt 0.970703 0.500000
vt 0.970703 0.500000
vt 0.970703 0.500000
vt 0.970703 0.500000
vt 0.970703 0.500000
vt 0.970703 0.500000
vt 0.970703 0.500000
vt 0.966797 0.500000
vt 0.966797 0.500000
vt 0.966797 0.500000
vt 0.966797 0.500000
vt 0.966797 0.500000
vt 0.966797 0.500000
vt 0.966797 0.500000
vt 0.966797 0.500000
vt 0.966797 0.500000
vt 0.966797 0.500000
vt 0.966797 0.500000
vt 0.966797 0.500000
vt 0.966797 0.500000
vt 0.966797 0.500000
vt 0.966797 0.500000
vt 0.966797 0.500000
vt 0.966797 0.500000
vt 0.966797 0.500000
vt 0.966797 0.500000
vt 0.966797 0.500000
vt 0.966797 0.500000
vt 0.966797 0.500000
vt 0.966797 0.500000
vt 0.966797 0.500000
vt 0.966797 0.500000
vt 0.966797 0.500000
vt 0.966797 0.500000
vt 0.966797 0.500000
vt 0.966797 0.500000
vt 0.966797 0.500000
vt 0.966797 0.500000
vt 0.966797 0.500000
vt 0.966797 0.500000
vt 0.966797 0.500000
vt 0.966797 0.500000
vt 0.966797 0.500000
vn -1.0000 0.0000 0.0000
vn 1.0000 0.0000 0.0000
vn 0.0000 -0.0000 1.0000
vn 0.0000 0.0000 -1.0000
vn 0.0000 -1.0000 -0.0000
vn 0.0000 1.0000 0.0000
usemtl palette.024
s 1
f 1/1/1 2/2/1 3/3/1
f 4/4/1 2/2/1 1/1/1
f 5/5/1 4/6/1 1/7/1
f 6/8/1 4/6/1 5/5/1
f 7/9/1 8/10/1 9/11/1
f 10/12/1 8/10/1 7/9/1
f 11/13/1 12/14/1 13/15/1
f 14/16/1 12/14/1 11/13/1
f 15/17/1 16/18/1 17/19/1
f 18/20/1 16/18/1 15/17/1
f 19/21/1 20/22/1 21/23/1
f 22/24/1 20/22/1 19/21/1
f 23/25/1 24/26/1 25/27/1
f 26/28/1 24/26/1 23/25/1
f 27/29/1 28/30/1 29/31/1
f 30/32/1 28/30/1 27/29/1
f 31/33/1 32/34/1 33/35/1
f 34/36/1 32/34/1 31/33/1
f 35/37/1 36/38/1 37/39/1
f 38/40/1 36/38/1 35/37/1
f 39/41/1 40/42/1 41/43/1
f 42/44/1 40/42/1 39/41/1
f 43/45/2 44/46/2 45/47/2
f 45/47/2 44/46/2 46/48/2
f 47/49/2 48/50/2 49/51/2
f 49/51/2 48/50/2 50/52/2
f 51/53/2 52/54/2 53/55/2
f 53/55/2 52/54/2 54/56/2
f 55/57/2 56/58/2 57/59/2
f 57/59/2 56/58/2 58/60/2
f 59/61/2 60/62/2 61/63/2
f 61/63/2 60/62/2 62/64/2
f 63/65/2 64/66/2 65/67/2
f 65/67/2 64/66/2 66/68/2
f 67/69/2 68/70/2 69/71/2
f 69/71/2 68/70/2 70/72/2
f 71/73/2 72/74/2 73/75/2
f 73/75/2 72/74/2 74/76/2
f 75/77/2 76/78/2 77/79/2
f 77/79/2 76/78/2 78/80/2
f 79/81/2 80/82/2 81/83/2
f 81/83/2 80/82/2 82/84/2
f 81/85/2 82/86/2 83/87/2
f 83/87/2 82/86/2 84/88/2
f 85/89/3 86/90/3 87/91/3
f 88/92/3 89/93/3 86/94/3
f 88/95/3 86/90/3 85/89/3
f 90/96/3 89/93/3 88/92/3
f 91/97/3 92/98/3 93/99/3
f 94/100/3 92/98/3 91/97/3
f 95/101/3 96/102/3 97/103/3
f 98/104/3 96/102/3 95/101/3
f 99/105/3 100/106/3 101/107/3
f 102/108/3 100/106/3 99/105/3
f 103/109/3 104/110/3 105/111/3
f 106/112/3 104/110/3 103/109/3
f 107/113/3 108/114/3 109/115/3
f 110/116/3 108/114/3 107/113/3
f 111/117/3 112/118/3 113/119/3
f 114/120/3 112/118/3 111/117/3
f 115/121/3 116/122/3 117/123/3
f 118/124/3 116/122/3 115/121/3
f 119/125/3 120/126/3 121/127/3
f 122/128/3 120/126/3 119/125/3
f 123/129/3 124/130/3 125/131/3
f 126/132/3 124/130/3 123/129/3
f 127/133/4 128/134/4 129/135/4
f 129/135/4 128/134/4 130/136/4
f 131/137/4 132/138/4 133/139/4
f 133/139/4 132/138/4 134/140/4
f 135/141/4 136/142/4 137/143/4
f 137/143/4 136/142/4 138/144/4
f 139/145/4 140/146/4 141/147/4
f 141/147/4 140/146/4 142/148/4
f 143/149/4 144/150/4 145/151/4
f 145/151/4 144/150/4 146/152/4
f 147/153/4 148/154/4 149/155/4
f 149/155/4 148/154/4 150/156/4
f 151/157/4 152/158/4 153/159/4
f 153/159/4 152/158/4 154/160/4
f 155/161/4 156/162/4 157/163/4
f 157/163/4 156/162/4 158/164/4
f 159/165/4 160/166/4 161/167/4
f 161/167/4 160/166/4 162/168/4
f 163/169/4 164/170/4 165/171/4
f 164/172/4 166/173/4 167/174/4
f 165/171/4 164/170/4 167/175/4
f 167/174/4 166/173/4 168/176/4
f 169/177/5 170/178/5 171/179/5
f 172/180/5 170/178/5 169/177/5
f 173/181/6 174/182/6 175/183/6
f 175/183/6 174/182/6 176/184/6
f 176/184/6 174/182/6 177/185/6
f 177/185/6 174/182/6 178/186/6
f 175/187/6 176/188/6 179/189/6
f 179/189/6 176/188/6 180/190/6
f 180/190/6 176/188/6 181/191/6
f 181/191/6 176/188/6 182/192/6
f 182/192/6 176/188/6 183/193/6
f 183/193/6 176/188/6 184/194/6
f 184/194/6 176/188/6 185/195/6
f 177/196/6 178/197/6 186/198/6
f 175/187/6 179/189/6 187/199/6
f 180/190/6 181/191/6 188/200/6
f 181/201/6 182/202/6 189/203/6
f 182/192/6 183/193/6 189/204/6
f 189/204/6 183/193/6 190/205/6
f 181/201/6 189/203/6 191/206/6
f 190/205/6 183/193/6 192/207/6
f 183/208/6 184/209/6 193/210/6
f 192/207/6 183/193/6 193/211/6
f 175/187/6 187/199/6 194/212/6
f 187/199/6 188/200/6 194/212/6
f 188/200/6 181/191/6 195/213/6
f 194/212/6 188/200/6 195/213/6
f 175/187/6 194/212/6 196/214/6
f 195/213/6 181/191/6 197/215/6
f 192/216/6 193/210/6 198/217/6
f 196/214/6 197/215/6 198/218/6
f 197/215/6 181/191/6 198/218/6
f 191/206/6 192/216/6 198/217/6
f 181/201/6 191/206/6 198/217/6
f 198/217/6 193/210/6 199/219/6
f 193/210/6 184/209/6 200/220/6
f 199/219/6 193/210/6 200/220/6
f 184/194/6 185/195/6 201/221/6
f 200/220/6 184/209/6 201/222/6
f 185/195/6 186/198/6 201/221/6
f 201/221/6 186/198/6 202/223/6
f 186/198/6 178/197/6 203/224/6
f 202/223/6 186/198/6 203/224/6
f 196/214/6 198/218/6 204/225/6
f 198/218/6 199/226/6 204/225/6
f 204/225/6 199/226/6 205/227/6
f 199/219/6 200/220/6 206/228/6
f 205/227/6 199/226/6 206/229/6
f 206/228/6 200/220/6 207/230/6
f 207/230/6 200/220/6 208/231/6
f 208/231/6 200/220/6 209/232/6
f 201/221/6 202/223/6 210/233/6
f 210/233/6 202/223/6 211/234/6
f 203/224/6 178/197/6 212/235/6
f 204/236/6 205/237/6 213/238/6
f 205/227/6 206/229/6 213/239/6
f 206/229/6 207/240/6 213/239/6
f 207/230/6 208/231/6 214/241/6
f 213/239/6 207/240/6 214/242/6
f 214/241/6 208/231/6 215/243/6
f 208/244/6 209/245/6 216/246/6
f 215/243/6 208/231/6 216/247/6
f 209/245/6 210/233/6 216/246/6
f 210/248/6 211/249/6 217/250/6
f 216/246/6 210/233/6 217/251/6
f 175/187/6 196/214/6 218/252/6
f 196/214/6 204/225/6 218/252/6
f 213/238/6 214/241/6 219/253/6
f 218/252/6 204/225/6 219/254/6
f 204/236/6 213/238/6 219/253/6
f 219/253/6 214/241/6 220/255/6
f 215/256/6 216/246/6 221/257/6
f 221/257/6 216/246/6 222/258/6
f 216/247/6 217/250/6 223/259/6
f 222/258/6 216/246/6 223/260/6
f 211/234/6 212/235/6 224/261/6
f 223/259/6 217/250/6 224/262/6
f 217/250/6 211/249/6 224/262/6
f 212/235/6 178/197/6 225/263/6
f 224/261/6 212/235/6 225/263/6
f 219/253/6 220/255/6 226/264/6
f 220/255/6 221/265/6 226/264/6
f 175/187/6 218/252/6 226/266/6
f 218/267/6 219/253/6 226/264/6
f 226/264/6 221/265/6 227/268/6
f 227/268/6 221/265/6 228/269/6
f 221/257/6 222/258/6 229/270/6
f 228/269/6 221/265/6 229/271/6
f 222/272/6 223/259/6 230/273/6
f 229/270/6 222/258/6 230/274/6
f 224/262/6 225/275/6 230/273/6
f 223/259/6 224/262/6 230/273/6
f 230/273/6 225/275/6 231/276/6
f 231/276/6 225/275/6 232/277/6
f 225/263/6 178/197/6 233/278/6
f 232/277/6 225/275/6 233/279/6
f 226/266/6 227/280/6 234/281/6
f 175/187/6 226/266/6 234/281/6
f 227/268/6 228/269/6 235/282/6
f 234/281/6 227/280/6 235/283/6
f 228/284/6 229/270/6 236/285/6
f 235/282/6 228/269/6 236/286/6
f 229/270/6 230/274/6 236/285/6
f 230/274/6 231/287/6 236/285/6
f 231/276/6 232/277/6 237/288/6
f 236/285/6 231/287/6 237/289/6
f 237/288/6 232/277/6 238/290/6
f 238/290/6 232/277/6 239/291/6
f 232/292/6 233/278/6 240/293/6
f 239/291/6 232/277/6 240/294/6
f 173/181/6 175/183/6 241/295/6
f 175/187/6 234/281/6 241/296/6
f 241/296/6 234/281/6 242/297/6
f 235/283/6 236/285/6 243/298/6
f 237/289/6 238/299/6 243/298/6
f 236/285/6 237/289/6 243/298/6
f 243/298/6 238/299/6 244/300/6
f 239/301/6 240/293/6 245/302/6
f 240/293/6 233/278/6 246/303/6
f 178/186/6 174/182/6 246/304/6
f 245/302/6 240/293/6 246/303/6
f 233/278/6 178/197/6 246/303/6
f 244/305/6 245/306/6 247/307/6
f 243/308/6 244/305/6 247/307/6
f 245/306/6 246/304/6 247/307/6
f 241/295/6 242/309/6 247/307/6
f 242/309/6 243/308/6 247/307/6
f 173/181/6 241/295/6 247/307/6
f 246/304/6 174/182/6 248/310/6
f 247/307/6 246/304/6 248/310/6
f 249/311/6 250/312/6 251/313/6
f 251/313/6 250/312/6 252/314/6
f 253/315/6 254/316/6 255/317/6
f 255/317/6 254/316/6 256/318/6
f 257/319/6 258/320/6 259/321/6
f 259/321/6 258/320/6 260/322/6
f 261/323/6 262/324/6 263/325/6
f 263/325/6 262/324/6 264/326/6
f 265/327/6 266/328/6 267/329/6
f 267/329/6 266/328/6 268/330/6
f 269/331/6 270/332/6 271/333/6
f 271/333/6 270/332/6 272/334/6
f 273/335/6 274/336/6 275/337/6
f 275/337/6 274/336/6 276/338/6
f 277/339/6 278/340/6 279/341/6
f 279/341/6 278/340/6 280/342/6
f 281/343/6 282/344/6 283/345/6
f 283/345/6 282/344/6 284/346/6
