# Blender v2.82 (sub 7) OBJ File: ''
# www.blender.org
mtllib LifeObject2.mtl
o ObjObject.008
v -0.450000 0.100000 0.250000
v -0.450000 0.000000 -0.250000
v -0.450000 0.000000 0.250000
v -0.450000 0.100000 -0.250000
v -0.350000 0.100000 0.350000
v -0.350000 0.000000 0.250000
v -0.350000 0.000000 0.350000
v -0.350000 0.100000 0.250000
v -0.350000 0.100000 -0.250000
v -0.350000 0.000000 -0.350000
v -0.350000 0.000000 -0.250000
v -0.350000 0.100000 -0.350000
v -0.350000 0.200000 0.050000
v -0.350000 0.100000 -0.050000
v -0.350000 0.100000 0.050000
v -0.350000 0.200000 -0.050000
v -0.250000 0.100000 0.450000
v -0.250000 0.000000 0.350000
v -0.250000 0.000000 0.450000
v -0.250000 0.100000 0.350000
v -0.250000 0.100000 -0.350000
v -0.250000 0.000000 -0.450000
v -0.250000 0.000000 -0.350000
v -0.250000 0.100000 -0.450000
v -0.250000 0.200000 0.250000
v -0.250000 0.100000 0.050000
v -0.250000 0.100000 0.250000
v -0.250000 0.200000 0.050000
v -0.250000 0.200000 -0.050000
v -0.250000 0.100000 -0.150000
v -0.250000 0.100000 -0.050000
v -0.250000 0.200000 -0.150000
v -0.250000 0.100000 -0.250000
v -0.250000 0.200000 -0.250000
v -0.150000 0.200000 0.350000
v -0.150000 0.100000 0.250000
v -0.150000 0.100000 0.350000
v -0.150000 0.200000 0.250000
v -0.050000 0.200000 -0.150000
v -0.050000 0.100000 -0.250000
v -0.050000 0.100000 -0.150000
v -0.050000 0.200000 -0.250000
v -0.050000 0.100000 -0.350000
v -0.050000 0.200000 -0.350000
v -0.150000 0.100000 -0.150000
v -0.150000 0.100000 -0.250000
v -0.150000 0.200000 -0.150000
v -0.150000 0.200000 -0.250000
v 0.050000 0.100000 0.350000
v 0.050000 0.100000 0.250000
v 0.050000 0.200000 0.350000
v 0.050000 0.200000 0.250000
v 0.150000 0.100000 -0.050000
v 0.150000 0.100000 -0.150000
v 0.150000 0.200000 -0.050000
v 0.150000 0.200000 -0.150000
v 0.150000 0.100000 -0.250000
v 0.150000 0.100000 -0.350000
v 0.150000 0.200000 -0.250000
v 0.150000 0.200000 -0.350000
v 0.250000 0.000000 0.450000
v 0.250000 0.000000 0.350000
v 0.250000 0.100000 0.450000
v 0.250000 0.100000 0.350000
v 0.250000 0.000000 -0.350000
v 0.250000 0.000000 -0.450000
v 0.250000 0.100000 -0.350000
v 0.250000 0.100000 -0.450000
v 0.250000 0.100000 0.250000
v 0.250000 0.100000 0.150000
v 0.250000 0.200000 0.250000
v 0.250000 0.100000 0.050000
v 0.250000 0.200000 0.150000
v 0.250000 0.200000 0.050000
v 0.350000 0.000000 0.350000
v 0.350000 0.000000 0.250000
v 0.350000 0.100000 0.350000
v 0.350000 0.100000 0.250000
v 0.350000 0.000000 -0.250000
v 0.350000 0.000000 -0.350000
v 0.350000 0.100000 -0.250000
v 0.350000 0.100000 -0.350000
v 0.350000 0.100000 0.050000
v 0.350000 0.100000 -0.050000
v 0.350000 0.200000 0.050000
v 0.350000 0.200000 -0.050000
v 0.350000 0.100000 -0.150000
v 0.350000 0.200000 -0.150000
v 0.350000 0.200000 -0.250000
v 0.450000 0.000000 0.250000
v 0.450000 0.000000 -0.250000
v 0.450000 0.100000 0.250000
v 0.450000 0.100000 -0.250000
v 0.250000 0.000000 0.450000
v -0.250000 0.100000 0.450000
v -0.250000 0.000000 0.450000
v 0.250000 0.100000 0.450000
v -0.250000 0.000000 0.350000
v -0.350000 0.100000 0.350000
v -0.350000 0.000000 0.350000
v -0.250000 0.100000 0.350000
v 0.050000 0.100000 0.350000
v -0.150000 0.200000 0.350000
v -0.150000 0.100000 0.350000
v 0.050000 0.200000 0.350000
v 0.350000 0.000000 0.350000
v 0.250000 0.100000 0.350000
v 0.250000 0.000000 0.350000
v 0.350000 0.100000 0.350000
v -0.350000 0.000000 0.250000
v -0.450000 0.100000 0.250000
v -0.450000 0.000000 0.250000
v -0.350000 0.100000 0.250000
v -0.150000 0.100000 0.250000
v -0.250000 0.200000 0.250000
v -0.250000 0.100000 0.250000
v -0.150000 0.200000 0.250000
v 0.250000 0.100000 0.250000
v 0.050000 0.200000 0.250000
v 0.050000 0.100000 0.250000
v 0.250000 0.200000 0.250000
v 0.450000 0.000000 0.250000
v 0.350000 0.100000 0.250000
v 0.350000 0.000000 0.250000
v 0.450000 0.100000 0.250000
v -0.250000 0.100000 0.050000
v -0.350000 0.200000 0.050000
v -0.350000 0.100000 0.050000
v -0.250000 0.200000 0.050000
v 0.350000 0.100000 0.050000
v 0.250000 0.200000 0.050000
v 0.250000 0.100000 0.050000
v 0.350000 0.200000 0.050000
v 0.350000 0.100000 -0.150000
v 0.150000 0.200000 -0.150000
v 0.150000 0.100000 -0.150000
v 0.350000 0.200000 -0.150000
v -0.350000 0.100000 -0.050000
v -0.350000 0.200000 -0.050000
v -0.250000 0.100000 -0.050000
v -0.250000 0.200000 -0.050000
v 0.150000 0.100000 -0.050000
v 0.150000 0.200000 -0.050000
v 0.250000 0.100000 -0.050000
v 0.250000 0.200000 -0.050000
v 0.350000 0.100000 -0.050000
v 0.350000 0.200000 -0.050000
v -0.150000 0.100000 -0.150000
v -0.150000 0.200000 -0.150000
v -0.050000 0.100000 -0.150000
v -0.050000 0.200000 -0.150000
v -0.450000 0.000000 -0.250000
v -0.450000 0.100000 -0.250000
v -0.350000 0.000000 -0.250000
v -0.350000 0.100000 -0.250000
v -0.250000 0.100000 -0.250000
v -0.250000 0.200000 -0.250000
v -0.150000 0.100000 -0.250000
v -0.150000 0.200000 -0.250000
v 0.150000 0.100000 -0.250000
v 0.150000 0.200000 -0.250000
v 0.350000 0.100000 -0.250000
v 0.350000 0.200000 -0.250000
v 0.350000 0.000000 -0.250000
v 0.450000 0.000000 -0.250000
v 0.450000 0.100000 -0.250000
v -0.350000 0.000000 -0.350000
v -0.350000 0.100000 -0.350000
v -0.250000 0.000000 -0.350000
v -0.250000 0.100000 -0.350000
v -0.050000 0.100000 -0.350000
v -0.050000 0.200000 -0.350000
v 0.150000 0.100000 -0.350000
v 0.150000 0.200000 -0.350000
v 0.250000 0.000000 -0.350000
v 0.250000 0.100000 -0.350000
v 0.350000 0.000000 -0.350000
v 0.350000 0.100000 -0.350000
v -0.250000 0.000000 -0.450000
v -0.250000 0.100000 -0.450000
v 0.250000 0.000000 -0.450000
v 0.250000 0.100000 -0.450000
v -0.250000 0.000000 0.350000
v 0.250000 0.000000 0.450000
v -0.250000 0.000000 0.450000
v 0.250000 0.000000 0.350000
v -0.350000 0.000000 0.250000
v -0.350000 0.000000 0.350000
v 0.350000 0.000000 0.350000
v 0.350000 0.000000 0.250000
v -0.450000 0.000000 -0.250000
v -0.450000 0.000000 0.250000
v 0.450000 0.000000 0.250000
v -0.350000 0.000000 -0.250000
v 0.350000 0.000000 -0.250000
v 0.450000 0.000000 -0.250000
v -0.350000 0.000000 -0.350000
v -0.250000 0.000000 -0.350000
v 0.250000 0.000000 -0.350000
v 0.350000 0.000000 -0.350000
v -0.250000 0.000000 -0.450000
v 0.250000 0.000000 -0.450000
v -0.250000 0.100000 0.450000
v 0.250000 0.100000 0.450000
v -0.250000 0.100000 0.350000
v -0.150000 0.100000 0.350000
v 0.050000 0.100000 0.350000
v 0.250000 0.100000 0.350000
v -0.350000 0.100000 0.350000
v -0.350000 0.100000 0.250000
v -0.250000 0.100000 0.250000
v -0.150000 0.100000 0.250000
v 0.050000 0.100000 0.250000
v 0.350000 0.100000 0.350000
v 0.250000 0.100000 0.250000
v 0.350000 0.100000 0.250000
v 0.450000 0.100000 0.250000
v 0.250000 0.100000 0.150000
v -0.350000 0.100000 0.050000
v -0.450000 0.100000 0.250000
v -0.250000 0.100000 0.050000
v 0.250000 0.100000 0.050000
v 0.350000 0.100000 0.050000
v -0.350000 0.100000 -0.050000
v 0.350000 0.100000 -0.050000
v -0.250000 0.100000 -0.050000
v -0.250000 0.100000 -0.150000
v 0.150000 0.100000 -0.050000
v 0.250000 0.100000 -0.050000
v 0.150000 0.100000 -0.150000
v 0.350000 0.100000 -0.150000
v -0.450000 0.100000 -0.250000
v -0.350000 0.100000 -0.250000
v -0.250000 0.100000 -0.250000
v -0.150000 0.100000 -0.150000
v -0.050000 0.100000 -0.150000
v -0.150000 0.100000 -0.250000
v -0.050000 0.100000 -0.250000
v 0.350000 0.100000 -0.250000
v 0.450000 0.100000 -0.250000
v -0.350000 0.100000 -0.350000
v -0.250000 0.100000 -0.350000
v -0.050000 0.100000 -0.350000
v 0.150000 0.100000 -0.250000
v 0.150000 0.100000 -0.350000
v 0.250000 0.100000 -0.350000
v 0.350000 0.100000 -0.350000
v -0.250000 0.100000 -0.450000
v 0.250000 0.100000 -0.450000
v -0.150000 0.200000 0.350000
v 0.050000 0.200000 0.350000
v -0.150000 0.200000 0.250000
v -0.050000 0.200000 0.250000
v 0.050000 0.200000 0.250000
v -0.250000 0.200000 0.250000
v -0.150000 0.200000 0.150000
v -0.050000 0.200000 0.150000
v 0.250000 0.200000 0.250000
v 0.050000 0.200000 0.150000
v 0.250000 0.200000 0.150000
v -0.250000 0.200000 0.050000
v -0.150000 0.200000 0.050000
v -0.050000 0.200000 0.050000
v 0.050000 0.200000 0.050000
v 0.150000 0.200000 0.050000
v 0.250000 0.200000 0.050000
v -0.350000 0.200000 0.050000
v -0.350000 0.200000 -0.050000
v -0.250000 0.200000 -0.050000
v -0.150000 0.200000 -0.050000
v -0.050000 0.200000 -0.050000
v 0.050000 0.200000 -0.050000
v 0.150000 0.200000 -0.050000
v 0.350000 0.200000 0.050000
v 0.250000 0.200000 -0.050000
v 0.350000 0.200000 -0.050000
v -0.250000 0.200000 -0.150000
v -0.150000 0.200000 -0.150000
v -0.050000 0.200000 -0.150000
v 0.050000 0.200000 -0.150000
v 0.150000 0.200000 -0.150000
v -0.250000 0.200000 -0.250000
v -0.150000 0.200000 -0.250000
v -0.050000 0.200000 -0.250000
v 0.050000 0.200000 -0.250000
v 0.350000 0.200000 -0.150000
v 0.150000 0.200000 -0.250000
v 0.350000 0.200000 -0.250000
v -0.050000 0.200000 -0.350000
v 0.150000 0.200000 -0.350000
vt 0.951172 0.500000
vt 0.951172 0.500000
vt 0.951172 0.500000
vt 0.951172 0.500000
vt 0.951172 0.500000
vt 0.951172 0.500000
vt 0.951172 0.500000
vt 0.951172 0.500000
vt 0.951172 0.500000
vt 0.951172 0.500000
vt 0.951172 0.500000
vt 0.951172 0.500000
vt 0.892578 0.500000
vt 0.892578 0.500000
vt 0.892578 0.500000
vt 0.892578 0.500000
vt 0.951172 0.500000
vt 0.951172 0.500000
vt 0.951172 0.500000
vt 0.951172 0.500000
vt 0.951172 0.500000
vt 0.951172 0.500000
vt 0.951172 0.500000
vt 0.951172 0.500000
vt 0.892578 0.500000
vt 0.892578 0.500000
vt 0.892578 0.500000
vt 0.892578 0.500000
vt 0.884766 0.500000
vt 0.884766 0.500000
vt 0.884766 0.500000
vt 0.892578 0.500000
vt 0.892578 0.500000
vt 0.892578 0.500000
vt 0.884766 0.500000
vt 0.892578 0.500000
vt 0.892578 0.500000
vt 0.892578 0.500000
vt 0.892578 0.500000
vt 0.892578 0.500000
vt 0.748047 0.500000
vt 0.748047 0.500000
vt 0.748047 0.500000
vt 0.892578 0.500000
vt 0.892578 0.500000
vt 0.892578 0.500000
vt 0.748047 0.500000
vt 0.892578 0.500000
vt 0.892578 0.500000
vt 0.892578 0.500000
vt 0.892578 0.500000
vt 0.892578 0.500000
vt 0.892578 0.500000
vt 0.892578 0.500000
vt 0.892578 0.500000
vt 0.892578 0.500000
vt 0.708984 0.500000
vt 0.708984 0.500000
vt 0.708984 0.500000
vt 0.708984 0.500000
vt 0.892578 0.500000
vt 0.892578 0.500000
vt 0.892578 0.500000
vt 0.892578 0.500000
vt 0.951172 0.500000
vt 0.951172 0.500000
vt 0.951172 0.500000
vt 0.951172 0.500000
vt 0.951172 0.500000
vt 0.951172 0.500000
vt 0.951172 0.500000
vt 0.951172 0.500000
vt 0.892578 0.500000
vt 0.892578 0.500000
vt 0.892578 0.500000
vt 0.888672 0.500000
vt 0.888672 0.500000
vt 0.888672 0.500000
vt 0.892578 0.500000
vt 0.888672 0.500000
vt 0.951172 0.500000
vt 0.951172 0.500000
vt 0.951172 0.500000
vt 0.951172 0.500000
vt 0.951172 0.500000
vt 0.951172 0.500000
vt 0.951172 0.500000
vt 0.951172 0.500000
vt 0.892578 0.500000
vt 0.892578 0.500000
vt 0.892578 0.500000
vt 0.892578 0.500000
vt 0.892578 0.500000
vt 0.892578 0.500000
vt 0.892578 0.500000
vt 0.892578 0.500000
vt 0.951172 0.500000
vt 0.951172 0.500000
vt 0.951172 0.500000
vt 0.951172 0.500000
vt 0.951172 0.500000
vt 0.951172 0.500000
vt 0.951172 0.500000
vt 0.951172 0.500000
vt 0.951172 0.500000
vt 0.951172 0.500000
vt 0.951172 0.500000
vt 0.951172 0.500000
vt 0.892578 0.500000
vt 0.892578 0.500000
vt 0.892578 0.500000
vt 0.892578 0.500000
vt 0.951172 0.500000
vt 0.951172 0.500000
vt 0.951172 0.500000
vt 0.951172 0.500000
vt 0.951172 0.500000
vt 0.951172 0.500000
vt 0.951172 0.500000
vt 0.951172 0.500000
vt 0.892578 0.500000
vt 0.892578 0.500000
vt 0.892578 0.500000
vt 0.892578 0.500000
vt 0.892578 0.500000
vt 0.892578 0.500000
vt 0.892578 0.500000
vt 0.892578 0.500000
vt 0.951172 0.500000
vt 0.951172 0.500000
vt 0.951172 0.500000
vt 0.951172 0.500000
vt 0.892578 0.500000
vt 0.892578 0.500000
vt 0.892578 0.500000
vt 0.892578 0.500000
vt 0.892578 0.500000
vt 0.892578 0.500000
vt 0.892578 0.500000
vt 0.892578 0.500000
vt 0.892578 0.500000
vt 0.892578 0.500000
vt 0.892578 0.500000
vt 0.892578 0.500000
vt 0.892578 0.500000
vt 0.892578 0.500000
vt 0.892578 0.500000
vt 0.892578 0.500000
vt 0.888672 0.500000
vt 0.888672 0.500000
vt 0.888672 0.500000
vt 0.888672 0.500000
vt 0.892578 0.500000
vt 0.892578 0.500000
vt 0.892578 0.500000
vt 0.892578 0.500000
vt 0.591797 0.500000
vt 0.591797 0.500000
vt 0.591797 0.500000
vt 0.591797 0.500000
vt 0.951172 0.500000
vt 0.951172 0.500000
vt 0.951172 0.500000
vt 0.951172 0.500000
vt 0.892578 0.500000
vt 0.892578 0.500000
vt 0.892578 0.500000
vt 0.892578 0.500000
vt 0.892578 0.500000
vt 0.892578 0.500000
vt 0.892578 0.500000
vt 0.892578 0.500000
vt 0.951172 0.500000
vt 0.951172 0.500000
vt 0.951172 0.500000
vt 0.951172 0.500000
vt 0.951172 0.500000
vt 0.951172 0.500000
vt 0.951172 0.500000
vt 0.951172 0.500000
vt 0.892578 0.500000
vt 0.892578 0.500000
vt 0.892578 0.500000
vt 0.892578 0.500000
vt 0.951172 0.500000
vt 0.951172 0.500000
vt 0.951172 0.500000
vt 0.951172 0.500000
vt 0.951172 0.500000
vt 0.951172 0.500000
vt 0.951172 0.500000
vt 0.951172 0.500000
vt 0.951172 0.500000
vt 0.951172 0.500000
vt 0.951172 0.500000
vt 0.951172 0.500000
vt 0.951172 0.500000
vt 0.951172 0.500000
vt 0.951172 0.500000
vt 0.951172 0.500000
vt 0.951172 0.500000
vt 0.951172 0.500000
vt 0.951172 0.500000
vt 0.951172 0.500000
vt 0.951172 0.500000
vt 0.951172 0.500000
vt 0.951172 0.500000
vt 0.951172 0.500000
vt 0.951172 0.500000
vt 0.951172 0.500000
vt 0.951172 0.500000
vt 0.951172 0.500000
vt 0.951172 0.500000
vt 0.951172 0.500000
vt 0.951172 0.500000
vt 0.951172 0.500000
vt 0.951172 0.500000
vt 0.951172 0.500000
vt 0.951172 0.500000
vt 0.951172 0.500000
vt 0.951172 0.500000
vt 0.951172 0.500000
vt 0.951172 0.500000
vt 0.951172 0.500000
vt 0.951172 0.500000
vt 0.951172 0.500000
vt 0.951172 0.500000
vt 0.951172 0.500000
vt 0.951172 0.500000
vt 0.951172 0.500000
vt 0.951172 0.500000
vt 0.951172 0.500000
vt 0.951172 0.500000
vt 0.951172 0.500000
vt 0.951172 0.500000
vt 0.951172 0.500000
vt 0.951172 0.500000
vt 0.951172 0.500000
vt 0.951172 0.500000
vt 0.951172 0.500000
vt 0.951172 0.500000
vt 0.951172 0.500000
vt 0.951172 0.500000
vt 0.951172 0.500000
vt 0.951172 0.500000
vt 0.951172 0.500000
vt 0.951172 0.500000
vt 0.951172 0.500000
vt 0.951172 0.500000
vt 0.951172 0.500000
vt 0.951172 0.500000
vt 0.951172 0.500000
vt 0.951172 0.500000
vt 0.951172 0.500000
vt 0.951172 0.500000
vt 0.951172 0.500000
vt 0.951172 0.500000
vt 0.951172 0.500000
vt 0.951172 0.500000
vt 0.892578 0.500000
vt 0.892578 0.500000
vt 0.892578 0.500000
vt 0.892578 0.500000
vt 0.892578 0.500000
vt 0.892578 0.500000
vt 0.892578 0.500000
vt 0.888672 0.500000
vt 0.888672 0.500000
vt 0.888672 0.500000
vt 0.806641 0.500000
vt 0.806641 0.500000
vt 0.806641 0.500000
vt 0.888672 0.500000
vt 0.892578 0.500000
vt 0.892578 0.500000
vt 0.806641 0.500000
vt 0.892578 0.500000
vt 0.892578 0.500000
vt 0.798828 0.500000
vt 0.798828 0.500000
vt 0.798828 0.500000
vt 0.892578 0.500000
vt 0.802734 0.500000
vt 0.802734 0.500000
vt 0.802734 0.500000
vt 0.798828 0.500000
vt 0.888672 0.500000
vt 0.888672 0.500000
vt 0.888672 0.500000
vt 0.802734 0.500000
vt 0.888672 0.500000
vt 0.888672 0.500000
vt 0.892578 0.500000
vt 0.892578 0.500000
vt 0.888672 0.500000
vt 0.888672 0.500000
vt 0.888672 0.500000
vt 0.892578 0.500000
vt 0.884766 0.500000
vt 0.884766 0.500000
vt 0.884766 0.500000
vt 0.888672 0.500000
vt 0.888672 0.500000
vt 0.888672 0.500000
vt 0.884766 0.500000
vt 0.748047 0.500000
vt 0.748047 0.500000
vt 0.748047 0.500000
vt 0.888672 0.500000
vt 0.888672 0.500000
vt 0.748047 0.500000
vt 0.892578 0.500000
vt 0.892578 0.500000
vt 0.892578 0.500000
vt 0.888672 0.500000
vt 0.892578 0.500000
vt 0.884766 0.500000
vt 0.884766 0.500000
vt 0.591797 0.500000
vt 0.591797 0.500000
vt 0.591797 0.500000
vt 0.884766 0.500000
vt 0.748047 0.500000
vt 0.748047 0.500000
vt 0.591797 0.500000
vt 0.708984 0.500000
vt 0.708984 0.500000
vt 0.708984 0.500000
vt 0.748047 0.500000
vt 0.708984 0.500000
vt 0.892578 0.500000
vt 0.892578 0.500000
vt 0.892578 0.500000
vt 0.892578 0.500000
vt 0.748047 0.500000
vt 0.587891 0.500000
vt 0.587891 0.500000
vt 0.587891 0.500000
vt 0.748047 0.500000
vt 0.892578 0.500000
vt 0.892578 0.500000
vt 0.892578 0.500000
vt 0.587891 0.500000
vt 0.892578 0.500000
vt 0.892578 0.500000
vt 0.892578 0.500000
vt 0.892578 0.500000
vt 0.892578 0.500000
vn -1.0000 0.0000 0.0000
vn 1.0000 0.0000 0.0000
vn 0.0000 0.0000 1.0000
vn 0.0000 0.0000 -1.0000
vn 0.0000 -1.0000 0.0000
vn 0.0000 1.0000 0.0000
usemtl palette.008
s 1
f 1/1/1 2/2/1 3/3/1
f 4/4/1 2/2/1 1/1/1
f 5/5/1 6/6/1 7/7/1
f 8/8/1 6/6/1 5/5/1
f 9/9/1 10/10/1 11/11/1
f 12/12/1 10/10/1 9/9/1
f 13/13/1 14/14/1 15/15/1
f 16/16/1 14/14/1 13/13/1
f 17/17/1 18/18/1 19/19/1
f 20/20/1 18/18/1 17/17/1
f 21/21/1 22/22/1 23/23/1
f 24/24/1 22/22/1 21/21/1
f 25/25/1 26/26/1 27/27/1
f 28/28/1 26/26/1 25/25/1
f 29/29/1 30/30/1 31/31/1
f 32/32/1 33/33/1 30/34/1
f 32/35/1 30/30/1 29/29/1
f 34/36/1 33/33/1 32/32/1
f 35/37/1 36/38/1 37/39/1
f 38/40/1 36/38/1 35/37/1
f 39/41/1 40/42/1 41/43/1
f 42/44/1 43/45/1 40/46/1
f 42/47/1 40/42/1 39/41/1
f 44/48/1 43/45/1 42/44/1
f 45/49/2 46/50/2 47/51/2
f 47/51/2 46/50/2 48/52/2
f 49/53/2 50/54/2 51/55/2
f 51/55/2 50/54/2 52/56/2
f 53/57/2 54/58/2 55/59/2
f 55/59/2 54/58/2 56/60/2
f 57/61/2 58/62/2 59/63/2
f 59/63/2 58/62/2 60/64/2
f 61/65/2 62/66/2 63/67/2
f 63/67/2 62/66/2 64/68/2
f 65/69/2 66/70/2 67/71/2
f 67/71/2 66/70/2 68/72/2
f 69/73/2 70/74/2 71/75/2
f 70/76/2 72/77/2 73/78/2
f 71/75/2 70/74/2 73/79/2
f 73/78/2 72/77/2 74/80/2
f 75/81/2 76/82/2 77/83/2
f 77/83/2 76/82/2 78/84/2
f 79/85/2 80/86/2 81/87/2
f 81/87/2 80/86/2 82/88/2
f 83/89/2 84/90/2 85/91/2
f 85/91/2 84/90/2 86/92/2
f 87/93/2 81/94/2 88/95/2
f 88/95/2 81/94/2 89/96/2
f 90/97/2 91/98/2 92/99/2
f 92/99/2 91/98/2 93/100/2
f 94/101/3 95/102/3 96/103/3
f 97/104/3 95/102/3 94/101/3
f 98/105/3 99/106/3 100/107/3
f 101/108/3 99/106/3 98/105/3
f 102/109/3 103/110/3 104/111/3
f 105/112/3 103/110/3 102/109/3
f 106/113/3 107/114/3 108/115/3
f 109/116/3 107/114/3 106/113/3
f 110/117/3 111/118/3 112/119/3
f 113/120/3 111/118/3 110/117/3
f 114/121/3 115/122/3 116/123/3
f 117/124/3 115/122/3 114/121/3
f 118/125/3 119/126/3 120/127/3
f 121/128/3 119/126/3 118/125/3
f 122/129/3 123/130/3 124/131/3
f 125/132/3 123/130/3 122/129/3
f 126/133/3 127/134/3 128/135/3
f 129/136/3 127/134/3 126/133/3
f 130/137/3 131/138/3 132/139/3
f 133/140/3 131/138/3 130/137/3
f 134/141/3 135/142/3 136/143/3
f 137/144/3 135/142/3 134/141/3
f 138/145/4 139/146/4 140/147/4
f 140/147/4 139/146/4 141/148/4
f 142/149/4 143/150/4 144/151/4
f 144/151/4 143/150/4 145/152/4
f 144/153/4 145/154/4 146/155/4
f 146/155/4 145/154/4 147/156/4
f 148/157/4 149/158/4 150/159/4
f 150/159/4 149/158/4 151/160/4
f 152/161/4 153/162/4 154/163/4
f 154/163/4 153/162/4 155/164/4
f 156/165/4 157/166/4 158/167/4
f 158/167/4 157/166/4 159/168/4
f 160/169/4 161/170/4 162/171/4
f 162/171/4 161/170/4 163/172/4
f 164/173/4 162/174/4 165/175/4
f 165/175/4 162/174/4 166/176/4
f 167/177/4 168/178/4 169/179/4
f 169/179/4 168/178/4 170/180/4
f 171/181/4 172/182/4 173/183/4
f 173/183/4 172/182/4 174/184/4
f 175/185/4 176/186/4 177/187/4
f 177/187/4 176/186/4 178/188/4
f 179/189/4 180/190/4 181/191/4
f 181/191/4 180/190/4 182/192/4
f 183/193/5 184/194/5 185/195/5
f 186/196/5 184/194/5 183/193/5
f 187/197/5 183/193/5 188/198/5
f 187/197/5 189/199/5 186/196/5
f 187/197/5 186/196/5 183/193/5
f 190/200/5 189/199/5 187/197/5
f 191/201/5 187/197/5 192/202/5
f 191/201/5 193/203/5 190/200/5
f 191/201/5 190/200/5 187/197/5
f 194/204/5 193/203/5 191/201/5
f 195/205/5 193/203/5 194/204/5
f 196/206/5 193/203/5 195/205/5
f 197/207/5 195/205/5 194/204/5
f 198/208/5 195/205/5 197/207/5
f 199/209/5 195/205/5 198/208/5
f 200/210/5 195/205/5 199/209/5
f 201/211/5 199/209/5 198/208/5
f 202/212/5 199/209/5 201/211/5
f 203/213/6 204/214/6 205/215/6
f 205/215/6 204/214/6 206/216/6
f 206/216/6 204/214/6 207/217/6
f 207/217/6 204/214/6 208/218/6
f 209/219/6 205/215/6 210/220/6
f 205/215/6 206/216/6 210/220/6
f 210/220/6 206/216/6 211/221/6
f 211/221/6 206/216/6 212/222/6
f 207/217/6 208/218/6 213/223/6
f 208/218/6 214/224/6 213/223/6
f 213/223/6 214/224/6 215/225/6
f 215/225/6 214/224/6 216/226/6
f 216/226/6 217/227/6 218/228/6
f 215/225/6 216/226/6 218/228/6
f 210/220/6 211/221/6 219/229/6
f 220/230/6 210/220/6 219/229/6
f 219/229/6 211/221/6 221/231/6
f 218/228/6 217/227/6 222/232/6
f 222/232/6 217/227/6 223/233/6
f 220/230/6 219/229/6 224/234/6
f 223/233/6 217/227/6 225/235/6
f 224/234/6 226/236/6 227/237/6
f 228/238/6 229/239/6 230/240/6
f 229/239/6 225/235/6 230/240/6
f 225/235/6 217/227/6 231/241/6
f 230/240/6 225/235/6 231/241/6
f 220/230/6 224/234/6 232/242/6
f 224/234/6 227/237/6 232/242/6
f 232/242/6 227/237/6 233/243/6
f 233/243/6 227/237/6 234/244/6
f 235/245/6 236/246/6 237/247/6
f 237/247/6 236/246/6 238/248/6
f 231/241/6 217/227/6 239/249/6
f 239/249/6 217/227/6 240/250/6
f 233/243/6 234/244/6 241/251/6
f 237/247/6 238/248/6 241/251/6
f 234/244/6 237/247/6 241/251/6
f 241/251/6 238/248/6 242/252/6
f 242/252/6 238/248/6 243/253/6
f 244/254/6 239/249/6 245/255/6
f 245/255/6 239/249/6 246/256/6
f 246/256/6 239/249/6 247/257/6
f 242/252/6 243/253/6 248/258/6
f 245/255/6 246/256/6 248/258/6
f 243/253/6 245/255/6 248/258/6
f 248/258/6 246/256/6 249/259/6
f 250/260/6 251/261/6 252/262/6
f 252/262/6 251/261/6 253/263/6
f 253/263/6 251/261/6 254/264/6
f 255/265/6 252/262/6 256/266/6
f 252/267/6 253/268/6 256/269/6
f 253/270/6 254/271/6 257/272/6
f 256/269/6 253/268/6 257/273/6
f 254/264/6 258/274/6 259/275/6
f 257/272/6 254/271/6 259/276/6
f 259/275/6 258/274/6 260/277/6
f 255/265/6 256/266/6 261/278/6
f 256/279/6 257/280/6 262/281/6
f 261/278/6 256/266/6 262/282/6
f 257/283/6 259/284/6 263/285/6
f 262/281/6 257/280/6 263/286/6
f 259/287/6 260/288/6 264/289/6
f 263/285/6 259/284/6 264/290/6
f 264/289/6 260/288/6 265/291/6
f 265/291/6 260/288/6 266/292/6
f 267/293/6 261/278/6 268/294/6
f 261/295/6 262/296/6 269/297/6
f 268/294/6 261/278/6 269/298/6
f 262/299/6 263/300/6 270/301/6
f 269/297/6 262/296/6 270/302/6
f 263/303/6 264/289/6 271/304/6
f 270/301/6 263/300/6 271/305/6
f 264/306/6 265/307/6 272/308/6
f 271/304/6 264/289/6 272/309/6
f 265/291/6 266/292/6 273/310/6
f 272/308/6 265/307/6 273/311/6
f 266/312/6 274/313/6 275/314/6
f 273/310/6 266/292/6 275/315/6
f 275/314/6 274/313/6 276/316/6
f 269/317/6 270/301/6 277/318/6
f 270/319/6 271/320/6 278/321/6
f 277/318/6 270/301/6 278/322/6
f 271/323/6 272/308/6 279/324/6
f 278/321/6 271/320/6 279/325/6
f 272/326/6 273/327/6 280/328/6
f 279/324/6 272/308/6 280/329/6
f 280/328/6 273/327/6 281/330/6
f 277/331/6 278/332/6 282/333/6
f 282/333/6 278/332/6 283/334/6
f 279/324/6 280/329/6 284/335/6
f 280/336/6 281/337/6 285/338/6
f 284/335/6 280/329/6 285/339/6
f 281/340/6 286/341/6 287/342/6
f 285/338/6 281/337/6 287/343/6
f 287/342/6 286/341/6 288/344/6
f 284/345/6 285/346/6 289/347/6
f 285/346/6 287/342/6 289/347/6
f 289/347/6 287/342/6 290/348/6
