# MagicaVoxel @ Ephtracy

# group
o 

# material
mtllib YellowCarHard.mtl
usemtl palette

# normals
vn -1 0 0
vn 1 0 0
vn 0 0 1
vn 0 0 -1
vn 0 -1 0
vn 0 1 0

# texcoords
vt 0.00585938 0.5
vt 0.0136719 0.5
vt 0.0410156 0.5
vt 0.0449219 0.5
vt 0.0683594 0.5
vt 0.216797 0.5
vt 0.224609 0.5
vt 0.705078 0.5
vt 0.708984 0.5
vt 0.931641 0.5
vt 0.962891 0.5
vt 0.974609 0.5
vt 0.978516 0.5
vt 0.982422 0.5
vt 0.986328 0.5
vt 0.990234 0.5
vt 0.994141 0.5

# verts
v 0 2.1 -0.1
v 0 2.1 -0.2
v 0 2.1 -0.3
v 0 2.1 -0.6
v 0 2.1 -0.7
v 0 2.1 -0.8
v 0 2.2 -0.1
v 0 2.2 -0.2
v 0 2.2 -0.3
v 0 2.2 -0.6
v 0 2.2 -0.7
v 0 2.2 -0.8
v 0 2.3 -0.2
v 0 2.3 -0.7
v 0.1 2 -0.1
v 0.1 2 -0.3
v 0.1 2 -0.6
v 0.1 2 -0.8
v 0.1 2.1 0
v 0.1 2.1 -0.1
v 0.1 2.1 -0.2
v 0.1 2.1 -0.3
v 0.1 2.1 -0.6
v 0.1 2.1 -0.7
v 0.1 2.1 -0.8
v 0.1 2.1 -0.9
v 0.1 2.2 0
v 0.1 2.2 -0.1
v 0.1 2.2 -0.2
v 0.1 2.2 -0.3
v 0.1 2.2 -0.6
v 0.1 2.2 -0.7
v 0.1 2.2 -0.8
v 0.1 2.2 -0.9
v 0.1 2.3 -0.1
v 0.1 2.3 -0.2
v 0.1 2.3 -0.3
v 0.1 2.3 -0.4
v 0.1 2.3 -0.6
v 0.1 2.3 -0.7
v 0.1 2.3 -0.8
v 0.1 2.4 -0.3
v 0.1 2.4 -0.4
v 0.1 2.4 -0.6
v 0.1 2.4 -0.7
v 0.1 2.7 -0.4
v 0.1 2.7 -0.5
v 0.1 2.8 -0.4
v 0.1 2.8 -0.5
v 0.2 2.2 -0.8
v 0.2 2.2 -0.9
v 0.2 2.3 -0.7
v 0.2 2.3 -0.8
v 0.2 2.3 -0.9
v 0.2 2.4 -0.4
v 0.2 2.4 -0.5
v 0.2 2.4 -0.6
v 0.2 2.4 -0.7
v 0.2 2.4 -0.8
v 0.2 2.5 -0.4
v 0.2 2.5 -0.5
v 0.2 2.5 -0.7
v 0.2 2.6 -0.4
v 0.2 2.6 -0.5
v 0.2 2.7 -0.4
v 0.2 2.7 -0.5
v 0.2 2.7 -0.6
v 0.2 2.8 -0.4
v 0.2 2.8 -0.5
v 0.2 2.8 -0.6
v 0.2 2.9 -0.4
v 0.2 2.9 -0.5
v 0.3 2.3 -0.8
v 0.3 2.3 -0.9
v 0.3 2.4 -0.7
v 0.3 2.4 -0.8
v 0.3 2.4 -0.9
v 0.3 2.5 -0.6
v 0.3 2.5 -0.7
v 0.3 2.6 -0.5
v 0.3 2.6 -0.6
v 0.3 2.6 -0.7
v 0.3 2.6 -0.8
v 0.3 2.7 -0.3
v 0.3 2.7 -0.4
v 0.3 2.7 -0.5
v 0.3 2.7 -0.6
v 0.3 2.7 -0.7
v 0.3 2.7 -0.8
v 0.3 2.8 -0.3
v 0.3 2.8 -0.4
v 0.3 2.8 -0.5
v 0.3 2.8 -0.6
v 0.3 2.8 -0.7
v 0.3 2.9 -0.5
v 0.3 2.9 -0.6
v 0.5 2 -0.1
v 0.5 2 -0.3
v 0.5 2 -0.6
v 0.5 2 -0.8
v 0.5 2.1 -0.1
v 0.5 2.1 -0.2
v 0.5 2.1 -0.3
v 0.5 2.1 -0.6
v 0.5 2.1 -0.7
v 0.5 2.1 -0.8
v 0.2 2 -0.1
v 0.2 2 -0.3
v 0.2 2 -0.6
v 0.2 2 -0.8
v 0.2 2.1 -0.1
v 0.2 2.1 -0.2
v 0.2 2.1 -0.3
v 0.2 2.1 -0.6
v 0.2 2.1 -0.7
v 0.2 2.1 -0.8
v 0.4 2.3 -0.8
v 0.4 2.3 -0.9
v 0.4 2.4 -0.7
v 0.4 2.4 -0.8
v 0.4 2.4 -0.9
v 0.4 2.5 -0.6
v 0.4 2.5 -0.7
v 0.4 2.6 -0.5
v 0.4 2.6 -0.6
v 0.4 2.6 -0.7
v 0.4 2.6 -0.8
v 0.4 2.7 -0.3
v 0.4 2.7 -0.4
v 0.4 2.7 -0.5
v 0.4 2.7 -0.6
v 0.4 2.7 -0.7
v 0.4 2.7 -0.8
v 0.4 2.8 -0.3
v 0.4 2.8 -0.4
v 0.4 2.8 -0.5
v 0.4 2.8 -0.6
v 0.4 2.8 -0.7
v 0.4 2.9 -0.5
v 0.4 2.9 -0.6
v 0.5 2.2 -0.8
v 0.5 2.2 -0.9
v 0.5 2.3 -0.7
v 0.5 2.3 -0.8
v 0.5 2.3 -0.9
v 0.5 2.4 -0.4
v 0.5 2.4 -0.5
v 0.5 2.4 -0.6
v 0.5 2.4 -0.7
v 0.5 2.4 -0.8
v 0.5 2.5 -0.4
v 0.5 2.5 -0.5
v 0.5 2.5 -0.7
v 0.5 2.6 -0.4
v 0.5 2.6 -0.5
v 0.5 2.7 -0.4
v 0.5 2.7 -0.5
v 0.5 2.7 -0.6
v 0.5 2.8 -0.4
v 0.5 2.8 -0.5
v 0.5 2.8 -0.6
v 0.5 2.9 -0.4
v 0.5 2.9 -0.5
v 0.6 2 -0.1
v 0.6 2 -0.3
v 0.6 2 -0.6
v 0.6 2 -0.8
v 0.6 2.1 0
v 0.6 2.1 -0.1
v 0.6 2.1 -0.2
v 0.6 2.1 -0.3
v 0.6 2.1 -0.6
v 0.6 2.1 -0.7
v 0.6 2.1 -0.8
v 0.6 2.1 -0.9
v 0.6 2.2 0
v 0.6 2.2 -0.1
v 0.6 2.2 -0.2
v 0.6 2.2 -0.3
v 0.6 2.2 -0.6
v 0.6 2.2 -0.7
v 0.6 2.2 -0.8
v 0.6 2.2 -0.9
v 0.6 2.3 -0.1
v 0.6 2.3 -0.2
v 0.6 2.3 -0.3
v 0.6 2.3 -0.4
v 0.6 2.3 -0.6
v 0.6 2.3 -0.7
v 0.6 2.3 -0.8
v 0.6 2.4 -0.3
v 0.6 2.4 -0.4
v 0.6 2.4 -0.6
v 0.6 2.4 -0.7
v 0.6 2.7 -0.4
v 0.6 2.7 -0.5
v 0.6 2.8 -0.4
v 0.6 2.8 -0.5
v 0.7 2.1 -0.1
v 0.7 2.1 -0.2
v 0.7 2.1 -0.3
v 0.7 2.1 -0.6
v 0.7 2.1 -0.7
v 0.7 2.1 -0.8
v 0.7 2.2 -0.1
v 0.7 2.2 -0.2
v 0.7 2.2 -0.3
v 0.7 2.2 -0.6
v 0.7 2.2 -0.7
v 0.7 2.2 -0.8
v 0.7 2.3 -0.2
v 0.7 2.3 -0.7
v 0.1 2.1 0
v 0.1 2.2 0
v 0.6 2.1 0
v 0.6 2.2 0
v 0 2.1 -0.1
v 0 2.2 -0.1
v 0.1 2 -0.1
v 0.1 2.1 -0.1
v 0.1 2.2 -0.1
v 0.1 2.3 -0.1
v 0.2 2 -0.1
v 0.2 2.1 -0.1
v 0.2 2.2 -0.1
v 0.2 2.3 -0.1
v 0.3 2.2 -0.1
v 0.3 2.3 -0.1
v 0.4 2.2 -0.1
v 0.4 2.3 -0.1
v 0.5 2 -0.1
v 0.5 2.1 -0.1
v 0.5 2.2 -0.1
v 0.5 2.3 -0.1
v 0.6 2 -0.1
v 0.6 2.1 -0.1
v 0.6 2.2 -0.1
v 0.6 2.3 -0.1
v 0.7 2.1 -0.1
v 0.7 2.2 -0.1
v 0 2.2 -0.2
v 0 2.3 -0.2
v 0.1 2.2 -0.2
v 0.1 2.3 -0.2
v 0.6 2.2 -0.2
v 0.6 2.3 -0.2
v 0.7 2.2 -0.2
v 0.7 2.3 -0.2
v 0.1 2.3 -0.3
v 0.1 2.4 -0.3
v 0.2 2.3 -0.3
v 0.2 2.4 -0.3
v 0.3 2.7 -0.3
v 0.3 2.8 -0.3
v 0.4 2.7 -0.3
v 0.4 2.8 -0.3
v 0.5 2.3 -0.3
v 0.5 2.4 -0.3
v 0.6 2.3 -0.3
v 0.6 2.4 -0.3
v 0.1 2.7 -0.4
v 0.1 2.8 -0.4
v 0.2 2.4 -0.4
v 0.2 2.5 -0.4
v 0.2 2.6 -0.4
v 0.2 2.7 -0.4
v 0.2 2.8 -0.4
v 0.2 2.9 -0.4
v 0.3 2.4 -0.4
v 0.3 2.5 -0.4
v 0.3 2.6 -0.4
v 0.3 2.7 -0.4
v 0.3 2.8 -0.4
v 0.3 2.9 -0.4
v 0.4 2.4 -0.4
v 0.4 2.5 -0.4
v 0.4 2.6 -0.4
v 0.4 2.7 -0.4
v 0.4 2.8 -0.4
v 0.4 2.9 -0.4
v 0.5 2.4 -0.4
v 0.5 2.5 -0.4
v 0.5 2.6 -0.4
v 0.5 2.7 -0.4
v 0.5 2.8 -0.4
v 0.5 2.9 -0.4
v 0.6 2.7 -0.4
v 0.6 2.8 -0.4
v 0 2.1 -0.6
v 0 2.2 -0.6
v 0.1 2 -0.6
v 0.1 2.1 -0.6
v 0.1 2.2 -0.6
v 0.2 2 -0.6
v 0.2 2.1 -0.6
v 0.3 2.5 -0.6
v 0.3 2.6 -0.6
v 0.4 2.5 -0.6
v 0.4 2.6 -0.6
v 0.5 2 -0.6
v 0.5 2.1 -0.6
v 0.6 2 -0.6
v 0.6 2.1 -0.6
v 0.6 2.2 -0.6
v 0.7 2.1 -0.6
v 0.7 2.2 -0.6
v 0 2.1 -0.3
v 0 2.2 -0.3
v 0.1 2 -0.3
v 0.1 2.1 -0.3
v 0.1 2.2 -0.3
v 0.2 2 -0.3
v 0.2 2.1 -0.3
v 0.5 2 -0.3
v 0.5 2.1 -0.3
v 0.6 2 -0.3
v 0.6 2.1 -0.3
v 0.6 2.2 -0.3
v 0.7 2.1 -0.3
v 0.7 2.2 -0.3
v 0.1 2.7 -0.5
v 0.1 2.8 -0.5
v 0.2 2.6 -0.5
v 0.2 2.7 -0.5
v 0.2 2.8 -0.5
v 0.2 2.9 -0.5
v 0.3 2.6 -0.5
v 0.3 2.7 -0.5
v 0.3 2.8 -0.5
v 0.3 2.9 -0.5
v 0.4 2.6 -0.5
v 0.4 2.7 -0.5
v 0.4 2.8 -0.5
v 0.4 2.9 -0.5
v 0.5 2.6 -0.5
v 0.5 2.7 -0.5
v 0.5 2.8 -0.5
v 0.5 2.9 -0.5
v 0.6 2.7 -0.5
v 0.6 2.8 -0.5
v 0.2 2.7 -0.6
v 0.2 2.8 -0.6
v 0.3 2.7 -0.6
v 0.3 2.8 -0.6
v 0.3 2.9 -0.6
v 0.4 2.7 -0.6
v 0.4 2.8 -0.6
v 0.4 2.9 -0.6
v 0.5 2.7 -0.6
v 0.5 2.8 -0.6
v 0 2.2 -0.7
v 0 2.3 -0.7
v 0.1 2.2 -0.7
v 0.1 2.3 -0.7
v 0.1 2.4 -0.7
v 0.2 2.3 -0.7
v 0.2 2.4 -0.7
v 0.2 2.5 -0.7
v 0.3 2.4 -0.7
v 0.3 2.5 -0.7
v 0.3 2.7 -0.7
v 0.3 2.8 -0.7
v 0.4 2.4 -0.7
v 0.4 2.5 -0.7
v 0.4 2.7 -0.7
v 0.4 2.8 -0.7
v 0.5 2.3 -0.7
v 0.5 2.4 -0.7
v 0.5 2.5 -0.7
v 0.6 2.2 -0.7
v 0.6 2.3 -0.7
v 0.6 2.4 -0.7
v 0.7 2.2 -0.7
v 0.7 2.3 -0.7
v 0 2.1 -0.8
v 0 2.2 -0.8
v 0.1 2 -0.8
v 0.1 2.1 -0.8
v 0.1 2.2 -0.8
v 0.1 2.3 -0.8
v 0.2 2 -0.8
v 0.2 2.1 -0.8
v 0.2 2.2 -0.8
v 0.2 2.3 -0.8
v 0.2 2.4 -0.8
v 0.3 2.3 -0.8
v 0.3 2.4 -0.8
v 0.3 2.6 -0.8
v 0.3 2.7 -0.8
v 0.4 2.3 -0.8
v 0.4 2.4 -0.8
v 0.4 2.6 -0.8
v 0.4 2.7 -0.8
v 0.5 2 -0.8
v 0.5 2.1 -0.8
v 0.5 2.2 -0.8
v 0.5 2.3 -0.8
v 0.5 2.4 -0.8
v 0.6 2 -0.8
v 0.6 2.1 -0.8
v 0.6 2.2 -0.8
v 0.6 2.3 -0.8
v 0.7 2.1 -0.8
v 0.7 2.2 -0.8
v 0.1 2.1 -0.9
v 0.1 2.2 -0.9
v 0.2 2.2 -0.9
v 0.2 2.3 -0.9
v 0.3 2.2 -0.9
v 0.3 2.3 -0.9
v 0.3 2.4 -0.9
v 0.4 2.2 -0.9
v 0.4 2.3 -0.9
v 0.4 2.4 -0.9
v 0.5 2.2 -0.9
v 0.5 2.3 -0.9
v 0.6 2.1 -0.9
v 0.6 2.2 -0.9
v 0.1 2 -0.1
v 0.2 2 -0.1
v 0.5 2 -0.1
v 0.6 2 -0.1
v 0.1 2 -0.3
v 0.2 2 -0.3
v 0.5 2 -0.3
v 0.6 2 -0.3
v 0.1 2 -0.6
v 0.2 2 -0.6
v 0.5 2 -0.6
v 0.6 2 -0.6
v 0.1 2 -0.8
v 0.2 2 -0.8
v 0.5 2 -0.8
v 0.6 2 -0.8
v 0.1 2.1 0
v 0.6 2.1 0
v 0 2.1 -0.1
v 0.1 2.1 -0.1
v 0.2 2.1 -0.1
v 0.5 2.1 -0.1
v 0.6 2.1 -0.1
v 0.7 2.1 -0.1
v 0 2.1 -0.2
v 0.1 2.1 -0.2
v 0.2 2.1 -0.2
v 0.5 2.1 -0.2
v 0.6 2.1 -0.2
v 0.7 2.1 -0.2
v 0 2.1 -0.3
v 0.1 2.1 -0.3
v 0.2 2.1 -0.3
v 0.5 2.1 -0.3
v 0.6 2.1 -0.3
v 0.7 2.1 -0.3
v 0 2.1 -0.6
v 0.1 2.1 -0.6
v 0.2 2.1 -0.6
v 0.5 2.1 -0.6
v 0.6 2.1 -0.6
v 0.7 2.1 -0.6
v 0 2.1 -0.7
v 0.1 2.1 -0.7
v 0.2 2.1 -0.7
v 0.5 2.1 -0.7
v 0.6 2.1 -0.7
v 0.7 2.1 -0.7
v 0 2.1 -0.8
v 0.1 2.1 -0.8
v 0.2 2.1 -0.8
v 0.5 2.1 -0.8
v 0.6 2.1 -0.8
v 0.7 2.1 -0.8
v 0.1 2.1 -0.9
v 0.6 2.1 -0.9
v 0 2.2 -0.3
v 0.1 2.2 -0.3
v 0.6 2.2 -0.3
v 0.7 2.2 -0.3
v 0 2.2 -0.6
v 0.1 2.2 -0.6
v 0.6 2.2 -0.6
v 0.7 2.2 -0.6
v 0.2 2.6 -0.4
v 0.3 2.6 -0.4
v 0.4 2.6 -0.4
v 0.5 2.6 -0.4
v 0.2 2.6 -0.5
v 0.3 2.6 -0.5
v 0.4 2.6 -0.5
v 0.5 2.6 -0.5
v 0.3 2.6 -0.6
v 0.4 2.6 -0.6
v 0.3 2.7 -0.3
v 0.4 2.7 -0.3
v 0.1 2.7 -0.4
v 0.2 2.7 -0.4
v 0.3 2.7 -0.4
v 0.4 2.7 -0.4
v 0.5 2.7 -0.4
v 0.6 2.7 -0.4
v 0.1 2.7 -0.5
v 0.2 2.7 -0.5
v 0.3 2.7 -0.5
v 0.4 2.7 -0.5
v 0.5 2.7 -0.5
v 0.6 2.7 -0.5
v 0.2 2.7 -0.6
v 0.3 2.7 -0.6
v 0.4 2.7 -0.6
v 0.5 2.7 -0.6
v 0.1 2.2 0
v 0.6 2.2 0
v 0 2.2 -0.1
v 0.1 2.2 -0.1
v 0.2 2.2 -0.1
v 0.3 2.2 -0.1
v 0.4 2.2 -0.1
v 0.5 2.2 -0.1
v 0.6 2.2 -0.1
v 0.7 2.2 -0.1
v 0 2.2 -0.2
v 0.1 2.2 -0.2
v 0.6 2.2 -0.2
v 0.7 2.2 -0.2
v 0 2.2 -0.7
v 0.1 2.2 -0.7
v 0.6 2.2 -0.7
v 0.7 2.2 -0.7
v 0 2.2 -0.8
v 0.1 2.2 -0.8
v 0.2 2.2 -0.8
v 0.5 2.2 -0.8
v 0.6 2.2 -0.8
v 0.7 2.2 -0.8
v 0.1 2.2 -0.9
v 0.2 2.2 -0.9
v 0.5 2.2 -0.9
v 0.6 2.2 -0.9
v 0.1 2.3 -0.1
v 0.2 2.3 -0.1
v 0.3 2.3 -0.1
v 0.4 2.3 -0.1
v 0.5 2.3 -0.1
v 0.6 2.3 -0.1
v 0 2.3 -0.2
v 0.1 2.3 -0.2
v 0.2 2.3 -0.2
v 0.3 2.3 -0.2
v 0.4 2.3 -0.2
v 0.5 2.3 -0.2
v 0.6 2.3 -0.2
v 0.7 2.3 -0.2
v 0.1 2.3 -0.3
v 0.2 2.3 -0.3
v 0.5 2.3 -0.3
v 0.6 2.3 -0.3
v 0.1 2.3 -0.4
v 0.6 2.3 -0.4
v 0.1 2.3 -0.6
v 0.6 2.3 -0.6
v 0 2.3 -0.7
v 0.1 2.3 -0.7
v 0.2 2.3 -0.7
v 0.5 2.3 -0.7
v 0.6 2.3 -0.7
v 0.7 2.3 -0.7
v 0.1 2.3 -0.8
v 0.2 2.3 -0.8
v 0.3 2.3 -0.8
v 0.4 2.3 -0.8
v 0.5 2.3 -0.8
v 0.6 2.3 -0.8
v 0.2 2.3 -0.9
v 0.3 2.3 -0.9
v 0.4 2.3 -0.9
v 0.5 2.3 -0.9
v 0.1 2.4 -0.3
v 0.2 2.4 -0.3
v 0.5 2.4 -0.3
v 0.6 2.4 -0.3
v 0.1 2.4 -0.4
v 0.2 2.4 -0.4
v 0.3 2.4 -0.4
v 0.4 2.4 -0.4
v 0.5 2.4 -0.4
v 0.6 2.4 -0.4
v 0.2 2.4 -0.5
v 0.5 2.4 -0.5
v 0.1 2.4 -0.6
v 0.2 2.4 -0.6
v 0.5 2.4 -0.6
v 0.6 2.4 -0.6
v 0.1 2.4 -0.7
v 0.2 2.4 -0.7
v 0.3 2.4 -0.7
v 0.4 2.4 -0.7
v 0.5 2.4 -0.7
v 0.6 2.4 -0.7
v 0.2 2.4 -0.8
v 0.3 2.4 -0.8
v 0.4 2.4 -0.8
v 0.5 2.4 -0.8
v 0.3 2.4 -0.9
v 0.4 2.4 -0.9
v 0.2 2.5 -0.4
v 0.3 2.5 -0.4
v 0.4 2.5 -0.4
v 0.5 2.5 -0.4
v 0.2 2.5 -0.5
v 0.3 2.5 -0.5
v 0.4 2.5 -0.5
v 0.5 2.5 -0.5
v 0.3 2.5 -0.6
v 0.4 2.5 -0.6
v 0.2 2.5 -0.7
v 0.3 2.5 -0.7
v 0.4 2.5 -0.7
v 0.5 2.5 -0.7
v 0.3 2.7 -0.7
v 0.4 2.7 -0.7
v 0.3 2.7 -0.8
v 0.4 2.7 -0.8
v 0.3 2.8 -0.3
v 0.4 2.8 -0.3
v 0.1 2.8 -0.4
v 0.2 2.8 -0.4
v 0.3 2.8 -0.4
v 0.4 2.8 -0.4
v 0.5 2.8 -0.4
v 0.6 2.8 -0.4
v 0.1 2.8 -0.5
v 0.2 2.8 -0.5
v 0.3 2.8 -0.5
v 0.4 2.8 -0.5
v 0.5 2.8 -0.5
v 0.6 2.8 -0.5
v 0.2 2.8 -0.6
v 0.3 2.8 -0.6
v 0.4 2.8 -0.6
v 0.5 2.8 -0.6
v 0.3 2.8 -0.7
v 0.4 2.8 -0.7
v 0.2 2.9 -0.4
v 0.3 2.9 -0.4
v 0.4 2.9 -0.4
v 0.5 2.9 -0.4
v 0.2 2.9 -0.5
v 0.3 2.9 -0.5
v 0.4 2.9 -0.5
v 0.5 2.9 -0.5
v 0.3 2.9 -0.6
v 0.4 2.9 -0.6

# faces
f 7/14/1 2/14/1 1/14/1
f 8/15/1 3/15/1 2/15/1
f 8/14/1 2/14/1 7/14/1
f 9/15/1 3/15/1 8/15/1
f 10/15/1 5/15/1 4/15/1
f 11/14/1 6/14/1 5/14/1
f 11/15/1 5/15/1 10/15/1
f 12/14/1 6/14/1 11/14/1
f 13/5/1 10/5/1 9/5/1
f 13/5/1 9/5/1 8/5/1
f 13/5/1 11/5/1 10/5/1
f 14/5/1 11/5/1 13/5/1
f 20/16/1 16/16/1 15/16/1
f 21/16/1 16/16/1 20/16/1
f 22/16/1 16/16/1 21/16/1
f 23/16/1 18/16/1 17/16/1
f 24/16/1 18/16/1 23/16/1
f 25/16/1 18/16/1 24/16/1
f 27/14/1 20/14/1 19/14/1
f 28/14/1 20/14/1 27/14/1
f 30/15/1 23/15/1 22/15/1
f 31/15/1 23/15/1 30/15/1
f 33/14/1 26/14/1 25/14/1
f 34/14/1 26/14/1 33/14/1
f 35/1/1 29/1/1 28/1/1
f 36/1/1 29/1/1 35/1/1
f 40/1/1 33/1/1 32/1/1
f 41/1/1 33/1/1 40/1/1
f 42/3/1 38/3/1 37/3/1
f 43/7/1 39/7/1 38/7/1
f 43/3/1 38/3/1 42/3/1
f 44/5/1 40/5/1 39/5/1
f 44/7/1 39/7/1 43/7/1
f 45/5/1 40/5/1 44/5/1
f 48/12/1 47/12/1 46/12/1
f 49/12/1 47/12/1 48/12/1
f 53/11/1 51/11/1 50/11/1
f 54/11/1 51/11/1 53/11/1
f 58/5/1 53/5/1 52/5/1
f 59/5/1 53/5/1 58/5/1
f 60/3/1 56/3/1 55/3/1
f 61/5/1 57/5/1 56/5/1
f 61/3/1 56/3/1 60/3/1
f 61/5/1 58/5/1 57/5/1
f 62/5/1 58/5/1 61/5/1
f 65/12/1 64/12/1 63/12/1
f 66/12/1 64/12/1 65/12/1
f 69/13/1 67/13/1 66/13/1
f 70/13/1 67/13/1 69/13/1
f 71/12/1 69/12/1 68/12/1
f 72/12/1 69/12/1 71/12/1
f 76/5/1 74/5/1 73/5/1
f 77/5/1 74/5/1 76/5/1
f 79/2/1 76/2/1 75/2/1
f 81/1/1 79/1/1 78/1/1
f 82/2/1 76/2/1 79/2/1
f 82/1/1 79/1/1 81/1/1
f 83/2/1 76/2/1 82/2/1
f 86/13/1 81/13/1 80/13/1
f 87/1/1 82/1/1 81/1/1
f 87/13/1 81/13/1 86/13/1
f 87/1/1 83/1/1 82/1/1
f 88/1/1 83/1/1 87/1/1
f 89/1/1 83/1/1 88/1/1
f 90/8/1 85/8/1 84/8/1
f 91/8/1 85/8/1 90/8/1
f 93/1/1 88/1/1 87/1/1
f 94/1/1 88/1/1 93/1/1
f 95/13/1 93/13/1 92/13/1
f 96/13/1 93/13/1 95/13/1
f 101/16/1 98/16/1 97/16/1
f 102/16/1 98/16/1 101/16/1
f 103/16/1 98/16/1 102/16/1
f 104/16/1 100/16/1 99/16/1
f 105/16/1 100/16/1 104/16/1
f 106/16/1 100/16/1 105/16/1
f 107/16/2 108/16/2 111/16/2
f 111/16/2 108/16/2 112/16/2
f 112/16/2 108/16/2 113/16/2
f 109/16/2 110/16/2 114/16/2
f 114/16/2 110/16/2 115/16/2
f 115/16/2 110/16/2 116/16/2
f 117/5/2 118/5/2 120/5/2
f 120/5/2 118/5/2 121/5/2
f 119/2/2 120/2/2 123/2/2
f 122/1/2 123/1/2 125/1/2
f 123/2/2 120/2/2 126/2/2
f 125/1/2 123/1/2 126/1/2
f 126/2/2 120/2/2 127/2/2
f 124/13/2 125/13/2 130/13/2
f 125/1/2 126/1/2 131/1/2
f 130/13/2 125/13/2 131/13/2
f 126/1/2 127/1/2 131/1/2
f 131/1/2 127/1/2 132/1/2
f 132/1/2 127/1/2 133/1/2
f 128/8/2 129/8/2 134/8/2
f 134/8/2 129/8/2 135/8/2
f 131/1/2 132/1/2 137/1/2
f 137/1/2 132/1/2 138/1/2
f 136/13/2 137/13/2 139/13/2
f 139/13/2 137/13/2 140/13/2
f 141/11/2 142/11/2 144/11/2
f 144/11/2 142/11/2 145/11/2
f 143/5/2 144/5/2 149/5/2
f 149/5/2 144/5/2 150/5/2
f 146/3/2 147/3/2 151/3/2
f 147/5/2 148/5/2 152/5/2
f 151/3/2 147/3/2 152/3/2
f 148/5/2 149/5/2 152/5/2
f 152/5/2 149/5/2 153/5/2
f 154/12/2 155/12/2 156/12/2
f 156/12/2 155/12/2 157/12/2
f 157/13/2 158/13/2 160/13/2
f 160/13/2 158/13/2 161/13/2
f 159/12/2 160/12/2 162/12/2
f 162/12/2 160/12/2 163/12/2
f 164/16/2 165/16/2 169/16/2
f 169/16/2 165/16/2 170/16/2
f 170/16/2 165/16/2 171/16/2
f 166/16/2 167/16/2 172/16/2
f 172/16/2 167/16/2 173/16/2
f 173/16/2 167/16/2 174/16/2
f 168/14/2 169/14/2 176/14/2
f 176/14/2 169/14/2 177/14/2
f 171/15/2 172/15/2 179/15/2
f 179/15/2 172/15/2 180/15/2
f 174/14/2 175/14/2 182/14/2
f 182/14/2 175/14/2 183/14/2
f 177/1/2 178/1/2 184/1/2
f 184/1/2 178/1/2 185/1/2
f 181/1/2 182/1/2 189/1/2
f 189/1/2 182/1/2 190/1/2
f 186/3/2 187/3/2 191/3/2
f 187/7/2 188/7/2 192/7/2
f 191/3/2 187/3/2 192/3/2
f 188/5/2 189/5/2 193/5/2
f 192/7/2 188/7/2 193/7/2
f 193/5/2 189/5/2 194/5/2
f 195/12/2 196/12/2 197/12/2
f 197/12/2 196/12/2 198/12/2
f 199/14/2 200/14/2 205/14/2
f 200/15/2 201/15/2 206/15/2
f 205/14/2 200/14/2 206/14/2
f 206/15/2 201/15/2 207/15/2
f 202/15/2 203/15/2 208/15/2
f 203/14/2 204/14/2 209/14/2
f 208/15/2 203/15/2 209/15/2
f 209/14/2 204/14/2 210/14/2
f 207/5/2 208/5/2 211/5/2
f 206/5/2 207/5/2 211/5/2
f 208/5/2 209/5/2 211/5/2
f 211/5/2 209/5/2 212/5/2
f 215/14/3 214/14/3 213/14/3
f 216/14/3 214/14/3 215/14/3
f 220/14/3 218/14/3 217/14/3
f 221/14/3 218/14/3 220/14/3
f 223/16/3 220/16/3 219/16/3
f 224/16/3 220/16/3 223/16/3
f 225/1/3 222/1/3 221/1/3
f 226/1/3 222/1/3 225/1/3
f 227/11/3 226/11/3 225/11/3
f 228/11/3 226/11/3 227/11/3
f 229/14/3 228/14/3 227/14/3
f 230/14/3 228/14/3 229/14/3
f 233/11/3 230/11/3 229/11/3
f 234/11/3 230/11/3 233/11/3
f 235/16/3 232/16/3 231/16/3
f 236/16/3 232/16/3 235/16/3
f 237/1/3 234/1/3 233/1/3
f 238/1/3 234/1/3 237/1/3
f 239/14/3 237/14/3 236/14/3
f 240/14/3 237/14/3 239/14/3
f 243/5/3 242/5/3 241/5/3
f 244/5/3 242/5/3 243/5/3
f 247/5/3 246/5/3 245/5/3
f 248/5/3 246/5/3 247/5/3
f 251/3/3 250/3/3 249/3/3
f 252/3/3 250/3/3 251/3/3
f 255/8/3 254/8/3 253/8/3
f 256/8/3 254/8/3 255/8/3
f 257/7/3 252/7/3 251/7/3
f 258/7/3 252/7/3 257/7/3
f 259/3/3 258/3/3 257/3/3
f 260/3/3 258/3/3 259/3/3
f 266/12/3 262/12/3 261/12/3
f 267/12/3 262/12/3 266/12/3
f 269/3/3 264/3/3 263/3/3
f 270/3/3 264/3/3 269/3/3
f 271/12/3 266/12/3 265/12/3
f 272/9/3 267/9/3 266/9/3
f 272/12/3 266/12/3 271/12/3
f 273/12/3 268/12/3 267/12/3
f 273/9/3 267/9/3 272/9/3
f 274/12/3 268/12/3 273/12/3
f 275/7/3 270/7/3 269/7/3
f 276/7/3 270/7/3 275/7/3
f 277/9/3 272/9/3 271/9/3
f 278/9/3 272/9/3 277/9/3
f 279/9/3 274/9/3 273/9/3
f 280/9/3 274/9/3 279/9/3
f 281/3/3 276/3/3 275/3/3
f 282/3/3 276/3/3 281/3/3
f 283/12/3 278/12/3 277/12/3
f 284/9/3 279/9/3 278/9/3
f 284/12/3 278/12/3 283/12/3
f 285/12/3 280/12/3 279/12/3
f 285/9/3 279/9/3 284/9/3
f 286/12/3 280/12/3 285/12/3
f 287/12/3 285/12/3 284/12/3
f 288/12/3 285/12/3 287/12/3
f 292/15/3 290/15/3 289/15/3
f 293/15/3 290/15/3 292/15/3
f 294/16/3 292/16/3 291/16/3
f 295/16/3 292/16/3 294/16/3
f 298/1/3 297/1/3 296/1/3
f 299/1/3 297/1/3 298/1/3
f 302/16/3 301/16/3 300/16/3
f 303/16/3 301/16/3 302/16/3
f 305/15/3 304/15/3 303/15/3
f 306/15/3 304/15/3 305/15/3
f 307/15/4 308/15/4 310/15/4
f 310/15/4 308/15/4 311/15/4
f 309/16/4 310/16/4 312/16/4
f 312/16/4 310/16/4 313/16/4
f 314/16/4 315/16/4 316/16/4
f 316/16/4 315/16/4 317/16/4
f 317/15/4 318/15/4 319/15/4
f 319/15/4 318/15/4 320/15/4
f 321/12/4 322/12/4 324/12/4
f 324/12/4 322/12/4 325/12/4
f 323/12/4 324/12/4 327/12/4
f 327/12/4 324/12/4 328/12/4
f 325/12/4 326/12/4 329/12/4
f 329/12/4 326/12/4 330/12/4
f 331/12/4 332/12/4 335/12/4
f 335/12/4 332/12/4 336/12/4
f 333/12/4 334/12/4 337/12/4
f 337/12/4 334/12/4 338/12/4
f 336/12/4 337/12/4 339/12/4
f 339/12/4 337/12/4 340/12/4
f 341/13/4 342/13/4 343/13/4
f 343/13/4 342/13/4 344/13/4
f 344/13/4 345/13/4 347/13/4
f 347/13/4 345/13/4 348/13/4
f 346/13/4 347/13/4 349/13/4
f 349/13/4 347/13/4 350/13/4
f 351/5/4 352/5/4 353/5/4
f 353/5/4 352/5/4 354/5/4
f 354/5/4 355/5/4 356/5/4
f 356/5/4 355/5/4 357/5/4
f 357/5/4 358/5/4 359/5/4
f 359/5/4 358/5/4 360/5/4
f 361/1/4 362/1/4 365/1/4
f 365/1/4 362/1/4 366/1/4
f 363/5/4 364/5/4 368/5/4
f 368/5/4 364/5/4 369/5/4
f 367/5/4 368/5/4 371/5/4
f 371/5/4 368/5/4 372/5/4
f 370/5/4 371/5/4 373/5/4
f 373/5/4 371/5/4 374/5/4
f 375/14/4 376/14/4 378/14/4
f 378/14/4 376/14/4 379/14/4
f 377/16/4 378/16/4 381/16/4
f 381/16/4 378/16/4 382/16/4
f 379/1/4 380/1/4 383/1/4
f 383/1/4 380/1/4 384/1/4
f 384/5/4 385/5/4 386/5/4
f 386/5/4 385/5/4 387/5/4
f 387/2/4 388/2/4 391/2/4
f 388/1/4 389/1/4 392/1/4
f 391/2/4 388/2/4 392/2/4
f 392/1/4 389/1/4 393/1/4
f 390/5/4 391/5/4 397/5/4
f 397/5/4 391/5/4 398/5/4
f 394/16/4 395/16/4 399/16/4
f 399/16/4 395/16/4 400/16/4
f 396/1/4 397/1/4 401/1/4
f 401/1/4 397/1/4 402/1/4
f 400/14/4 401/14/4 403/14/4
f 403/14/4 401/14/4 404/14/4
f 405/14/4 406/14/4 407/14/4
f 405/14/4 407/14/4 409/14/4
f 407/11/4 408/11/4 409/11/4
f 409/11/4 408/11/4 410/11/4
f 405/14/4 409/14/4 412/14/4
f 410/5/4 411/5/4 412/5/4
f 409/5/4 410/5/4 412/5/4
f 412/5/4 411/5/4 413/5/4
f 413/5/4 411/5/4 414/5/4
f 405/14/4 412/14/4 415/14/4
f 412/11/4 413/11/4 415/11/4
f 415/11/4 413/11/4 416/11/4
f 405/14/4 415/14/4 417/14/4
f 417/14/4 415/14/4 418/14/4
f 423/16/5 420/16/5 419/16/5
f 424/16/5 420/16/5 423/16/5
f 425/16/5 422/16/5 421/16/5
f 426/16/5 422/16/5 425/16/5
f 431/16/5 428/16/5 427/16/5
f 432/16/5 428/16/5 431/16/5
f 433/16/5 430/16/5 429/16/5
f 434/16/5 430/16/5 433/16/5
f 438/14/5 436/14/5 435/14/5
f 439/14/5 436/14/5 438/14/5
f 440/14/5 436/14/5 439/14/5
f 441/14/5 436/14/5 440/14/5
f 443/14/5 438/14/5 437/14/5
f 444/14/5 438/14/5 443/14/5
f 445/17/5 440/17/5 439/17/5
f 446/17/5 440/17/5 445/17/5
f 447/14/5 442/14/5 441/14/5
f 448/14/5 442/14/5 447/14/5
f 449/15/5 444/15/5 443/15/5
f 450/15/5 444/15/5 449/15/5
f 451/16/5 446/16/5 445/16/5
f 452/16/5 446/16/5 451/16/5
f 453/15/5 448/15/5 447/15/5
f 454/15/5 448/15/5 453/15/5
f 456/15/5 451/15/5 450/15/5
f 457/17/5 452/17/5 451/17/5
f 457/15/5 451/15/5 456/15/5
f 458/15/5 453/15/5 452/15/5
f 458/17/5 452/17/5 457/17/5
f 459/15/5 453/15/5 458/15/5
f 461/15/5 456/15/5 455/15/5
f 462/15/5 456/15/5 461/15/5
f 463/16/5 458/16/5 457/16/5
f 464/16/5 458/16/5 463/16/5
f 465/15/5 460/15/5 459/15/5
f 466/15/5 460/15/5 465/15/5
f 467/14/5 462/14/5 461/14/5
f 468/14/5 462/14/5 467/14/5
f 469/17/5 464/17/5 463/17/5
f 470/17/5 464/17/5 469/17/5
f 471/14/5 466/14/5 465/14/5
f 472/14/5 466/14/5 471/14/5
f 473/14/5 470/14/5 469/14/5
f 473/14/5 471/14/5 470/14/5
f 473/14/5 469/14/5 468/14/5
f 474/14/5 471/14/5 473/14/5
f 479/5/5 476/5/5 475/5/5
f 480/5/5 476/5/5 479/5/5
f 481/5/5 478/5/5 477/5/5
f 482/5/5 478/5/5 481/5/5
f 487/12/5 484/12/5 483/12/5
f 488/9/5 485/9/5 484/9/5
f 488/12/5 484/12/5 487/12/5
f 489/12/5 486/12/5 485/12/5
f 489/9/5 485/9/5 488/9/5
f 490/12/5 486/12/5 489/12/5
f 491/13/5 489/13/5 488/13/5
f 492/13/5 489/13/5 491/13/5
f 497/8/5 494/8/5 493/8/5
f 498/8/5 494/8/5 497/8/5
f 501/12/5 496/12/5 495/12/5
f 502/12/5 496/12/5 501/12/5
f 505/12/5 500/12/5 499/12/5
f 506/12/5 500/12/5 505/12/5
f 507/13/5 503/13/5 502/13/5
f 508/13/5 503/13/5 507/13/5
f 509/13/5 505/13/5 504/13/5
f 510/13/5 505/13/5 509/13/5
f 511/14/6 512/14/6 514/14/6
f 514/14/6 512/14/6 515/14/6
f 515/14/6 512/14/6 516/14/6
f 516/14/6 512/14/6 517/14/6
f 517/14/6 512/14/6 518/14/6
f 518/14/6 512/14/6 519/14/6
f 513/14/6 514/14/6 521/14/6
f 521/14/6 514/14/6 522/14/6
f 519/14/6 520/14/6 523/14/6
f 523/14/6 520/14/6 524/14/6
f 525/14/6 526/14/6 529/14/6
f 529/14/6 526/14/6 530/14/6
f 527/14/6 528/14/6 533/14/6
f 533/14/6 528/14/6 534/14/6
f 530/14/6 531/14/6 535/14/6
f 535/14/6 531/14/6 536/14/6
f 532/14/6 533/14/6 537/14/6
f 537/14/6 533/14/6 538/14/6
f 539/1/6 540/1/6 546/1/6
f 540/11/6 541/11/6 547/11/6
f 546/1/6 540/1/6 547/1/6
f 541/14/6 542/14/6 548/14/6
f 547/11/6 541/11/6 548/11/6
f 542/11/6 543/11/6 549/11/6
f 548/14/6 542/14/6 549/14/6
f 543/1/6 544/1/6 550/1/6
f 549/11/6 543/11/6 550/11/6
f 550/1/6 544/1/6 551/1/6
f 548/5/6 549/5/6 553/5/6
f 551/5/6 552/5/6 553/5/6
f 550/5/6 551/5/6 553/5/6
f 549/5/6 550/5/6 553/5/6
f 545/5/6 546/5/6 553/5/6
f 547/5/6 548/5/6 553/5/6
f 546/5/6 547/5/6 553/5/6
f 553/5/6 552/5/6 554/5/6
f 554/5/6 552/5/6 555/5/6
f 555/5/6 552/5/6 556/5/6
f 545/5/6 553/5/6 557/5/6
f 556/5/6 552/5/6 558/5/6
f 545/5/6 557/5/6 559/5/6
f 558/5/6 552/5/6 560/5/6
f 545/5/6 559/5/6 561/5/6
f 561/5/6 559/5/6 562/5/6
f 560/5/6 552/5/6 565/5/6
f 565/5/6 552/5/6 566/5/6
f 562/1/6 563/1/6 567/1/6
f 567/1/6 563/1/6 568/1/6
f 564/1/6 565/1/6 571/1/6
f 571/1/6 565/1/6 572/1/6
f 568/11/6 569/11/6 573/11/6
f 573/11/6 569/11/6 574/11/6
f 570/11/6 571/11/6 575/11/6
f 575/11/6 571/11/6 576/11/6
f 577/3/6 578/3/6 581/3/6
f 578/7/6 579/7/6 582/7/6
f 581/3/6 578/3/6 582/3/6
f 582/7/6 579/7/6 583/7/6
f 583/7/6 579/7/6 584/7/6
f 579/3/6 580/3/6 585/3/6
f 584/7/6 579/7/6 585/7/6
f 585/3/6 580/3/6 586/3/6
f 581/7/6 582/7/6 587/7/6
f 585/7/6 586/7/6 588/7/6
f 581/7/6 587/7/6 589/7/6
f 589/7/6 587/7/6 590/7/6
f 588/7/6 586/7/6 591/7/6
f 591/7/6 586/7/6 592/7/6
f 589/5/6 590/5/6 593/5/6
f 593/5/6 590/5/6 594/5/6
f 591/5/6 592/5/6 597/5/6
f 597/5/6 592/5/6 598/5/6
f 594/5/6 595/5/6 599/5/6
f 599/5/6 595/5/6 600/5/6
f 596/5/6 597/5/6 601/5/6
f 601/5/6 597/5/6 602/5/6
f 600/5/6 601/5/6 603/5/6
f 603/5/6 601/5/6 604/5/6
f 605/3/6 606/3/6 609/3/6
f 606/7/6 607/7/6 610/7/6
f 609/3/6 606/3/6 610/3/6
f 607/3/6 608/3/6 611/3/6
f 610/7/6 607/7/6 611/7/6
f 611/3/6 608/3/6 612/3/6
f 609/5/6 610/5/6 613/5/6
f 610/5/6 611/5/6 613/5/6
f 611/5/6 612/5/6 613/5/6
f 613/5/6 612/5/6 614/5/6
f 609/5/6 613/5/6 615/5/6
f 615/5/6 613/5/6 616/5/6
f 614/5/6 612/5/6 617/5/6
f 617/5/6 612/5/6 618/5/6
f 619/1/6 620/1/6 621/1/6
f 621/1/6 620/1/6 622/1/6
f 623/8/6 624/8/6 627/8/6
f 627/8/6 624/8/6 628/8/6
f 625/12/6 626/12/6 631/12/6
f 631/12/6 626/12/6 632/12/6
f 629/12/6 630/12/6 635/12/6
f 635/12/6 630/12/6 636/12/6
f 632/13/6 633/13/6 637/13/6
f 637/13/6 633/13/6 638/13/6
f 634/13/6 635/13/6 639/13/6
f 639/13/6 635/13/6 640/13/6
f 638/1/6 639/1/6 641/1/6
f 641/1/6 639/1/6 642/1/6
f 643/12/6 644/12/6 647/12/6
f 644/9/6 645/9/6 648/9/6
f 647/12/6 644/12/6 648/12/6
f 645/12/6 646/12/6 649/12/6
f 648/9/6 645/9/6 649/9/6
f 649/12/6 646/12/6 650/12/6
f 648/13/6 649/13/6 651/13/6
f 651/13/6 649/13/6 652/13/6
