# Blender v2.82 (sub 7) OBJ File: ''
# www.blender.org
mtllib LifeObject1.mtl
o ObjObject.007
v -0.450000 0.100000 0.250000
v -0.450000 0.000000 -0.250000
v -0.450000 0.000000 0.250000
v -0.450000 0.100000 -0.250000
v -0.350000 0.100000 0.350000
v -0.350000 0.000000 0.250000
v -0.350000 0.000000 0.350000
v -0.350000 0.100000 0.250000
v -0.350000 0.100000 -0.250000
v -0.350000 0.000000 -0.350000
v -0.350000 0.000000 -0.250000
v -0.350000 0.100000 -0.350000
v -0.350000 0.200000 0.150000
v -0.350000 0.100000 0.050000
v -0.350000 0.100000 0.150000
v -0.350000 0.200000 0.050000
v -0.350000 0.100000 -0.050000
v -0.350000 0.200000 -0.050000
v -0.350000 0.100000 -0.150000
v -0.350000 0.200000 -0.150000
v -0.250000 0.100000 0.450000
v -0.250000 0.000000 0.350000
v -0.250000 0.000000 0.450000
v -0.250000 0.100000 0.350000
v -0.250000 0.100000 -0.350000
v -0.250000 0.000000 -0.450000
v -0.250000 0.000000 -0.350000
v -0.250000 0.100000 -0.450000
v -0.250000 0.200000 0.250000
v -0.250000 0.100000 0.150000
v -0.250000 0.100000 0.250000
v -0.250000 0.200000 0.150000
v -0.250000 0.200000 -0.150000
v -0.250000 0.100000 -0.250000
v -0.250000 0.100000 -0.150000
v -0.250000 0.200000 -0.250000
v -0.150000 0.200000 -0.250000
v -0.150000 0.100000 -0.350000
v -0.150000 0.100000 -0.250000
v -0.150000 0.200000 -0.350000
v -0.050000 0.200000 0.350000
v -0.050000 0.100000 0.250000
v -0.050000 0.100000 0.350000
v -0.050000 0.200000 0.250000
v 0.050000 0.200000 -0.250000
v 0.050000 0.100000 -0.350000
v 0.050000 0.100000 -0.250000
v 0.050000 0.200000 -0.350000
v -0.050000 0.100000 -0.250000
v -0.050000 0.100000 -0.350000
v -0.050000 0.200000 -0.250000
v -0.050000 0.200000 -0.350000
v 0.050000 0.100000 0.350000
v 0.050000 0.100000 0.250000
v 0.050000 0.200000 0.350000
v 0.050000 0.200000 0.250000
v 0.150000 0.100000 0.250000
v 0.150000 0.100000 0.150000
v 0.150000 0.200000 0.250000
v 0.150000 0.200000 0.150000
v 0.150000 0.100000 -0.250000
v 0.150000 0.100000 -0.350000
v 0.150000 0.200000 -0.250000
v 0.150000 0.200000 -0.350000
v 0.250000 0.000000 0.450000
v 0.250000 0.000000 0.350000
v 0.250000 0.100000 0.450000
v 0.250000 0.100000 0.350000
v 0.250000 0.000000 -0.350000
v 0.250000 0.000000 -0.450000
v 0.250000 0.100000 -0.350000
v 0.250000 0.100000 -0.450000
v 0.250000 0.100000 0.150000
v 0.250000 0.100000 0.050000
v 0.250000 0.200000 0.150000
v 0.250000 0.200000 0.050000
v 0.250000 0.100000 -0.150000
v 0.250000 0.100000 -0.250000
v 0.250000 0.200000 -0.150000
v 0.250000 0.200000 -0.250000
v 0.350000 0.000000 0.350000
v 0.350000 0.000000 0.250000
v 0.350000 0.100000 0.350000
v 0.350000 0.100000 0.250000
v 0.350000 0.000000 -0.250000
v 0.350000 0.000000 -0.350000
v 0.350000 0.100000 -0.250000
v 0.350000 0.100000 -0.350000
v 0.350000 0.100000 0.050000
v 0.350000 0.100000 -0.050000
v 0.350000 0.200000 0.050000
v 0.350000 0.100000 -0.150000
v 0.350000 0.200000 -0.050000
v 0.350000 0.200000 -0.150000
v 0.450000 0.000000 0.250000
v 0.450000 0.000000 -0.250000
v 0.450000 0.100000 0.250000
v 0.450000 0.100000 -0.250000
v 0.250000 0.000000 0.450000
v -0.250000 0.100000 0.450000
v -0.250000 0.000000 0.450000
v 0.250000 0.100000 0.450000
v -0.250000 0.000000 0.350000
v -0.350000 0.100000 0.350000
v -0.350000 0.000000 0.350000
v -0.250000 0.100000 0.350000
v 0.050000 0.100000 0.350000
v -0.050000 0.200000 0.350000
v -0.050000 0.100000 0.350000
v 0.050000 0.200000 0.350000
v 0.350000 0.000000 0.350000
v 0.250000 0.100000 0.350000
v 0.250000 0.000000 0.350000
v 0.350000 0.100000 0.350000
v -0.350000 0.000000 0.250000
v -0.450000 0.100000 0.250000
v -0.450000 0.000000 0.250000
v -0.350000 0.100000 0.250000
v -0.150000 0.100000 0.250000
v -0.250000 0.200000 0.250000
v -0.250000 0.100000 0.250000
v -0.150000 0.200000 0.250000
v -0.050000 0.100000 0.250000
v -0.050000 0.200000 0.250000
v 0.150000 0.100000 0.250000
v 0.050000 0.200000 0.250000
v 0.050000 0.100000 0.250000
v 0.150000 0.200000 0.250000
v 0.450000 0.000000 0.250000
v 0.350000 0.100000 0.250000
v 0.350000 0.000000 0.250000
v 0.450000 0.100000 0.250000
v -0.250000 0.100000 0.150000
v -0.350000 0.200000 0.150000
v -0.350000 0.100000 0.150000
v -0.250000 0.200000 0.150000
v 0.250000 0.100000 0.150000
v 0.150000 0.200000 0.150000
v 0.150000 0.100000 0.150000
v 0.250000 0.200000 0.150000
v 0.350000 0.100000 0.050000
v 0.250000 0.200000 0.050000
v 0.250000 0.100000 0.050000
v 0.350000 0.200000 0.050000
v -0.350000 0.100000 -0.150000
v -0.350000 0.200000 -0.150000
v -0.250000 0.100000 -0.150000
v -0.250000 0.200000 -0.150000
v 0.250000 0.100000 -0.150000
v 0.250000 0.200000 -0.150000
v 0.350000 0.100000 -0.150000
v 0.350000 0.200000 -0.150000
v -0.450000 0.000000 -0.250000
v -0.450000 0.100000 -0.250000
v -0.350000 0.000000 -0.250000
v -0.350000 0.100000 -0.250000
v -0.250000 0.100000 -0.250000
v -0.250000 0.200000 -0.250000
v -0.150000 0.100000 -0.250000
v -0.150000 0.200000 -0.250000
v -0.050000 0.100000 -0.250000
v -0.050000 0.200000 -0.250000
v 0.050000 0.100000 -0.250000
v 0.050000 0.200000 -0.250000
v 0.150000 0.100000 -0.250000
v 0.150000 0.200000 -0.250000
v 0.250000 0.100000 -0.250000
v 0.250000 0.200000 -0.250000
v 0.350000 0.000000 -0.250000
v 0.350000 0.100000 -0.250000
v 0.450000 0.000000 -0.250000
v 0.450000 0.100000 -0.250000
v -0.350000 0.000000 -0.350000
v -0.350000 0.100000 -0.350000
v -0.250000 0.000000 -0.350000
v -0.250000 0.100000 -0.350000
v -0.150000 0.100000 -0.350000
v -0.150000 0.200000 -0.350000
v -0.050000 0.100000 -0.350000
v -0.050000 0.200000 -0.350000
v 0.050000 0.100000 -0.350000
v 0.050000 0.200000 -0.350000
v 0.150000 0.100000 -0.350000
v 0.150000 0.200000 -0.350000
v 0.250000 0.000000 -0.350000
v 0.250000 0.100000 -0.350000
v 0.350000 0.000000 -0.350000
v 0.350000 0.100000 -0.350000
v -0.250000 0.000000 -0.450000
v -0.250000 0.100000 -0.450000
v 0.250000 0.000000 -0.450000
v 0.250000 0.100000 -0.450000
v -0.250000 0.000000 0.350000
v 0.250000 0.000000 0.450000
v -0.250000 0.000000 0.450000
v 0.250000 0.000000 0.350000
v -0.350000 0.000000 0.250000
v -0.350000 0.000000 0.350000
v 0.350000 0.000000 0.350000
v 0.350000 0.000000 0.250000
v -0.450000 0.000000 -0.250000
v -0.450000 0.000000 0.250000
v 0.450000 0.000000 0.250000
v -0.350000 0.000000 -0.250000
v 0.350000 0.000000 -0.250000
v 0.450000 0.000000 -0.250000
v -0.350000 0.000000 -0.350000
v -0.250000 0.000000 -0.350000
v 0.250000 0.000000 -0.350000
v 0.350000 0.000000 -0.350000
v -0.250000 0.000000 -0.450000
v 0.250000 0.000000 -0.450000
v -0.250000 0.100000 0.450000
v 0.250000 0.100000 0.450000
v -0.250000 0.100000 0.350000
v -0.050000 0.100000 0.350000
v 0.050000 0.100000 0.350000
v 0.250000 0.100000 0.350000
v -0.350000 0.100000 0.350000
v -0.350000 0.100000 0.250000
v -0.250000 0.100000 0.250000
v -0.150000 0.100000 0.250000
v -0.050000 0.100000 0.250000
v 0.050000 0.100000 0.250000
v 0.350000 0.100000 0.350000
v 0.150000 0.100000 0.250000
v 0.350000 0.100000 0.250000
v -0.450000 0.100000 0.250000
v -0.350000 0.100000 0.150000
v -0.250000 0.100000 0.150000
v 0.450000 0.100000 0.250000
v 0.150000 0.100000 0.150000
v 0.250000 0.100000 0.150000
v -0.350000 0.100000 0.050000
v 0.250000 0.100000 0.050000
v 0.350000 0.100000 0.050000
v -0.350000 0.100000 -0.050000
v 0.350000 0.100000 -0.050000
v -0.350000 0.100000 -0.150000
v 0.350000 0.100000 -0.150000
v -0.250000 0.100000 -0.150000
v -0.450000 0.100000 -0.250000
v -0.350000 0.100000 -0.250000
v -0.250000 0.100000 -0.250000
v 0.250000 0.100000 -0.150000
v 0.250000 0.100000 -0.250000
v 0.350000 0.100000 -0.250000
v 0.450000 0.100000 -0.250000
v -0.350000 0.100000 -0.350000
v -0.150000 0.100000 -0.250000
v -0.250000 0.100000 -0.350000
v -0.150000 0.100000 -0.350000
v -0.050000 0.100000 -0.250000
v 0.050000 0.100000 -0.250000
v -0.050000 0.100000 -0.350000
v 0.050000 0.100000 -0.350000
v 0.150000 0.100000 -0.250000
v 0.150000 0.100000 -0.350000
v 0.250000 0.100000 -0.350000
v 0.350000 0.100000 -0.350000
v -0.250000 0.100000 -0.450000
v 0.250000 0.100000 -0.450000
v -0.050000 0.200000 0.350000
v 0.050000 0.200000 0.350000
v -0.050000 0.200000 0.250000
v 0.050000 0.200000 0.250000
v -0.250000 0.200000 0.250000
v -0.150000 0.200000 0.250000
v -0.250000 0.200000 0.150000
v -0.150000 0.200000 0.150000
v 0.150000 0.200000 0.250000
v -0.050000 0.200000 0.150000
v 0.050000 0.200000 0.150000
v 0.150000 0.200000 0.150000
v -0.350000 0.200000 0.150000
v -0.350000 0.200000 0.050000
v -0.250000 0.200000 0.050000
v -0.150000 0.200000 0.050000
v -0.050000 0.200000 0.050000
v 0.050000 0.200000 0.050000
v 0.250000 0.200000 0.150000
v 0.150000 0.200000 0.050000
v 0.250000 0.200000 0.050000
v -0.350000 0.200000 -0.050000
v -0.250000 0.200000 -0.050000
v -0.150000 0.200000 -0.050000
v -0.050000 0.200000 -0.050000
v 0.050000 0.200000 -0.050000
v 0.150000 0.200000 -0.050000
v 0.350000 0.200000 0.050000
v 0.250000 0.200000 -0.050000
v 0.350000 0.200000 -0.050000
v -0.350000 0.200000 -0.150000
v -0.250000 0.200000 -0.150000
v -0.150000 0.200000 -0.150000
v 0.050000 0.200000 -0.150000
v 0.150000 0.200000 -0.150000
v 0.250000 0.200000 -0.150000
v 0.350000 0.200000 -0.150000
v -0.250000 0.200000 -0.250000
v -0.150000 0.200000 -0.250000
v -0.050000 0.200000 -0.250000
v 0.050000 0.200000 -0.250000
v 0.150000 0.200000 -0.250000
v 0.250000 0.200000 -0.250000
v -0.150000 0.200000 -0.350000
v -0.050000 0.200000 -0.350000
v 0.050000 0.200000 -0.350000
v 0.150000 0.200000 -0.350000
vt 0.951172 0.500000
vt 0.951172 0.500000
vt 0.951172 0.500000
vt 0.951172 0.500000
vt 0.951172 0.500000
vt 0.951172 0.500000
vt 0.951172 0.500000
vt 0.951172 0.500000
vt 0.951172 0.500000
vt 0.951172 0.500000
vt 0.951172 0.500000
vt 0.951172 0.500000
vt 0.041016 0.500000
vt 0.041016 0.500000
vt 0.041016 0.500000
vt 0.013672 0.500000
vt 0.013672 0.500000
vt 0.013672 0.500000
vt 0.041016 0.500000
vt 0.068359 0.500000
vt 0.068359 0.500000
vt 0.068359 0.500000
vt 0.013672 0.500000
vt 0.068359 0.500000
vt 0.951172 0.500000
vt 0.951172 0.500000
vt 0.951172 0.500000
vt 0.951172 0.500000
vt 0.951172 0.500000
vt 0.951172 0.500000
vt 0.951172 0.500000
vt 0.951172 0.500000
vt 0.068359 0.500000
vt 0.068359 0.500000
vt 0.068359 0.500000
vt 0.068359 0.500000
vt 0.068359 0.500000
vt 0.068359 0.500000
vt 0.068359 0.500000
vt 0.068359 0.500000
vt 0.021484 0.500000
vt 0.021484 0.500000
vt 0.021484 0.500000
vt 0.021484 0.500000
vt 0.068359 0.500000
vt 0.068359 0.500000
vt 0.068359 0.500000
vt 0.068359 0.500000
vt 0.009766 0.500000
vt 0.009766 0.500000
vt 0.009766 0.500000
vt 0.009766 0.500000
vt 0.021484 0.500000
vt 0.021484 0.500000
vt 0.021484 0.500000
vt 0.021484 0.500000
vt 0.068359 0.500000
vt 0.068359 0.500000
vt 0.068359 0.500000
vt 0.068359 0.500000
vt 0.041016 0.500000
vt 0.041016 0.500000
vt 0.041016 0.500000
vt 0.041016 0.500000
vt 0.009766 0.500000
vt 0.009766 0.500000
vt 0.009766 0.500000
vt 0.009766 0.500000
vt 0.951172 0.500000
vt 0.951172 0.500000
vt 0.951172 0.500000
vt 0.951172 0.500000
vt 0.951172 0.500000
vt 0.951172 0.500000
vt 0.951172 0.500000
vt 0.951172 0.500000
vt 0.068359 0.500000
vt 0.068359 0.500000
vt 0.068359 0.500000
vt 0.068359 0.500000
vt 0.068359 0.500000
vt 0.068359 0.500000
vt 0.068359 0.500000
vt 0.068359 0.500000
vt 0.951172 0.500000
vt 0.951172 0.500000
vt 0.951172 0.500000
vt 0.951172 0.500000
vt 0.951172 0.500000
vt 0.951172 0.500000
vt 0.951172 0.500000
vt 0.951172 0.500000
vt 0.021484 0.500000
vt 0.021484 0.500000
vt 0.021484 0.500000
vt 0.009766 0.500000
vt 0.009766 0.500000
vt 0.009766 0.500000
vt 0.021484 0.500000
vt 0.009766 0.500000
vt 0.951172 0.500000
vt 0.951172 0.500000
vt 0.951172 0.500000
vt 0.951172 0.500000
vt 0.951172 0.500000
vt 0.951172 0.500000
vt 0.951172 0.500000
vt 0.951172 0.500000
vt 0.951172 0.500000
vt 0.951172 0.500000
vt 0.951172 0.500000
vt 0.951172 0.500000
vt 0.068359 0.500000
vt 0.068359 0.500000
vt 0.068359 0.500000
vt 0.068359 0.500000
vt 0.951172 0.500000
vt 0.951172 0.500000
vt 0.951172 0.500000
vt 0.951172 0.500000
vt 0.951172 0.500000
vt 0.951172 0.500000
vt 0.951172 0.500000
vt 0.951172 0.500000
vt 0.068359 0.500000
vt 0.068359 0.500000
vt 0.068359 0.500000
vt 0.068359 0.500000
vt 0.021484 0.500000
vt 0.021484 0.500000
vt 0.021484 0.500000
vt 0.021484 0.500000
vt 0.041016 0.500000
vt 0.041016 0.500000
vt 0.041016 0.500000
vt 0.041016 0.500000
vt 0.951172 0.500000
vt 0.951172 0.500000
vt 0.951172 0.500000
vt 0.951172 0.500000
vt 0.041016 0.500000
vt 0.041016 0.500000
vt 0.041016 0.500000
vt 0.041016 0.500000
vt 0.068359 0.500000
vt 0.068359 0.500000
vt 0.068359 0.500000
vt 0.068359 0.500000
vt 0.021484 0.500000
vt 0.021484 0.500000
vt 0.021484 0.500000
vt 0.021484 0.500000
vt 0.068359 0.500000
vt 0.068359 0.500000
vt 0.068359 0.500000
vt 0.068359 0.500000
vt 0.009766 0.500000
vt 0.009766 0.500000
vt 0.009766 0.500000
vt 0.009766 0.500000
vt 0.951172 0.500000
vt 0.951172 0.500000
vt 0.951172 0.500000
vt 0.951172 0.500000
vt 0.068359 0.500000
vt 0.068359 0.500000
vt 0.068359 0.500000
vt 0.068359 0.500000
vt 0.009766 0.500000
vt 0.009766 0.500000
vt 0.009766 0.500000
vt 0.009766 0.500000
vt 0.068359 0.500000
vt 0.068359 0.500000
vt 0.068359 0.500000
vt 0.068359 0.500000
vt 0.951172 0.500000
vt 0.951172 0.500000
vt 0.951172 0.500000
vt 0.951172 0.500000
vt 0.951172 0.500000
vt 0.951172 0.500000
vt 0.951172 0.500000
vt 0.951172 0.500000
vt 0.021484 0.500000
vt 0.021484 0.500000
vt 0.021484 0.500000
vt 0.021484 0.500000
vt 0.009766 0.500000
vt 0.009766 0.500000
vt 0.009766 0.500000
vt 0.009766 0.500000
vt 0.951172 0.500000
vt 0.951172 0.500000
vt 0.951172 0.500000
vt 0.951172 0.500000
vt 0.951172 0.500000
vt 0.951172 0.500000
vt 0.951172 0.500000
vt 0.951172 0.500000
vt 0.951172 0.500000
vt 0.951172 0.500000
vt 0.951172 0.500000
vt 0.951172 0.500000
vt 0.951172 0.500000
vt 0.951172 0.500000
vt 0.951172 0.500000
vt 0.951172 0.500000
vt 0.951172 0.500000
vt 0.951172 0.500000
vt 0.951172 0.500000
vt 0.951172 0.500000
vt 0.951172 0.500000
vt 0.951172 0.500000
vt 0.951172 0.500000
vt 0.951172 0.500000
vt 0.951172 0.500000
vt 0.951172 0.500000
vt 0.951172 0.500000
vt 0.951172 0.500000
vt 0.951172 0.500000
vt 0.951172 0.500000
vt 0.951172 0.500000
vt 0.951172 0.500000
vt 0.951172 0.500000
vt 0.951172 0.500000
vt 0.951172 0.500000
vt 0.951172 0.500000
vt 0.951172 0.500000
vt 0.951172 0.500000
vt 0.951172 0.500000
vt 0.951172 0.500000
vt 0.951172 0.500000
vt 0.951172 0.500000
vt 0.951172 0.500000
vt 0.951172 0.500000
vt 0.951172 0.500000
vt 0.951172 0.500000
vt 0.951172 0.500000
vt 0.951172 0.500000
vt 0.951172 0.500000
vt 0.951172 0.500000
vt 0.951172 0.500000
vt 0.951172 0.500000
vt 0.951172 0.500000
vt 0.951172 0.500000
vt 0.951172 0.500000
vt 0.951172 0.500000
vt 0.951172 0.500000
vt 0.951172 0.500000
vt 0.951172 0.500000
vt 0.951172 0.500000
vt 0.951172 0.500000
vt 0.951172 0.500000
vt 0.951172 0.500000
vt 0.951172 0.500000
vt 0.951172 0.500000
vt 0.951172 0.500000
vt 0.951172 0.500000
vt 0.951172 0.500000
vt 0.951172 0.500000
vt 0.951172 0.500000
vt 0.951172 0.500000
vt 0.951172 0.500000
vt 0.951172 0.500000
vt 0.951172 0.500000
vt 0.951172 0.500000
vt 0.951172 0.500000
vt 0.951172 0.500000
vt 0.951172 0.500000
vt 0.068359 0.500000
vt 0.068359 0.500000
vt 0.068359 0.500000
vt 0.068359 0.500000
vt 0.068359 0.500000
vt 0.068359 0.500000
vt 0.068359 0.500000
vt 0.021484 0.500000
vt 0.021484 0.500000
vt 0.021484 0.500000
vt 0.068359 0.500000
vt 0.041016 0.500000
vt 0.041016 0.500000
vt 0.041016 0.500000
vt 0.021484 0.500000
vt 0.041016 0.500000
vt 0.041016 0.500000
vt 0.041016 0.500000
vt 0.041016 0.500000
vt 0.041016 0.500000
vt 0.041016 0.500000
vt 0.013672 0.500000
vt 0.013672 0.500000
vt 0.013672 0.500000
vt 0.041016 0.500000
vt 0.021484 0.500000
vt 0.013672 0.500000
vt 0.806641 0.500000
vt 0.806641 0.500000
vt 0.806641 0.500000
vt 0.021484 0.500000
vt 0.810547 0.500000
vt 0.810547 0.500000
vt 0.810547 0.500000
vt 0.806641 0.500000
vt 0.068359 0.500000
vt 0.068359 0.500000
vt 0.068359 0.500000
vt 0.810547 0.500000
vt 0.068359 0.500000
vt 0.013672 0.500000
vt 0.013672 0.500000
vt 0.591797 0.500000
vt 0.591797 0.500000
vt 0.591797 0.500000
vt 0.013672 0.500000
vt 0.013672 0.500000
vt 0.013672 0.500000
vt 0.591797 0.500000
vt 0.021484 0.500000
vt 0.021484 0.500000
vt 0.013672 0.500000
vt 0.009766 0.500000
vt 0.009766 0.500000
vt 0.009766 0.500000
vt 0.021484 0.500000
vt 0.009766 0.500000
vt 0.009766 0.500000
vt 0.021484 0.500000
vt 0.021484 0.500000
vt 0.021484 0.500000
vt 0.009766 0.500000
vt 0.021484 0.500000
vt 0.068359 0.500000
vt 0.068359 0.500000
vt 0.068359 0.500000
vt 0.615234 0.500000
vt 0.615234 0.500000
vt 0.615234 0.500000
vt 0.068359 0.500000
vt 0.013672 0.500000
vt 0.615234 0.500000
vt 0.615234 0.500000
vt 0.615234 0.500000
vt 0.615234 0.500000
vt 0.009766 0.500000
vt 0.009766 0.500000
vt 0.591797 0.500000
vt 0.591797 0.500000
vt 0.591797 0.500000
vt 0.615234 0.500000
vt 0.009766 0.500000
vt 0.009766 0.500000
vt 0.591797 0.500000
vt 0.009766 0.500000
vt 0.068359 0.500000
vt 0.068359 0.500000
vt 0.013672 0.500000
vt 0.068359 0.500000
vt 0.009766 0.500000
vt 0.013672 0.500000
vt 0.591797 0.500000
vt 0.591797 0.500000
vt 0.009766 0.500000
vt 0.068359 0.500000
vt 0.068359 0.500000
vt 0.068359 0.500000
vt 0.591797 0.500000
vt 0.068359 0.500000
vt 0.021484 0.500000
vt 0.021484 0.500000
vt 0.021484 0.500000
vt 0.021484 0.500000
vt 0.009766 0.500000
vt 0.009766 0.500000
vt 0.009766 0.500000
vn -1.0000 0.0000 0.0000
vn 1.0000 0.0000 0.0000
vn 0.0000 0.0000 1.0000
vn 0.0000 0.0000 -1.0000
vn 0.0000 -1.0000 0.0000
vn 0.0000 1.0000 0.0000
usemtl palette.007
s 1
f 1/1/1 2/2/1 3/3/1
f 4/4/1 2/2/1 1/1/1
f 5/5/1 6/6/1 7/7/1
f 8/8/1 6/6/1 5/5/1
f 9/9/1 10/10/1 11/11/1
f 12/12/1 10/10/1 9/9/1
f 13/13/1 14/14/1 15/15/1
f 16/16/1 17/17/1 14/18/1
f 16/19/1 14/14/1 13/13/1
f 18/20/1 19/21/1 17/22/1
f 18/23/1 17/17/1 16/16/1
f 20/24/1 19/21/1 18/20/1
f 21/25/1 22/26/1 23/27/1
f 24/28/1 22/26/1 21/25/1
f 25/29/1 26/30/1 27/31/1
f 28/32/1 26/30/1 25/29/1
f 29/33/1 30/34/1 31/35/1
f 32/36/1 30/34/1 29/33/1
f 33/37/1 34/38/1 35/39/1
f 36/40/1 34/38/1 33/37/1
f 37/41/1 38/42/1 39/43/1
f 40/44/1 38/42/1 37/41/1
f 41/45/1 42/46/1 43/47/1
f 44/48/1 42/46/1 41/45/1
f 45/49/1 46/50/1 47/51/1
f 48/52/1 46/50/1 45/49/1
f 49/53/2 50/54/2 51/55/2
f 51/55/2 50/54/2 52/56/2
f 53/57/2 54/58/2 55/59/2
f 55/59/2 54/58/2 56/60/2
f 57/61/2 58/62/2 59/63/2
f 59/63/2 58/62/2 60/64/2
f 61/65/2 62/66/2 63/67/2
f 63/67/2 62/66/2 64/68/2
f 65/69/2 66/70/2 67/71/2
f 67/71/2 66/70/2 68/72/2
f 69/73/2 70/74/2 71/75/2
f 71/75/2 70/74/2 72/76/2
f 73/77/2 74/78/2 75/79/2
f 75/79/2 74/78/2 76/80/2
f 77/81/2 78/82/2 79/83/2
f 79/83/2 78/82/2 80/84/2
f 81/85/2 82/86/2 83/87/2
f 83/87/2 82/86/2 84/88/2
f 85/89/2 86/90/2 87/91/2
f 87/91/2 86/90/2 88/92/2
f 89/93/2 90/94/2 91/95/2
f 90/96/2 92/97/2 93/98/2
f 91/95/2 90/94/2 93/99/2
f 93/98/2 92/97/2 94/100/2
f 95/101/2 96/102/2 97/103/2
f 97/103/2 96/102/2 98/104/2
f 99/105/3 100/106/3 101/107/3
f 102/108/3 100/106/3 99/105/3
f 103/109/3 104/110/3 105/111/3
f 106/112/3 104/110/3 103/109/3
f 107/113/3 108/114/3 109/115/3
f 110/116/3 108/114/3 107/113/3
f 111/117/3 112/118/3 113/119/3
f 114/120/3 112/118/3 111/117/3
f 115/121/3 116/122/3 117/123/3
f 118/124/3 116/122/3 115/121/3
f 119/125/3 120/126/3 121/127/3
f 122/128/3 120/126/3 119/125/3
f 123/129/3 122/130/3 119/131/3
f 124/132/3 122/130/3 123/129/3
f 125/133/3 126/134/3 127/135/3
f 128/136/3 126/134/3 125/133/3
f 129/137/3 130/138/3 131/139/3
f 132/140/3 130/138/3 129/137/3
f 133/141/3 134/142/3 135/143/3
f 136/144/3 134/142/3 133/141/3
f 137/145/3 138/146/3 139/147/3
f 140/148/3 138/146/3 137/145/3
f 141/149/3 142/150/3 143/151/3
f 144/152/3 142/150/3 141/149/3
f 145/153/4 146/154/4 147/155/4
f 147/155/4 146/154/4 148/156/4
f 149/157/4 150/158/4 151/159/4
f 151/159/4 150/158/4 152/160/4
f 153/161/4 154/162/4 155/163/4
f 155/163/4 154/162/4 156/164/4
f 157/165/4 158/166/4 159/167/4
f 159/167/4 158/166/4 160/168/4
f 161/169/4 162/170/4 163/171/4
f 163/171/4 162/170/4 164/172/4
f 165/173/4 166/174/4 167/175/4
f 167/175/4 166/174/4 168/176/4
f 169/177/4 170/178/4 171/179/4
f 171/179/4 170/178/4 172/180/4
f 173/181/4 174/182/4 175/183/4
f 175/183/4 174/182/4 176/184/4
f 177/185/4 178/186/4 179/187/4
f 179/187/4 178/186/4 180/188/4
f 181/189/4 182/190/4 183/191/4
f 183/191/4 182/190/4 184/192/4
f 185/193/4 186/194/4 187/195/4
f 187/195/4 186/194/4 188/196/4
f 189/197/4 190/198/4 191/199/4
f 191/199/4 190/198/4 192/200/4
f 193/201/5 194/202/5 195/203/5
f 196/204/5 194/202/5 193/201/5
f 197/205/5 193/201/5 198/206/5
f 197/205/5 199/207/5 196/204/5
f 197/205/5 196/204/5 193/201/5
f 200/208/5 199/207/5 197/205/5
f 201/209/5 197/205/5 202/210/5
f 201/209/5 203/211/5 200/208/5
f 201/209/5 200/208/5 197/205/5
f 204/212/5 203/211/5 201/209/5
f 205/213/5 203/211/5 204/212/5
f 206/214/5 203/211/5 205/213/5
f 207/215/5 205/213/5 204/212/5
f 208/216/5 205/213/5 207/215/5
f 209/217/5 205/213/5 208/216/5
f 210/218/5 205/213/5 209/217/5
f 211/219/5 209/217/5 208/216/5
f 212/220/5 209/217/5 211/219/5
f 213/221/6 214/222/6 215/223/6
f 215/223/6 214/222/6 216/224/6
f 216/224/6 214/222/6 217/225/6
f 217/225/6 214/222/6 218/226/6
f 219/227/6 215/223/6 220/228/6
f 215/223/6 216/224/6 220/228/6
f 220/228/6 216/224/6 221/229/6
f 221/229/6 216/224/6 222/230/6
f 222/230/6 216/224/6 223/231/6
f 217/225/6 218/226/6 224/232/6
f 218/226/6 225/233/6 224/232/6
f 224/232/6 225/233/6 226/234/6
f 226/234/6 225/233/6 227/235/6
f 228/236/6 220/228/6 229/237/6
f 220/228/6 221/229/6 229/237/6
f 229/237/6 221/229/6 230/238/6
f 227/235/6 231/239/6 232/240/6
f 226/234/6 227/235/6 232/240/6
f 232/240/6 231/239/6 233/241/6
f 228/236/6 229/237/6 234/242/6
f 233/241/6 231/239/6 235/243/6
f 235/243/6 231/239/6 236/244/6
f 228/236/6 234/242/6 237/245/6
f 236/244/6 231/239/6 238/246/6
f 228/236/6 237/245/6 239/247/6
f 238/246/6 231/239/6 240/248/6
f 239/247/6 241/249/6 242/250/6
f 228/236/6 239/247/6 242/250/6
f 242/250/6 241/249/6 243/251/6
f 243/251/6 241/249/6 244/252/6
f 245/253/6 240/248/6 246/254/6
f 240/248/6 231/239/6 247/255/6
f 246/254/6 240/248/6 247/255/6
f 247/255/6 231/239/6 248/256/6
f 243/251/6 244/252/6 249/257/6
f 244/252/6 250/258/6 249/257/6
f 249/257/6 250/258/6 251/259/6
f 251/259/6 250/258/6 252/260/6
f 253/261/6 254/262/6 255/263/6
f 255/263/6 254/262/6 256/264/6
f 257/265/6 246/254/6 258/266/6
f 246/254/6 247/255/6 258/266/6
f 258/266/6 247/255/6 259/267/6
f 259/267/6 247/255/6 260/268/6
f 251/259/6 252/260/6 261/269/6
f 255/263/6 256/264/6 261/269/6
f 258/266/6 259/267/6 261/269/6
f 256/264/6 258/266/6 261/269/6
f 252/260/6 255/263/6 261/269/6
f 261/269/6 259/267/6 262/270/6
f 263/271/6 264/272/6 265/273/6
f 265/273/6 264/272/6 266/274/6
f 267/275/6 268/276/6 269/277/6
f 268/278/6 265/279/6 270/280/6
f 269/277/6 268/276/6 270/281/6
f 266/282/6 271/283/6 272/284/6
f 270/280/6 265/279/6 272/285/6
f 265/286/6 266/282/6 272/284/6
f 272/284/6 271/283/6 273/287/6
f 273/287/6 271/283/6 274/288/6
f 275/289/6 269/290/6 276/291/6
f 269/292/6 270/293/6 277/294/6
f 276/291/6 269/290/6 277/295/6
f 270/280/6 272/285/6 278/296/6
f 277/294/6 270/293/6 278/297/6
f 272/298/6 273/299/6 279/300/6
f 278/296/6 272/285/6 279/301/6
f 273/302/6 274/303/6 280/304/6
f 279/300/6 273/299/6 280/305/6
f 274/306/6 281/307/6 282/308/6
f 280/304/6 274/303/6 282/309/6
f 282/308/6 281/307/6 283/310/6
f 276/311/6 277/294/6 284/312/6
f 277/313/6 278/314/6 285/315/6
f 284/312/6 277/294/6 285/316/6
f 278/297/6 279/317/6 286/318/6
f 285/315/6 278/314/6 286/319/6
f 279/301/6 280/320/6 287/321/6
f 286/318/6 279/317/6 287/322/6
f 280/323/6 282/324/6 288/325/6
f 287/321/6 280/320/6 288/326/6
f 282/324/6 283/327/6 288/325/6
f 288/325/6 283/327/6 289/328/6
f 283/329/6 290/330/6 291/331/6
f 289/328/6 283/327/6 291/332/6
f 291/331/6 290/330/6 292/333/6
f 284/334/6 285/335/6 293/336/6
f 285/337/6 286/338/6 294/339/6
f 293/336/6 285/335/6 294/340/6
f 286/318/6 287/322/6 295/341/6
f 294/339/6 286/338/6 295/342/6
f 288/343/6 289/344/6 296/345/6
f 287/346/6 288/325/6 296/347/6
f 289/348/6 291/349/6 297/350/6
f 296/345/6 289/344/6 297/351/6
f 291/332/6 292/352/6 298/353/6
f 297/350/6 291/349/6 298/354/6
f 298/353/6 292/352/6 299/355/6
f 294/340/6 295/356/6 300/357/6
f 295/341/6 287/322/6 301/358/6
f 300/357/6 295/356/6 301/359/6
f 287/346/6 296/347/6 302/360/6
f 301/358/6 287/322/6 302/361/6
f 296/362/6 297/350/6 303/363/6
f 302/360/6 296/347/6 303/364/6
f 297/365/6 298/366/6 304/367/6
f 303/363/6 297/350/6 304/368/6
f 304/367/6 298/366/6 305/369/6
f 301/370/6 302/371/6 306/372/6
f 306/372/6 302/371/6 307/373/6
f 303/364/6 304/374/6 308/375/6
f 308/375/6 304/374/6 309/376/6
