# Blender v2.82 (sub 7) OBJ File: ''
# www.blender.org
mtllib LifeObjectBlue.mtl
o ObjObject.010
v -0.450000 0.100000 0.250000
v -0.450000 0.000000 -0.250000
v -0.450000 0.000000 0.250000
v -0.450000 0.100000 -0.250000
v -0.350000 0.100000 0.350000
v -0.350000 0.000000 0.250000
v -0.350000 0.000000 0.350000
v -0.350000 0.100000 0.250000
v -0.350000 0.100000 -0.250000
v -0.350000 0.000000 -0.350000
v -0.350000 0.000000 -0.250000
v -0.350000 0.100000 -0.350000
v -0.350000 0.200000 0.150000
v -0.350000 0.100000 0.050000
v -0.350000 0.100000 0.150000
v -0.350000 0.200000 0.050000
v -0.350000 0.100000 -0.050000
v -0.350000 0.200000 -0.050000
v -0.350000 0.100000 -0.150000
v -0.350000 0.200000 -0.150000
v -0.250000 0.100000 0.450000
v -0.250000 0.000000 0.350000
v -0.250000 0.000000 0.450000
v -0.250000 0.100000 0.350000
v -0.250000 0.100000 -0.350000
v -0.250000 0.000000 -0.450000
v -0.250000 0.000000 -0.350000
v -0.250000 0.100000 -0.450000
v -0.250000 0.200000 0.250000
v -0.250000 0.100000 0.150000
v -0.250000 0.100000 0.250000
v -0.250000 0.200000 0.150000
v -0.150000 0.200000 0.350000
v -0.150000 0.100000 0.250000
v -0.150000 0.100000 0.350000
v -0.150000 0.200000 0.250000
v -0.150000 0.200000 -0.050000
v -0.150000 0.100000 -0.150000
v -0.150000 0.100000 -0.050000
v -0.150000 0.200000 -0.150000
v -0.150000 0.100000 -0.250000
v -0.150000 0.200000 -0.250000
v -0.050000 0.200000 -0.250000
v -0.050000 0.100000 -0.350000
v -0.050000 0.100000 -0.250000
v -0.050000 0.200000 -0.350000
v 0.150000 0.200000 -0.150000
v 0.150000 0.100000 -0.250000
v 0.150000 0.100000 -0.150000
v 0.150000 0.200000 -0.250000
v -0.250000 0.100000 -0.050000
v -0.250000 0.100000 -0.150000
v -0.250000 0.200000 -0.050000
v -0.250000 0.200000 -0.150000
v 0.050000 0.100000 -0.150000
v 0.050000 0.100000 -0.350000
v 0.050000 0.200000 -0.150000
v 0.050000 0.200000 -0.350000
v 0.150000 0.100000 0.350000
v 0.150000 0.100000 0.250000
v 0.150000 0.200000 0.350000
v 0.150000 0.200000 0.250000
v 0.250000 0.000000 0.450000
v 0.250000 0.000000 0.350000
v 0.250000 0.100000 0.450000
v 0.250000 0.100000 0.350000
v 0.250000 0.000000 -0.350000
v 0.250000 0.000000 -0.450000
v 0.250000 0.100000 -0.350000
v 0.250000 0.100000 -0.450000
v 0.250000 0.100000 0.250000
v 0.250000 0.100000 0.150000
v 0.250000 0.200000 0.250000
v 0.250000 0.200000 0.150000
v 0.250000 0.100000 -0.050000
v 0.250000 0.100000 -0.150000
v 0.250000 0.200000 -0.050000
v 0.250000 0.100000 -0.250000
v 0.250000 0.200000 -0.150000
v 0.250000 0.200000 -0.250000
v 0.350000 0.000000 0.350000
v 0.350000 0.000000 0.250000
v 0.350000 0.100000 0.350000
v 0.350000 0.100000 0.250000
v 0.350000 0.000000 -0.250000
v 0.350000 0.000000 -0.350000
v 0.350000 0.100000 -0.250000
v 0.350000 0.100000 -0.350000
v 0.350000 0.100000 0.150000
v 0.350000 0.100000 0.050000
v 0.350000 0.200000 0.150000
v 0.350000 0.100000 -0.050000
v 0.350000 0.200000 0.050000
v 0.350000 0.200000 -0.050000
v 0.450000 0.000000 0.250000
v 0.450000 0.000000 -0.250000
v 0.450000 0.100000 0.250000
v 0.450000 0.100000 -0.250000
v 0.250000 0.000000 0.450000
v -0.250000 0.100000 0.450000
v -0.250000 0.000000 0.450000
v 0.250000 0.100000 0.450000
v -0.250000 0.000000 0.350000
v -0.350000 0.100000 0.350000
v -0.350000 0.000000 0.350000
v -0.250000 0.100000 0.350000
v -0.050000 0.100000 0.350000
v -0.150000 0.200000 0.350000
v -0.150000 0.100000 0.350000
v -0.050000 0.200000 0.350000
v 0.050000 0.100000 0.350000
v 0.050000 0.200000 0.350000
v 0.150000 0.100000 0.350000
v 0.150000 0.200000 0.350000
v 0.350000 0.000000 0.350000
v 0.250000 0.100000 0.350000
v 0.250000 0.000000 0.350000
v 0.350000 0.100000 0.350000
v -0.350000 0.000000 0.250000
v -0.450000 0.100000 0.250000
v -0.450000 0.000000 0.250000
v -0.350000 0.100000 0.250000
v -0.150000 0.100000 0.250000
v -0.250000 0.200000 0.250000
v -0.250000 0.100000 0.250000
v -0.150000 0.200000 0.250000
v 0.250000 0.100000 0.250000
v 0.150000 0.200000 0.250000
v 0.150000 0.100000 0.250000
v 0.250000 0.200000 0.250000
v 0.450000 0.000000 0.250000
v 0.350000 0.100000 0.250000
v 0.350000 0.000000 0.250000
v 0.450000 0.100000 0.250000
v -0.250000 0.100000 0.150000
v -0.350000 0.200000 0.150000
v -0.350000 0.100000 0.150000
v -0.250000 0.200000 0.150000
v 0.350000 0.100000 0.150000
v 0.250000 0.200000 0.150000
v 0.250000 0.100000 0.150000
v 0.350000 0.200000 0.150000
v -0.250000 0.100000 -0.050000
v -0.250000 0.200000 -0.050000
v -0.150000 0.100000 -0.050000
v -0.150000 0.200000 -0.050000
v 0.250000 0.100000 -0.050000
v 0.250000 0.200000 -0.050000
v 0.350000 0.100000 -0.050000
v 0.350000 0.200000 -0.050000
v -0.350000 0.100000 -0.150000
v -0.350000 0.200000 -0.150000
v -0.250000 0.100000 -0.150000
v -0.250000 0.200000 -0.150000
v 0.050000 0.100000 -0.150000
v 0.050000 0.200000 -0.150000
v 0.150000 0.100000 -0.150000
v 0.150000 0.200000 -0.150000
v -0.450000 0.000000 -0.250000
v -0.450000 0.100000 -0.250000
v -0.350000 0.000000 -0.250000
v -0.350000 0.100000 -0.250000
v -0.150000 0.100000 -0.250000
v -0.150000 0.200000 -0.250000
v -0.050000 0.100000 -0.250000
v -0.050000 0.200000 -0.250000
v 0.150000 0.100000 -0.250000
v 0.150000 0.200000 -0.250000
v 0.250000 0.100000 -0.250000
v 0.250000 0.200000 -0.250000
v 0.350000 0.000000 -0.250000
v 0.350000 0.100000 -0.250000
v 0.450000 0.000000 -0.250000
v 0.450000 0.100000 -0.250000
v -0.350000 0.000000 -0.350000
v -0.350000 0.100000 -0.350000
v -0.250000 0.000000 -0.350000
v -0.250000 0.100000 -0.350000
v -0.050000 0.100000 -0.350000
v -0.050000 0.200000 -0.350000
v 0.050000 0.100000 -0.350000
v 0.050000 0.200000 -0.350000
v 0.250000 0.000000 -0.350000
v 0.250000 0.100000 -0.350000
v 0.350000 0.000000 -0.350000
v 0.350000 0.100000 -0.350000
v -0.250000 0.000000 -0.450000
v -0.250000 0.100000 -0.450000
v 0.250000 0.000000 -0.450000
v 0.250000 0.100000 -0.450000
v -0.250000 0.000000 0.350000
v 0.250000 0.000000 0.450000
v -0.250000 0.000000 0.450000
v 0.250000 0.000000 0.350000
v -0.350000 0.000000 0.250000
v -0.350000 0.000000 0.350000
v 0.350000 0.000000 0.350000
v 0.350000 0.000000 0.250000
v -0.450000 0.000000 -0.250000
v -0.450000 0.000000 0.250000
v 0.450000 0.000000 0.250000
v -0.350000 0.000000 -0.250000
v 0.350000 0.000000 -0.250000
v 0.450000 0.000000 -0.250000
v -0.350000 0.000000 -0.350000
v -0.250000 0.000000 -0.350000
v 0.250000 0.000000 -0.350000
v 0.350000 0.000000 -0.350000
v -0.250000 0.000000 -0.450000
v 0.250000 0.000000 -0.450000
v -0.250000 0.100000 0.450000
v 0.250000 0.100000 0.450000
v -0.250000 0.100000 0.350000
v -0.150000 0.100000 0.350000
v -0.050000 0.100000 0.350000
v 0.050000 0.100000 0.350000
v 0.150000 0.100000 0.350000
v 0.250000 0.100000 0.350000
v -0.350000 0.100000 0.350000
v -0.350000 0.100000 0.250000
v -0.250000 0.100000 0.250000
v -0.150000 0.100000 0.250000
v 0.150000 0.100000 0.250000
v 0.350000 0.100000 0.350000
v 0.250000 0.100000 0.250000
v 0.350000 0.100000 0.250000
v -0.350000 0.100000 0.150000
v -0.450000 0.100000 0.250000
v -0.250000 0.100000 0.150000
v 0.450000 0.100000 0.250000
v 0.250000 0.100000 0.150000
v 0.350000 0.100000 0.150000
v -0.350000 0.100000 0.050000
v 0.350000 0.100000 0.050000
v -0.350000 0.100000 -0.050000
v 0.350000 0.100000 -0.050000
v -0.350000 0.100000 -0.150000
v -0.250000 0.100000 -0.050000
v -0.150000 0.100000 -0.050000
v -0.250000 0.100000 -0.150000
v -0.150000 0.100000 -0.150000
v 0.250000 0.100000 -0.050000
v 0.250000 0.100000 -0.150000
v -0.450000 0.100000 -0.250000
v -0.350000 0.100000 -0.250000
v -0.150000 0.100000 -0.250000
v 0.050000 0.100000 -0.150000
v 0.150000 0.100000 -0.150000
v 0.150000 0.100000 -0.250000
v 0.250000 0.100000 -0.250000
v 0.350000 0.100000 -0.250000
v 0.450000 0.100000 -0.250000
v -0.050000 0.100000 -0.250000
v -0.350000 0.100000 -0.350000
v -0.250000 0.100000 -0.350000
v -0.050000 0.100000 -0.350000
v 0.050000 0.100000 -0.350000
v 0.250000 0.100000 -0.350000
v 0.350000 0.100000 -0.350000
v -0.250000 0.100000 -0.450000
v 0.250000 0.100000 -0.450000
v -0.150000 0.200000 0.350000
v -0.050000 0.200000 0.350000
v -0.150000 0.200000 0.250000
v 0.050000 0.200000 0.350000
v -0.050000 0.200000 0.250000
v 0.150000 0.200000 0.350000
v 0.050000 0.200000 0.250000
v 0.150000 0.200000 0.250000
v -0.250000 0.200000 0.250000
v -0.250000 0.200000 0.150000
v -0.150000 0.200000 0.150000
v -0.050000 0.200000 0.150000
v 0.250000 0.200000 0.250000
v 0.150000 0.200000 0.150000
v 0.250000 0.200000 0.150000
v -0.350000 0.200000 0.150000
v -0.350000 0.200000 0.050000
v -0.250000 0.200000 0.050000
v -0.150000 0.200000 0.050000
v -0.050000 0.200000 0.050000
v 0.150000 0.200000 0.050000
v 0.350000 0.200000 0.150000
v 0.250000 0.200000 0.050000
v 0.350000 0.200000 0.050000
v -0.350000 0.200000 -0.050000
v -0.250000 0.200000 -0.050000
v -0.150000 0.200000 -0.050000
v -0.050000 0.200000 -0.050000
v 0.050000 0.200000 -0.050000
v 0.150000 0.200000 -0.050000
v 0.250000 0.200000 -0.050000
v 0.350000 0.200000 -0.050000
v -0.350000 0.200000 -0.150000
v -0.250000 0.200000 -0.150000
v -0.150000 0.200000 -0.150000
v -0.050000 0.200000 -0.150000
v 0.050000 0.200000 -0.150000
v 0.150000 0.200000 -0.150000
v 0.250000 0.200000 -0.150000
v -0.150000 0.200000 -0.250000
v -0.050000 0.200000 -0.250000
v 0.150000 0.200000 -0.250000
v 0.250000 0.200000 -0.250000
v -0.050000 0.200000 -0.350000
v 0.050000 0.200000 -0.350000
vt 0.951172 0.500000
vt 0.951172 0.500000
vt 0.951172 0.500000
vt 0.951172 0.500000
vt 0.951172 0.500000
vt 0.951172 0.500000
vt 0.951172 0.500000
vt 0.951172 0.500000
vt 0.951172 0.500000
vt 0.951172 0.500000
vt 0.951172 0.500000
vt 0.951172 0.500000
vt 0.931641 0.500000
vt 0.931641 0.500000
vt 0.931641 0.500000
vt 0.779297 0.500000
vt 0.779297 0.500000
vt 0.779297 0.500000
vt 0.931641 0.500000
vt 0.939453 0.500000
vt 0.939453 0.500000
vt 0.939453 0.500000
vt 0.779297 0.500000
vt 0.939453 0.500000
vt 0.951172 0.500000
vt 0.951172 0.500000
vt 0.951172 0.500000
vt 0.951172 0.500000
vt 0.951172 0.500000
vt 0.951172 0.500000
vt 0.951172 0.500000
vt 0.951172 0.500000
vt 0.939453 0.500000
vt 0.939453 0.500000
vt 0.939453 0.500000
vt 0.939453 0.500000
vt 0.650391 0.500000
vt 0.650391 0.500000
vt 0.650391 0.500000
vt 0.650391 0.500000
vt 0.779297 0.500000
vt 0.779297 0.500000
vt 0.779297 0.500000
vt 0.931641 0.500000
vt 0.931641 0.500000
vt 0.931641 0.500000
vt 0.779297 0.500000
vt 0.931641 0.500000
vt 0.939453 0.500000
vt 0.939453 0.500000
vt 0.939453 0.500000
vt 0.939453 0.500000
vt 0.939453 0.500000
vt 0.939453 0.500000
vt 0.939453 0.500000
vt 0.939453 0.500000
vt 0.939453 0.500000
vt 0.939453 0.500000
vt 0.939453 0.500000
vt 0.939453 0.500000
vt 0.939453 0.500000
vt 0.939453 0.500000
vt 0.939453 0.500000
vt 0.939453 0.500000
vt 0.939453 0.500000
vt 0.939453 0.500000
vt 0.939453 0.500000
vt 0.939453 0.500000
vt 0.951172 0.500000
vt 0.951172 0.500000
vt 0.951172 0.500000
vt 0.951172 0.500000
vt 0.951172 0.500000
vt 0.951172 0.500000
vt 0.951172 0.500000
vt 0.951172 0.500000
vt 0.923828 0.500000
vt 0.923828 0.500000
vt 0.923828 0.500000
vt 0.923828 0.500000
vt 0.283203 0.500000
vt 0.283203 0.500000
vt 0.283203 0.500000
vt 0.939453 0.500000
vt 0.939453 0.500000
vt 0.939453 0.500000
vt 0.283203 0.500000
vt 0.939453 0.500000
vt 0.951172 0.500000
vt 0.951172 0.500000
vt 0.951172 0.500000
vt 0.951172 0.500000
vt 0.951172 0.500000
vt 0.951172 0.500000
vt 0.951172 0.500000
vt 0.951172 0.500000
vt 0.939453 0.500000
vt 0.939453 0.500000
vt 0.939453 0.500000
vt 0.779297 0.500000
vt 0.779297 0.500000
vt 0.779297 0.500000
vt 0.939453 0.500000
vt 0.779297 0.500000
vt 0.951172 0.500000
vt 0.951172 0.500000
vt 0.951172 0.500000
vt 0.951172 0.500000
vt 0.951172 0.500000
vt 0.951172 0.500000
vt 0.951172 0.500000
vt 0.951172 0.500000
vt 0.951172 0.500000
vt 0.951172 0.500000
vt 0.951172 0.500000
vt 0.951172 0.500000
vt 0.650391 0.500000
vt 0.650391 0.500000
vt 0.650391 0.500000
vt 0.650391 0.500000
vt 0.923828 0.500000
vt 0.923828 0.500000
vt 0.923828 0.500000
vt 0.923828 0.500000
vt 0.939453 0.500000
vt 0.939453 0.500000
vt 0.939453 0.500000
vt 0.939453 0.500000
vt 0.951172 0.500000
vt 0.951172 0.500000
vt 0.951172 0.500000
vt 0.951172 0.500000
vt 0.951172 0.500000
vt 0.951172 0.500000
vt 0.951172 0.500000
vt 0.951172 0.500000
vt 0.939453 0.500000
vt 0.939453 0.500000
vt 0.939453 0.500000
vt 0.939453 0.500000
vt 0.923828 0.500000
vt 0.923828 0.500000
vt 0.923828 0.500000
vt 0.923828 0.500000
vt 0.951172 0.500000
vt 0.951172 0.500000
vt 0.951172 0.500000
vt 0.951172 0.500000
vt 0.931641 0.500000
vt 0.931641 0.500000
vt 0.931641 0.500000
vt 0.931641 0.500000
vt 0.939453 0.500000
vt 0.939453 0.500000
vt 0.939453 0.500000
vt 0.939453 0.500000
vt 0.291016 0.500000
vt 0.291016 0.500000
vt 0.291016 0.500000
vt 0.291016 0.500000
vt 0.779297 0.500000
vt 0.779297 0.500000
vt 0.779297 0.500000
vt 0.779297 0.500000
vt 0.939453 0.500000
vt 0.939453 0.500000
vt 0.939453 0.500000
vt 0.939453 0.500000
vt 0.298828 0.500000
vt 0.298828 0.500000
vt 0.298828 0.500000
vt 0.298828 0.500000
vt 0.951172 0.500000
vt 0.951172 0.500000
vt 0.951172 0.500000
vt 0.951172 0.500000
vt 0.931641 0.500000
vt 0.931641 0.500000
vt 0.931641 0.500000
vt 0.931641 0.500000
vt 0.939453 0.500000
vt 0.939453 0.500000
vt 0.939453 0.500000
vt 0.939453 0.500000
vt 0.951172 0.500000
vt 0.951172 0.500000
vt 0.951172 0.500000
vt 0.951172 0.500000
vt 0.951172 0.500000
vt 0.951172 0.500000
vt 0.951172 0.500000
vt 0.951172 0.500000
vt 0.939453 0.500000
vt 0.939453 0.500000
vt 0.939453 0.500000
vt 0.939453 0.500000
vt 0.951172 0.500000
vt 0.951172 0.500000
vt 0.951172 0.500000
vt 0.951172 0.500000
vt 0.951172 0.500000
vt 0.951172 0.500000
vt 0.951172 0.500000
vt 0.951172 0.500000
vt 0.951172 0.500000
vt 0.951172 0.500000
vt 0.951172 0.500000
vt 0.951172 0.500000
vt 0.951172 0.500000
vt 0.951172 0.500000
vt 0.951172 0.500000
vt 0.951172 0.500000
vt 0.951172 0.500000
vt 0.951172 0.500000
vt 0.951172 0.500000
vt 0.951172 0.500000
vt 0.951172 0.500000
vt 0.951172 0.500000
vt 0.951172 0.500000
vt 0.951172 0.500000
vt 0.951172 0.500000
vt 0.951172 0.500000
vt 0.951172 0.500000
vt 0.951172 0.500000
vt 0.951172 0.500000
vt 0.951172 0.500000
vt 0.951172 0.500000
vt 0.951172 0.500000
vt 0.951172 0.500000
vt 0.951172 0.500000
vt 0.951172 0.500000
vt 0.951172 0.500000
vt 0.951172 0.500000
vt 0.951172 0.500000
vt 0.951172 0.500000
vt 0.951172 0.500000
vt 0.951172 0.500000
vt 0.951172 0.500000
vt 0.951172 0.500000
vt 0.951172 0.500000
vt 0.951172 0.500000
vt 0.951172 0.500000
vt 0.951172 0.500000
vt 0.951172 0.500000
vt 0.951172 0.500000
vt 0.951172 0.500000
vt 0.951172 0.500000
vt 0.951172 0.500000
vt 0.951172 0.500000
vt 0.951172 0.500000
vt 0.951172 0.500000
vt 0.951172 0.500000
vt 0.951172 0.500000
vt 0.951172 0.500000
vt 0.951172 0.500000
vt 0.951172 0.500000
vt 0.951172 0.500000
vt 0.951172 0.500000
vt 0.951172 0.500000
vt 0.951172 0.500000
vt 0.951172 0.500000
vt 0.951172 0.500000
vt 0.951172 0.500000
vt 0.951172 0.500000
vt 0.951172 0.500000
vt 0.951172 0.500000
vt 0.951172 0.500000
vt 0.951172 0.500000
vt 0.951172 0.500000
vt 0.951172 0.500000
vt 0.951172 0.500000
vt 0.951172 0.500000
vt 0.951172 0.500000
vt 0.951172 0.500000
vt 0.951172 0.500000
vt 0.650391 0.500000
vt 0.650391 0.500000
vt 0.650391 0.500000
vt 0.923828 0.500000
vt 0.923828 0.500000
vt 0.923828 0.500000
vt 0.650391 0.500000
vt 0.939453 0.500000
vt 0.939453 0.500000
vt 0.939453 0.500000
vt 0.923828 0.500000
vt 0.939453 0.500000
vt 0.939453 0.500000
vt 0.939453 0.500000
vt 0.939453 0.500000
vt 0.654297 0.500000
vt 0.654297 0.500000
vt 0.654297 0.500000
vt 0.939453 0.500000
vt 0.623047 0.500000
vt 0.623047 0.500000
vt 0.623047 0.500000
vt 0.654297 0.500000
vt 0.623047 0.500000
vt 0.923828 0.500000
vt 0.923828 0.500000
vt 0.923828 0.500000
vt 0.623047 0.500000
vt 0.923828 0.500000
vt 0.931641 0.500000
vt 0.931641 0.500000
vt 0.931641 0.500000
vt 0.779297 0.500000
vt 0.779297 0.500000
vt 0.779297 0.500000
vt 0.931641 0.500000
vt 0.779297 0.500000
vt 0.779297 0.500000
vt 0.931641 0.500000
vt 0.931641 0.500000
vt 0.931641 0.500000
vt 0.779297 0.500000
vt 0.779297 0.500000
vt 0.779297 0.500000
vt 0.779297 0.500000
vt 0.931641 0.500000
vt 0.939453 0.500000
vt 0.939453 0.500000
vt 0.939453 0.500000
vt 0.779297 0.500000
vt 0.939453 0.500000
vt 0.779297 0.500000
vt 0.779297 0.500000
vt 0.291016 0.500000
vt 0.291016 0.500000
vt 0.291016 0.500000
vt 0.779297 0.500000
vt 0.298828 0.500000
vt 0.298828 0.500000
vt 0.298828 0.500000
vt 0.291016 0.500000
vt 0.802734 0.500000
vt 0.802734 0.500000
vt 0.802734 0.500000
vt 0.298828 0.500000
vt 0.802734 0.500000
vt 0.291016 0.500000
vt 0.291016 0.500000
vt 0.291016 0.500000
vt 0.802734 0.500000
vt 0.779297 0.500000
vt 0.779297 0.500000
vt 0.291016 0.500000
vt 0.779297 0.500000
vt 0.939453 0.500000
vt 0.939453 0.500000
vt 0.939453 0.500000
vt 0.939453 0.500000
vt 0.779297 0.500000
vt 0.779297 0.500000
vt 0.779297 0.500000
vt 0.802734 0.500000
vt 0.779297 0.500000
vt 0.298828 0.500000
vt 0.298828 0.500000
vt 0.298828 0.500000
vt 0.802734 0.500000
vt 0.283203 0.500000
vt 0.283203 0.500000
vt 0.283203 0.500000
vt 0.298828 0.500000
vt 0.283203 0.500000
vt 0.931641 0.500000
vt 0.931641 0.500000
vt 0.931641 0.500000
vt 0.939453 0.500000
vt 0.939453 0.500000
vt 0.939453 0.500000
vt 0.931641 0.500000
vt 0.939453 0.500000
vt 0.939453 0.500000
vt 0.939453 0.500000
vt 0.939453 0.500000
vt 0.939453 0.500000
vt 0.939453 0.500000
vn -1.0000 0.0000 0.0000
vn 1.0000 0.0000 0.0000
vn 0.0000 0.0000 1.0000
vn 0.0000 0.0000 -1.0000
vn 0.0000 -1.0000 0.0000
vn 0.0000 1.0000 0.0000
usemtl palette.010
s 1
f 1/1/1 2/2/1 3/3/1
f 4/4/1 2/2/1 1/1/1
f 5/5/1 6/6/1 7/7/1
f 8/8/1 6/6/1 5/5/1
f 9/9/1 10/10/1 11/11/1
f 12/12/1 10/10/1 9/9/1
f 13/13/1 14/14/1 15/15/1
f 16/16/1 17/17/1 14/18/1
f 16/19/1 14/14/1 13/13/1
f 18/20/1 19/21/1 17/22/1
f 18/23/1 17/17/1 16/16/1
f 20/24/1 19/21/1 18/20/1
f 21/25/1 22/26/1 23/27/1
f 24/28/1 22/26/1 21/25/1
f 25/29/1 26/30/1 27/31/1
f 28/32/1 26/30/1 25/29/1
f 29/33/1 30/34/1 31/35/1
f 32/36/1 30/34/1 29/33/1
f 33/37/1 34/38/1 35/39/1
f 36/40/1 34/38/1 33/37/1
f 37/41/1 38/42/1 39/43/1
f 40/44/1 41/45/1 38/46/1
f 40/47/1 38/42/1 37/41/1
f 42/48/1 41/45/1 40/44/1
f 43/49/1 44/50/1 45/51/1
f 46/52/1 44/50/1 43/49/1
f 47/53/1 48/54/1 49/55/1
f 50/56/1 48/54/1 47/53/1
f 51/57/2 52/58/2 53/59/2
f 53/59/2 52/58/2 54/60/2
f 55/61/2 56/62/2 57/63/2
f 57/63/2 56/62/2 58/64/2
f 59/65/2 60/66/2 61/67/2
f 61/67/2 60/66/2 62/68/2
f 63/69/2 64/70/2 65/71/2
f 65/71/2 64/70/2 66/72/2
f 67/73/2 68/74/2 69/75/2
f 69/75/2 68/74/2 70/76/2
f 71/77/2 72/78/2 73/79/2
f 73/79/2 72/78/2 74/80/2
f 75/81/2 76/82/2 77/83/2
f 76/84/2 78/85/2 79/86/2
f 77/83/2 76/82/2 79/87/2
f 79/86/2 78/85/2 80/88/2
f 81/89/2 82/90/2 83/91/2
f 83/91/2 82/90/2 84/92/2
f 85/93/2 86/94/2 87/95/2
f 87/95/2 86/94/2 88/96/2
f 89/97/2 90/98/2 91/99/2
f 90/100/2 92/101/2 93/102/2
f 91/99/2 90/98/2 93/103/2
f 93/102/2 92/101/2 94/104/2
f 95/105/2 96/106/2 97/107/2
f 97/107/2 96/106/2 98/108/2
f 99/109/3 100/110/3 101/111/3
f 102/112/3 100/110/3 99/109/3
f 103/113/3 104/114/3 105/115/3
f 106/116/3 104/114/3 103/113/3
f 107/117/3 108/118/3 109/119/3
f 110/120/3 108/118/3 107/117/3
f 111/121/3 110/122/3 107/123/3
f 112/124/3 110/122/3 111/121/3
f 113/125/3 112/126/3 111/127/3
f 114/128/3 112/126/3 113/125/3
f 115/129/3 116/130/3 117/131/3
f 118/132/3 116/130/3 115/129/3
f 119/133/3 120/134/3 121/135/3
f 122/136/3 120/134/3 119/133/3
f 123/137/3 124/138/3 125/139/3
f 126/140/3 124/138/3 123/137/3
f 127/141/3 128/142/3 129/143/3
f 130/144/3 128/142/3 127/141/3
f 131/145/3 132/146/3 133/147/3
f 134/148/3 132/146/3 131/145/3
f 135/149/3 136/150/3 137/151/3
f 138/152/3 136/150/3 135/149/3
f 139/153/3 140/154/3 141/155/3
f 142/156/3 140/154/3 139/153/3
f 143/157/4 144/158/4 145/159/4
f 145/159/4 144/158/4 146/160/4
f 147/161/4 148/162/4 149/163/4
f 149/163/4 148/162/4 150/164/4
f 151/165/4 152/166/4 153/167/4
f 153/167/4 152/166/4 154/168/4
f 155/169/4 156/170/4 157/171/4
f 157/171/4 156/170/4 158/172/4
f 159/173/4 160/174/4 161/175/4
f 161/175/4 160/174/4 162/176/4
f 163/177/4 164/178/4 165/179/4
f 165/179/4 164/178/4 166/180/4
f 167/181/4 168/182/4 169/183/4
f 169/183/4 168/182/4 170/184/4
f 171/185/4 172/186/4 173/187/4
f 173/187/4 172/186/4 174/188/4
f 175/189/4 176/190/4 177/191/4
f 177/191/4 176/190/4 178/192/4
f 179/193/4 180/194/4 181/195/4
f 181/195/4 180/194/4 182/196/4
f 183/197/4 184/198/4 185/199/4
f 185/199/4 184/198/4 186/200/4
f 187/201/4 188/202/4 189/203/4
f 189/203/4 188/202/4 190/204/4
f 191/205/5 192/206/5 193/207/5
f 194/208/5 192/206/5 191/205/5
f 195/209/5 191/205/5 196/210/5
f 195/209/5 197/211/5 194/208/5
f 195/209/5 194/208/5 191/205/5
f 198/212/5 197/211/5 195/209/5
f 199/213/5 195/209/5 200/214/5
f 199/213/5 201/215/5 198/212/5
f 199/213/5 198/212/5 195/209/5
f 202/216/5 201/215/5 199/213/5
f 203/217/5 201/215/5 202/216/5
f 204/218/5 201/215/5 203/217/5
f 205/219/5 203/217/5 202/216/5
f 206/220/5 203/217/5 205/219/5
f 207/221/5 203/217/5 206/220/5
f 208/222/5 203/217/5 207/221/5
f 209/223/5 207/221/5 206/220/5
f 210/224/5 207/221/5 209/223/5
f 211/225/6 212/226/6 213/227/6
f 213/227/6 212/226/6 214/228/6
f 214/228/6 212/226/6 215/229/6
f 215/229/6 212/226/6 216/230/6
f 216/230/6 212/226/6 217/231/6
f 217/231/6 212/226/6 218/232/6
f 219/233/6 213/227/6 220/234/6
f 213/227/6 214/228/6 220/234/6
f 220/234/6 214/228/6 221/235/6
f 221/235/6 214/228/6 222/236/6
f 217/231/6 218/232/6 223/237/6
f 218/232/6 224/238/6 223/237/6
f 223/237/6 224/238/6 225/239/6
f 225/239/6 224/238/6 226/240/6
f 220/234/6 221/235/6 227/241/6
f 228/242/6 220/234/6 227/241/6
f 227/241/6 221/235/6 229/243/6
f 226/240/6 230/244/6 231/245/6
f 225/239/6 226/240/6 231/245/6
f 231/245/6 230/244/6 232/246/6
f 228/242/6 227/241/6 233/247/6
f 232/246/6 230/244/6 234/248/6
f 228/242/6 233/247/6 235/249/6
f 234/248/6 230/244/6 236/250/6
f 228/242/6 235/249/6 237/251/6
f 238/252/6 239/253/6 240/254/6
f 240/254/6 239/253/6 241/255/6
f 242/256/6 236/250/6 243/257/6
f 228/242/6 237/251/6 244/258/6
f 237/251/6 240/254/6 244/258/6
f 240/254/6 241/255/6 244/258/6
f 244/258/6 241/255/6 245/259/6
f 245/259/6 241/255/6 246/260/6
f 247/261/6 248/262/6 249/263/6
f 243/257/6 236/250/6 250/264/6
f 236/250/6 230/244/6 251/265/6
f 250/264/6 236/250/6 251/265/6
f 251/265/6 230/244/6 252/266/6
f 246/260/6 253/267/6 254/268/6
f 245/259/6 246/260/6 254/268/6
f 254/268/6 253/267/6 255/269/6
f 255/269/6 253/267/6 256/270/6
f 247/261/6 249/263/6 257/271/6
f 249/263/6 250/264/6 257/271/6
f 250/264/6 251/265/6 257/271/6
f 257/271/6 251/265/6 258/272/6
f 258/272/6 251/265/6 259/273/6
f 255/269/6 256/270/6 260/274/6
f 257/271/6 258/272/6 260/274/6
f 256/270/6 257/271/6 260/274/6
f 260/274/6 258/272/6 261/275/6
f 262/276/6 263/277/6 264/278/6
f 263/279/6 265/280/6 266/281/6
f 264/278/6 263/277/6 266/282/6
f 265/283/6 267/284/6 268/285/6
f 266/281/6 265/280/6 268/286/6
f 268/285/6 267/284/6 269/287/6
f 270/288/6 264/289/6 271/290/6
f 264/291/6 266/292/6 272/293/6
f 271/290/6 264/289/6 272/294/6
f 266/295/6 268/296/6 273/297/6
f 272/293/6 266/292/6 273/298/6
f 268/296/6 269/299/6 273/297/6
f 269/300/6 274/301/6 275/302/6
f 273/297/6 269/299/6 275/303/6
f 275/302/6 274/301/6 276/304/6
f 277/305/6 271/306/6 278/307/6
f 272/308/6 273/309/6 279/310/6
f 278/307/6 271/306/6 279/311/6
f 271/312/6 272/308/6 279/310/6
f 279/310/6 273/309/6 280/313/6
f 273/314/6 275/315/6 281/316/6
f 280/313/6 273/309/6 281/317/6
f 275/318/6 276/319/6 282/320/6
f 281/316/6 275/315/6 282/321/6
f 276/322/6 283/323/6 284/324/6
f 282/320/6 276/319/6 284/325/6
f 284/324/6 283/323/6 285/326/6
f 278/327/6 279/310/6 286/328/6
f 279/329/6 280/330/6 287/331/6
f 286/328/6 279/310/6 287/332/6
f 280/333/6 281/334/6 288/335/6
f 287/331/6 280/330/6 288/336/6
f 281/337/6 282/338/6 289/339/6
f 288/335/6 281/334/6 289/340/6
f 289/339/6 282/338/6 290/341/6
f 282/342/6 284/343/6 291/344/6
f 290/341/6 282/338/6 291/345/6
f 284/325/6 285/346/6 292/347/6
f 291/344/6 284/343/6 292/348/6
f 292/347/6 285/346/6 293/349/6
f 286/350/6 287/351/6 294/352/6
f 294/352/6 287/351/6 295/353/6
f 288/354/6 289/355/6 296/356/6
f 289/339/6 290/341/6 297/357/6
f 296/356/6 289/355/6 297/358/6
f 290/359/6 291/360/6 298/361/6
f 297/357/6 290/341/6 298/362/6
f 291/363/6 292/364/6 299/365/6
f 298/361/6 291/360/6 299/366/6
f 299/365/6 292/364/6 300/367/6
f 296/368/6 297/369/6 301/370/6
f 297/371/6 298/372/6 302/373/6
f 301/370/6 297/369/6 302/374/6
f 299/375/6 300/376/6 303/377/6
f 303/377/6 300/376/6 304/378/6
f 302/373/6 298/372/6 305/379/6
f 305/379/6 298/372/6 306/380/6
