# Blender v2.82 (sub 7) OBJ File: ''
# www.blender.org
mtllib LayerBonus1.mtl
o ObjObject.022
v -0.750000 0.500000 0.750000
v -0.750000 0.000000 -0.750000
v -0.750000 0.000000 0.750000
v -0.750000 0.500000 -0.750000
v -0.750000 0.600000 0.750000
v -0.750000 0.600000 -0.750000
v -0.550000 0.700000 0.350000
v -0.550000 0.600000 0.250000
v -0.550000 0.600000 0.350000
v -0.550000 0.700000 0.250000
v -0.550000 0.700000 -0.450000
v -0.550000 0.600000 -0.549999
v -0.550000 0.600000 -0.450000
v -0.550000 0.700000 -0.549999
v -0.350000 0.700000 0.150000
v -0.350000 0.600000 0.050000
v -0.350000 0.600000 0.150000
v -0.350000 0.700000 0.050000
v -0.150000 0.700000 -0.050000
v -0.150000 0.600000 -0.150000
v -0.150000 0.600000 -0.050000
v -0.150000 0.700000 -0.150000
v 0.250000 0.700000 0.350000
v 0.250000 0.600000 0.250000
v 0.250000 0.600000 0.350000
v 0.250000 0.700000 0.250000
v 0.450000 0.700000 0.550000
v 0.450000 0.600000 0.450000
v 0.450000 0.600000 0.550000
v 0.450000 0.700000 0.450000
v 0.450000 0.700000 -0.450000
v 0.450000 0.600000 -0.549999
v 0.450000 0.600000 -0.450000
v 0.450000 0.700000 -0.549999
v -0.450000 0.600000 0.350000
v -0.450000 0.600000 0.250000
v -0.450000 0.700000 0.350000
v -0.450000 0.700000 0.250000
v -0.450000 0.600000 -0.450000
v -0.450000 0.600000 -0.549999
v -0.450000 0.700000 -0.450000
v -0.450000 0.700000 -0.549999
v -0.250000 0.600000 0.150000
v -0.250000 0.600000 0.050000
v -0.250000 0.700000 0.150000
v -0.250000 0.700000 0.050000
v -0.050000 0.600000 -0.050000
v -0.050000 0.600000 -0.150000
v -0.050000 0.700000 -0.050000
v -0.050000 0.700000 -0.150000
v 0.350000 0.600000 0.350000
v 0.350000 0.600000 0.250000
v 0.350000 0.700000 0.350000
v 0.350000 0.700000 0.250000
v 0.550000 0.600000 0.550000
v 0.550000 0.600000 0.450000
v 0.550000 0.700000 0.550000
v 0.550000 0.700000 0.450000
v 0.550000 0.600000 -0.450000
v 0.550000 0.600000 -0.549999
v 0.550000 0.700000 -0.450000
v 0.550000 0.700000 -0.549999
v 0.750000 0.000000 0.750000
v 0.750000 0.000000 -0.750000
v 0.750000 0.500000 0.750000
v 0.750000 0.500000 -0.750000
v 0.750000 0.600000 0.750000
v 0.750000 0.600000 -0.750000
v 0.750000 0.000000 0.750000
v -0.750000 0.500000 0.750000
v -0.750000 0.000000 0.750000
v 0.750000 0.500000 0.750000
v -0.750000 0.600000 0.750000
v 0.750000 0.600000 0.750000
v 0.550000 0.600000 0.550000
v 0.450000 0.700000 0.550000
v 0.450000 0.600000 0.550000
v 0.550000 0.700000 0.550000
v -0.450000 0.600000 0.350000
v -0.550000 0.700000 0.350000
v -0.550000 0.600000 0.350000
v -0.450000 0.700000 0.350000
v 0.350000 0.600000 0.350000
v 0.250000 0.700000 0.350000
v 0.250000 0.600000 0.350000
v 0.350000 0.700000 0.350000
v -0.250000 0.600000 0.150000
v -0.350000 0.700000 0.150000
v -0.350000 0.600000 0.150000
v -0.250000 0.700000 0.150000
v -0.050000 0.600000 -0.050000
v -0.150000 0.700000 -0.050000
v -0.150000 0.600000 -0.050000
v -0.050000 0.700000 -0.050000
v -0.450000 0.600000 -0.450000
v -0.550000 0.700000 -0.450000
v -0.550000 0.600000 -0.450000
v -0.450000 0.700000 -0.450000
v 0.550000 0.600000 -0.450000
v 0.450000 0.700000 -0.450000
v 0.450000 0.600000 -0.450000
v 0.550000 0.700000 -0.450000
v 0.450000 0.600000 0.450000
v 0.450000 0.700000 0.450000
v 0.550000 0.600000 0.450000
v 0.550000 0.700000 0.450000
v -0.550000 0.600000 0.250000
v -0.550000 0.700000 0.250000
v -0.450000 0.600000 0.250000
v -0.450000 0.700000 0.250000
v 0.250000 0.600000 0.250000
v 0.250000 0.700000 0.250000
v 0.350000 0.600000 0.250000
v 0.350000 0.700000 0.250000
v -0.350000 0.600000 0.050000
v -0.350000 0.700000 0.050000
v -0.250000 0.600000 0.050000
v -0.250000 0.700000 0.050000
v -0.150000 0.600000 -0.150000
v -0.150000 0.700000 -0.150000
v -0.050000 0.600000 -0.150000
v -0.050000 0.700000 -0.150000
v -0.550000 0.600000 -0.549999
v -0.550000 0.700000 -0.549999
v -0.450000 0.600000 -0.549999
v -0.450000 0.700000 -0.549999
v 0.450000 0.600000 -0.549999
v 0.450000 0.700000 -0.549999
v 0.550000 0.600000 -0.549999
v 0.550000 0.700000 -0.549999
v -0.750000 0.000000 -0.750000
v -0.750000 0.500000 -0.750000
v 0.750000 0.000000 -0.750000
v -0.750000 0.600000 -0.750000
v 0.750000 0.500000 -0.750000
v 0.750000 0.600000 -0.750000
v -0.750000 0.000000 -0.750000
v 0.750000 0.000000 0.750000
v -0.750000 0.000000 0.750000
v 0.750000 0.000000 -0.750000
v -0.750000 0.600000 0.750000
v 0.750000 0.600000 0.750000
v -0.650000 0.600000 0.650000
v 0.650000 0.600000 0.650000
v -0.550000 0.600000 0.550000
v 0.450000 0.600000 0.550000
v 0.550000 0.600000 0.550000
v -0.550000 0.600000 0.450000
v 0.450000 0.600000 0.450000
v 0.550000 0.600000 0.450000
v -0.550000 0.600000 0.350000
v -0.450000 0.600000 0.350000
v 0.250000 0.600000 0.350000
v 0.350000 0.600000 0.350000
v -0.550000 0.600000 0.250000
v -0.450000 0.600000 0.250000
v 0.250000 0.600000 0.250000
v 0.350000 0.600000 0.250000
v -0.350000 0.600000 0.150000
v -0.250000 0.600000 0.150000
v 0.150000 0.600000 0.150000
v -0.350000 0.600000 0.050000
v -0.250000 0.600000 0.050000
v 0.050000 0.600000 0.050000
v -0.150000 0.600000 -0.050000
v -0.050000 0.600000 -0.050000
v 0.050000 0.600000 -0.050000
v -0.150000 0.600000 -0.150000
v -0.050000 0.600000 -0.150000
v 0.150000 0.600000 -0.150000
v -0.250000 0.600000 -0.250000
v 0.250000 0.600000 -0.250000
v -0.350000 0.600000 -0.350000
v 0.350000 0.600000 -0.350000
v -0.550000 0.600000 -0.450000
v -0.450000 0.600000 -0.450000
v 0.450000 0.600000 -0.450000
v 0.550000 0.600000 -0.450000
v -0.550000 0.600000 -0.549999
v -0.450000 0.600000 -0.549999
v 0.450000 0.600000 -0.549999
v 0.550000 0.600000 -0.549999
v -0.650000 0.600000 -0.649999
v 0.650000 0.600000 -0.649999
v -0.750000 0.600000 -0.750000
v 0.750000 0.600000 -0.750000
v 0.450000 0.700000 0.550000
v 0.550000 0.700000 0.550000
v 0.450000 0.700000 0.450000
v 0.550000 0.700000 0.450000
v -0.550000 0.700000 0.350000
v -0.450000 0.700000 0.350000
v -0.550000 0.700000 0.250000
v -0.450000 0.700000 0.250000
v 0.250000 0.700000 0.350000
v 0.350000 0.700000 0.350000
v 0.250000 0.700000 0.250000
v 0.350000 0.700000 0.250000
v -0.350000 0.700000 0.150000
v -0.250000 0.700000 0.150000
v -0.350000 0.700000 0.050000
v -0.250000 0.700000 0.050000
v -0.150000 0.700000 -0.050000
v -0.050000 0.700000 -0.050000
v -0.150000 0.700000 -0.150000
v -0.050000 0.700000 -0.150000
v -0.550000 0.700000 -0.450000
v -0.450000 0.700000 -0.450000
v -0.550000 0.700000 -0.549999
v -0.450000 0.700000 -0.549999
v 0.450000 0.700000 -0.450000
v 0.550000 0.700000 -0.450000
v 0.450000 0.700000 -0.549999
v 0.550000 0.700000 -0.549999
vt 0.958984 0.500000
vt 0.958984 0.500000
vt 0.958984 0.500000
vt 0.958984 0.500000
vt 0.970703 0.500000
vt 0.970703 0.500000
vt 0.970703 0.500000
vt 0.970703 0.500000
vt 0.966797 0.500000
vt 0.966797 0.500000
vt 0.966797 0.500000
vt 0.966797 0.500000
vt 0.966797 0.500000
vt 0.966797 0.500000
vt 0.966797 0.500000
vt 0.966797 0.500000
vt 0.966797 0.500000
vt 0.966797 0.500000
vt 0.966797 0.500000
vt 0.966797 0.500000
vt 0.966797 0.500000
vt 0.966797 0.500000
vt 0.966797 0.500000
vt 0.966797 0.500000
vt 0.966797 0.500000
vt 0.966797 0.500000
vt 0.966797 0.500000
vt 0.966797 0.500000
vt 0.966797 0.500000
vt 0.966797 0.500000
vt 0.966797 0.500000
vt 0.966797 0.500000
vt 0.966797 0.500000
vt 0.966797 0.500000
vt 0.966797 0.500000
vt 0.966797 0.500000
vt 0.966797 0.500000
vt 0.966797 0.500000
vt 0.966797 0.500000
vt 0.966797 0.500000
vt 0.966797 0.500000
vt 0.966797 0.500000
vt 0.966797 0.500000
vt 0.966797 0.500000
vt 0.966797 0.500000
vt 0.966797 0.500000
vt 0.966797 0.500000
vt 0.966797 0.500000
vt 0.966797 0.500000
vt 0.966797 0.500000
vt 0.966797 0.500000
vt 0.966797 0.500000
vt 0.966797 0.500000
vt 0.966797 0.500000
vt 0.966797 0.500000
vt 0.966797 0.500000
vt 0.966797 0.500000
vt 0.966797 0.500000
vt 0.966797 0.500000
vt 0.966797 0.500000
vt 0.966797 0.500000
vt 0.966797 0.500000
vt 0.966797 0.500000
vt 0.966797 0.500000
vt 0.958984 0.500000
vt 0.958984 0.500000
vt 0.958984 0.500000
vt 0.958984 0.500000
vt 0.970703 0.500000
vt 0.970703 0.500000
vt 0.970703 0.500000
vt 0.970703 0.500000
vt 0.958984 0.500000
vt 0.958984 0.500000
vt 0.958984 0.500000
vt 0.970703 0.500000
vt 0.970703 0.500000
vt 0.970703 0.500000
vt 0.958984 0.500000
vt 0.970703 0.500000
vt 0.966797 0.500000
vt 0.966797 0.500000
vt 0.966797 0.500000
vt 0.966797 0.500000
vt 0.966797 0.500000
vt 0.966797 0.500000
vt 0.966797 0.500000
vt 0.966797 0.500000
vt 0.966797 0.500000
vt 0.966797 0.500000
vt 0.966797 0.500000
vt 0.966797 0.500000
vt 0.966797 0.500000
vt 0.966797 0.500000
vt 0.966797 0.500000
vt 0.966797 0.500000
vt 0.966797 0.500000
vt 0.966797 0.500000
vt 0.966797 0.500000
vt 0.966797 0.500000
vt 0.966797 0.500000
vt 0.966797 0.500000
vt 0.966797 0.500000
vt 0.966797 0.500000
vt 0.966797 0.500000
vt 0.966797 0.500000
vt 0.966797 0.500000
vt 0.966797 0.500000
vt 0.966797 0.500000
vt 0.966797 0.500000
vt 0.966797 0.500000
vt 0.966797 0.500000
vt 0.966797 0.500000
vt 0.966797 0.500000
vt 0.966797 0.500000
vt 0.966797 0.500000
vt 0.966797 0.500000
vt 0.966797 0.500000
vt 0.966797 0.500000
vt 0.966797 0.500000
vt 0.966797 0.500000
vt 0.966797 0.500000
vt 0.966797 0.500000
vt 0.966797 0.500000
vt 0.966797 0.500000
vt 0.966797 0.500000
vt 0.966797 0.500000
vt 0.966797 0.500000
vt 0.966797 0.500000
vt 0.966797 0.500000
vt 0.966797 0.500000
vt 0.966797 0.500000
vt 0.966797 0.500000
vt 0.966797 0.500000
vt 0.966797 0.500000
vt 0.966797 0.500000
vt 0.958984 0.500000
vt 0.958984 0.500000
vt 0.958984 0.500000
vt 0.970703 0.500000
vt 0.970703 0.500000
vt 0.970703 0.500000
vt 0.958984 0.500000
vt 0.970703 0.500000
vt 0.958984 0.500000
vt 0.958984 0.500000
vt 0.958984 0.500000
vt 0.958984 0.500000
vt 0.970703 0.500000
vt 0.970703 0.500000
vt 0.970703 0.500000
vt 0.970703 0.500000
vt 0.958984 0.500000
vt 0.958984 0.500000
vt 0.958984 0.500000
vt 0.958984 0.500000
vt 0.958984 0.500000
vt 0.958984 0.500000
vt 0.962891 0.500000
vt 0.962891 0.500000
vt 0.962891 0.500000
vt 0.962891 0.500000
vt 0.958984 0.500000
vt 0.958984 0.500000
vt 0.958984 0.500000
vt 0.958984 0.500000
vt 0.958984 0.500000
vt 0.958984 0.500000
vt 0.958984 0.500000
vt 0.962891 0.500000
vt 0.962891 0.500000
vt 0.962891 0.500000
vt 0.962891 0.500000
vt 0.958984 0.500000
vt 0.958984 0.500000
vt 0.958984 0.500000
vt 0.958984 0.500000
vt 0.958984 0.500000
vt 0.958984 0.500000
vt 0.958984 0.500000
vt 0.962891 0.500000
vt 0.962891 0.500000
vt 0.962891 0.500000
vt 0.962891 0.500000
vt 0.958984 0.500000
vt 0.958984 0.500000
vt 0.958984 0.500000
vt 0.958984 0.500000
vt 0.962891 0.500000
vt 0.958984 0.500000
vt 0.958984 0.500000
vt 0.962891 0.500000
vt 0.962891 0.500000
vt 0.958984 0.500000
vt 0.962891 0.500000
vt 0.958984 0.500000
vt 0.958984 0.500000
vt 0.962891 0.500000
vt 0.962891 0.500000
vt 0.962891 0.500000
vt 0.962891 0.500000
vt 0.958984 0.500000
vt 0.962891 0.500000
vt 0.958984 0.500000
vt 0.962891 0.500000
vt 0.958984 0.500000
vt 0.958984 0.500000
vt 0.962891 0.500000
vt 0.962891 0.500000
vt 0.958984 0.500000
vt 0.962891 0.500000
vt 0.962891 0.500000
vt 0.962891 0.500000
vt 0.958984 0.500000
vt 0.958984 0.500000
vt 0.962891 0.500000
vt 0.958984 0.500000
vt 0.962891 0.500000
vt 0.962891 0.500000
vt 0.958984 0.500000
vt 0.970703 0.500000
vt 0.958984 0.500000
vt 0.958984 0.500000
vt 0.958984 0.500000
vt 0.958984 0.500000
vt 0.970703 0.500000
vt 0.970703 0.500000
vt 0.970703 0.500000
vt 0.966797 0.500000
vt 0.966797 0.500000
vt 0.966797 0.500000
vt 0.966797 0.500000
vt 0.966797 0.500000
vt 0.966797 0.500000
vt 0.966797 0.500000
vt 0.966797 0.500000
vt 0.966797 0.500000
vt 0.966797 0.500000
vt 0.966797 0.500000
vt 0.966797 0.500000
vt 0.966797 0.500000
vt 0.966797 0.500000
vt 0.966797 0.500000
vt 0.966797 0.500000
vt 0.966797 0.500000
vt 0.966797 0.500000
vt 0.966797 0.500000
vt 0.966797 0.500000
vt 0.966797 0.500000
vt 0.966797 0.500000
vt 0.966797 0.500000
vt 0.966797 0.500000
vt 0.966797 0.500000
vt 0.966797 0.500000
vt 0.966797 0.500000
vt 0.966797 0.500000
vn -1.0000 0.0000 0.0000
vn 1.0000 0.0000 0.0000
vn 0.0000 -0.0000 1.0000
vn 0.0000 0.0000 -1.0000
vn 0.0000 -1.0000 -0.0000
vn 0.0000 1.0000 0.0000
usemtl palette.022
s 1
f 1/1/1 2/2/1 3/3/1
f 4/4/1 2/2/1 1/1/1
f 5/5/1 4/6/1 1/7/1
f 6/8/1 4/6/1 5/5/1
f 7/9/1 8/10/1 9/11/1
f 10/12/1 8/10/1 7/9/1
f 11/13/1 12/14/1 13/15/1
f 14/16/1 12/14/1 11/13/1
f 15/17/1 16/18/1 17/19/1
f 18/20/1 16/18/1 15/17/1
f 19/21/1 20/22/1 21/23/1
f 22/24/1 20/22/1 19/21/1
f 23/25/1 24/26/1 25/27/1
f 26/28/1 24/26/1 23/25/1
f 27/29/1 28/30/1 29/31/1
f 30/32/1 28/30/1 27/29/1
f 31/33/1 32/34/1 33/35/1
f 34/36/1 32/34/1 31/33/1
f 35/37/2 36/38/2 37/39/2
f 37/39/2 36/38/2 38/40/2
f 39/41/2 40/42/2 41/43/2
f 41/43/2 40/42/2 42/44/2
f 43/45/2 44/46/2 45/47/2
f 45/47/2 44/46/2 46/48/2
f 47/49/2 48/50/2 49/51/2
f 49/51/2 48/50/2 50/52/2
f 51/53/2 52/54/2 53/55/2
f 53/55/2 52/54/2 54/56/2
f 55/57/2 56/58/2 57/59/2
f 57/59/2 56/58/2 58/60/2
f 59/61/2 60/62/2 61/63/2
f 61/63/2 60/62/2 62/64/2
f 63/65/2 64/66/2 65/67/2
f 65/67/2 64/66/2 66/68/2
f 65/69/2 66/70/2 67/71/2
f 67/71/2 66/70/2 68/72/2
f 69/73/3 70/74/3 71/75/3
f 72/76/3 73/77/3 70/78/3
f 72/79/3 70/74/3 69/73/3
f 74/80/3 73/77/3 72/76/3
f 75/81/3 76/82/3 77/83/3
f 78/84/3 76/82/3 75/81/3
f 79/85/3 80/86/3 81/87/3
f 82/88/3 80/86/3 79/85/3
f 83/89/3 84/90/3 85/91/3
f 86/92/3 84/90/3 83/89/3
f 87/93/3 88/94/3 89/95/3
f 90/96/3 88/94/3 87/93/3
f 91/97/3 92/98/3 93/99/3
f 94/100/3 92/98/3 91/97/3
f 95/101/3 96/102/3 97/103/3
f 98/104/3 96/102/3 95/101/3
f 99/105/3 100/106/3 101/107/3
f 102/108/3 100/106/3 99/105/3
f 103/109/4 104/110/4 105/111/4
f 105/111/4 104/110/4 106/112/4
f 107/113/4 108/114/4 109/115/4
f 109/115/4 108/114/4 110/116/4
f 111/117/4 112/118/4 113/119/4
f 113/119/4 112/118/4 114/120/4
f 115/121/4 116/122/4 117/123/4
f 117/123/4 116/122/4 118/124/4
f 119/125/4 120/126/4 121/127/4
f 121/127/4 120/126/4 122/128/4
f 123/129/4 124/130/4 125/131/4
f 125/131/4 124/130/4 126/132/4
f 127/133/4 128/134/4 129/135/4
f 129/135/4 128/134/4 130/136/4
f 131/137/4 132/138/4 133/139/4
f 132/140/4 134/141/4 135/142/4
f 133/139/4 132/138/4 135/143/4
f 135/142/4 134/141/4 136/144/4
f 137/145/5 138/146/5 139/147/5
f 140/148/5 138/146/5 137/145/5
f 141/149/6 142/150/6 143/151/6
f 143/151/6 142/150/6 144/152/6
f 143/153/6 144/154/6 145/155/6
f 145/155/6 144/154/6 146/156/6
f 146/156/6 144/154/6 147/157/6
f 143/153/6 145/155/6 148/158/6
f 145/159/6 146/160/6 148/161/6
f 148/161/6 146/160/6 149/162/6
f 147/157/6 144/154/6 150/163/6
f 148/158/6 149/164/6 151/165/6
f 143/153/6 148/158/6 151/165/6
f 151/165/6 149/164/6 152/166/6
f 152/166/6 149/164/6 153/167/6
f 153/167/6 149/164/6 154/168/6
f 143/153/6 151/165/6 155/169/6
f 152/170/6 153/171/6 156/172/6
f 156/172/6 153/171/6 157/173/6
f 154/168/6 149/164/6 158/174/6
f 156/175/6 157/176/6 159/177/6
f 159/177/6 157/176/6 160/178/6
f 160/178/6 157/176/6 161/179/6
f 156/175/6 159/177/6 162/180/6
f 160/181/6 161/182/6 163/183/6
f 163/183/6 161/182/6 164/184/6
f 163/185/6 164/186/6 165/187/6
f 165/187/6 164/186/6 166/188/6
f 164/184/6 161/182/6 167/189/6
f 166/188/6 164/186/6 167/190/6
f 163/185/6 165/187/6 168/191/6
f 166/192/6 167/189/6 169/193/6
f 161/179/6 157/176/6 170/194/6
f 167/189/6 161/182/6 170/195/6
f 169/193/6 167/189/6 170/195/6
f 168/191/6 169/196/6 171/197/6
f 162/198/6 163/183/6 171/199/6
f 169/196/6 170/194/6 171/197/6
f 163/185/6 168/191/6 171/197/6
f 157/173/6 158/200/6 172/201/6
f 171/197/6 170/194/6 172/202/6
f 170/194/6 157/176/6 172/202/6
f 162/198/6 171/199/6 173/203/6
f 156/175/6 162/180/6 173/204/6
f 171/199/6 172/201/6 173/203/6
f 172/201/6 158/200/6 174/205/6
f 173/203/6 172/201/6 174/205/6
f 158/174/6 149/164/6 174/206/6
f 143/153/6 155/169/6 175/207/6
f 155/208/6 156/172/6 175/209/6
f 156/175/6 173/204/6 176/210/6
f 175/209/6 156/172/6 176/211/6
f 173/204/6 174/206/6 176/210/6
f 149/162/6 150/212/6 177/213/6
f 176/210/6 174/206/6 177/214/6
f 174/206/6 149/164/6 177/214/6
f 150/163/6 144/154/6 178/215/6
f 177/213/6 150/212/6 178/216/6
f 143/153/6 175/207/6 179/217/6
f 176/211/6 177/213/6 180/218/6
f 180/218/6 177/213/6 181/219/6
f 178/215/6 144/154/6 182/220/6
f 141/149/6 143/151/6 183/221/6
f 181/222/6 182/220/6 183/223/6
f 180/224/6 181/222/6 183/223/6
f 143/153/6 179/217/6 183/223/6
f 179/217/6 180/224/6 183/223/6
f 182/220/6 144/154/6 184/225/6
f 183/223/6 182/220/6 184/225/6
f 144/152/6 142/150/6 184/226/6
f 141/149/6 183/221/6 185/227/6
f 183/221/6 184/226/6 185/227/6
f 184/226/6 142/150/6 186/228/6
f 185/227/6 184/226/6 186/228/6
f 187/229/6 188/230/6 189/231/6
f 189/231/6 188/230/6 190/232/6
f 191/233/6 192/234/6 193/235/6
f 193/235/6 192/234/6 194/236/6
f 195/237/6 196/238/6 197/239/6
f 197/239/6 196/238/6 198/240/6
f 199/241/6 200/242/6 201/243/6
f 201/243/6 200/242/6 202/244/6
f 203/245/6 204/246/6 205/247/6
f 205/247/6 204/246/6 206/248/6
f 207/249/6 208/250/6 209/251/6
f 209/251/6 208/250/6 210/252/6
f 211/253/6 212/254/6 213/255/6
f 213/255/6 212/254/6 214/256/6
